<?xml version="1.0" encoding="UTF-8"?><svg id="Camada_1" xmlns="http://www.w3.org/2000/svg" viewBox="0 0 595.28 595.28"><defs><style>.cls-1{fill:#00494c;}.cls-2{fill:#6cb4b3;}</style></defs><g><g><path class="cls-1" d="M475.25,34.58c.07,.39,.29,.74,.63,.95,.82,.53,1.77,.04,2.68-.5,1.53-.92,3.39-1.14,5.09-.59,.52,.16,1.01,.39,1.46,.68,2.33,1.49,3.35,4.41,2.5,7.11-1.28,4.03,.31,8.43,3.87,10.7,.69,.44,1.43,.79,2.22,1.04,2.38,.75,4.91,.54,7.13-.61,.15-.08,.3-.17,.45-.26-.26,2.56,.52,5.21,2.39,7.25,.56,.61,1.19,1.14,1.87,1.58,3.56,2.27,8.22,1.87,11.34-.98,2.09-1.91,5.18-2.21,7.5-.72,.45,.29,.86,.64,1.23,1.04,1.12,1.23,1.7,2.82,1.62,4.48-.05,1.14-.03,2.21,.78,2.73,.34,.22,.76,.28,1.16,.17,.7-.2,1.13-.85,1.61-1.84,2.59-5.41,2.11-11.63-1.11-16.52,6.06-10.45,.29-38.52,.03-39.73-.02-.09-.05-.18-.08-.26,0-.01-.02-.03-.02-.05-.04-.08-.09-.16-.15-.23-.02-.02-.04-.05-.06-.07-.07-.08-.15-.15-.25-.21h0c-.09-.06-.2-.11-.3-.14-.03,0-.06-.02-.08-.02-.09-.02-.18-.03-.27-.04-.02,0-.03,0-.05,0-.09,0-.18,.01-.27,.03-1.2,.28-28.92,6.78-35.98,16.61-5.98-.97-12.17,1.36-15.98,6.19-.68,.86-1.05,1.5-.94,2.19Zm39.89-15.15c.39,.59,1.18,.77,1.78,.38l9.83-6.37-2.3,15.8c-.1,.7,.38,1.35,1.09,1.46,.7,.1,1.35-.38,1.46-1.08l1.54-10.55c1.25,8.7,2.49,22.28-.61,29.02-.98-1.06-2.08-1.99-3.29-2.76h0c-2.43-1.55-5.14-2.41-7.89-2.6-.25-2.44-1.76-4.53-4.63-6.36-2.91-1.86-5.47-2.34-7.83-1.49-1.33-2.49-3.27-4.66-5.76-6.25-1.13-.72-2.35-1.3-3.63-1.74,4.83-5.59,17.54-10.13,25.94-12.65l-5.3,3.43c-.59,.39-.77,1.18-.38,1.78Zm-4.42,19.09c2.08,1.33,3.18,2.68,3.44,4.22-2.88,.24-5.69,1.22-8.14,2.91,.49-2.87,.23-5.77-.71-8.43,1.55-.48,3.28-.05,5.41,1.31Zm18.7,24.44c-.37-1.26-1.03-2.43-1.94-3.43-.52-.57-1.11-1.06-1.74-1.47-3.3-2.11-7.67-1.71-10.62,.99-2.26,2.07-5.64,2.36-8.22,.71-.5-.32-.95-.7-1.36-1.15-2.52-2.76-2.33-7.06,.43-9.58,.1-.09,.17-.19,.23-.31,4.76-4.13,11.71-4.65,17.03-1.25,1.05,.67,2.01,1.48,2.86,2.41,3.28,3.59,4.47,8.49,3.33,13.07Zm-35.68-33.77c1.2,.38,2.34,.91,3.39,1.58,5.31,3.4,7.76,9.91,6.03,15.95-.08,.11-.15,.24-.19,.37-.55,1.73-1.74,3.14-3.34,3.97-1.61,.84-3.44,.99-5.17,.45-.57-.18-1.11-.43-1.61-.75-2.58-1.65-3.73-4.84-2.81-7.77,1.21-3.81-.26-7.94-3.56-10.05-.64-.41-1.33-.73-2.06-.96-1.28-.4-2.62-.51-3.92-.32,3.67-2.92,8.66-3.92,13.24-2.47Z"/><path class="cls-1" d="M523.04,38.95c-.1,.7,.39,1.35,1.09,1.46,.7,.1,1.35-.38,1.46-1.08l.55-3.77c.08-.51-.17-1-.58-1.27-.15-.1-.32-.16-.51-.19-.7-.1-1.35,.38-1.46,1.09l-.55,3.77Z"/></g><g><path class="cls-1" d="M317.05,538.01c.07,.39,.29,.74,.63,.95,.82,.53,1.77,.04,2.68-.5,1.53-.92,3.39-1.14,5.09-.59,.52,.16,1.01,.39,1.46,.68,2.33,1.49,3.35,4.41,2.5,7.11-1.28,4.03,.31,8.43,3.87,10.7,.69,.44,1.43,.79,2.22,1.04,2.38,.75,4.91,.54,7.13-.61,.15-.08,.3-.17,.45-.26-.26,2.56,.52,5.21,2.39,7.25,.56,.61,1.19,1.14,1.87,1.58,3.56,2.27,8.22,1.87,11.34-.98,2.09-1.91,5.18-2.21,7.5-.72,.45,.29,.86,.64,1.23,1.04,1.12,1.23,1.7,2.82,1.62,4.48-.05,1.14-.03,2.21,.78,2.73,.34,.22,.76,.28,1.16,.17,.7-.2,1.13-.85,1.61-1.84,2.59-5.41,2.11-11.63-1.11-16.52,6.06-10.45,.29-38.52,.03-39.73-.02-.09-.05-.18-.08-.26,0-.01-.02-.03-.02-.05-.04-.08-.09-.16-.15-.23-.02-.02-.04-.05-.06-.07-.07-.08-.15-.15-.25-.21h0c-.09-.06-.2-.11-.3-.14-.03,0-.06-.02-.08-.02-.09-.02-.18-.03-.27-.04-.02,0-.03,0-.05,0-.09,0-.18,.01-.27,.03-1.2,.28-28.92,6.78-35.98,16.61-5.98-.97-12.17,1.36-15.98,6.19-.68,.86-1.05,1.5-.94,2.19Zm39.89-15.15c.39,.59,1.18,.77,1.78,.38l9.83-6.37-2.3,15.8c-.1,.7,.38,1.35,1.09,1.46,.7,.1,1.35-.38,1.46-1.08l1.54-10.55c1.25,8.7,2.49,22.28-.61,29.02-.98-1.06-2.08-1.99-3.29-2.76h0c-2.43-1.55-5.14-2.41-7.89-2.6-.25-2.44-1.76-4.53-4.63-6.36-2.91-1.86-5.47-2.34-7.83-1.49-1.33-2.49-3.27-4.66-5.76-6.25-1.13-.72-2.35-1.3-3.63-1.74,4.83-5.59,17.54-10.13,25.94-12.65l-5.3,3.43c-.59,.39-.77,1.18-.38,1.78Zm-4.42,19.09c2.08,1.33,3.18,2.68,3.44,4.22-2.88,.24-5.69,1.22-8.14,2.91,.49-2.87,.23-5.77-.71-8.43,1.55-.48,3.28-.05,5.41,1.31Zm18.7,24.44c-.37-1.26-1.03-2.43-1.94-3.43-.52-.57-1.11-1.06-1.74-1.47-3.3-2.11-7.67-1.71-10.62,.99-2.26,2.07-5.64,2.36-8.22,.71-.5-.32-.95-.7-1.36-1.15-2.52-2.76-2.33-7.06,.43-9.58,.1-.09,.17-.19,.23-.31,4.76-4.13,11.71-4.65,17.03-1.25,1.05,.67,2.01,1.48,2.86,2.41,3.28,3.59,4.47,8.49,3.33,13.07Zm-35.68-33.77c1.2,.38,2.34,.91,3.39,1.58,5.31,3.4,7.76,9.91,6.03,15.95-.08,.11-.15,.24-.19,.37-.55,1.73-1.74,3.14-3.34,3.97-1.61,.84-3.44,.99-5.17,.45-.57-.18-1.11-.43-1.61-.75-2.58-1.65-3.73-4.84-2.81-7.77,1.21-3.81-.26-7.94-3.56-10.05-.64-.41-1.33-.73-2.06-.96-1.28-.4-2.62-.51-3.92-.32,3.67-2.92,8.66-3.92,13.24-2.47Z"/><path class="cls-1" d="M364.84,542.37c-.1,.7,.39,1.35,1.09,1.46,.7,.1,1.35-.38,1.46-1.08l.55-3.77c.08-.51-.17-1-.58-1.27-.15-.1-.32-.16-.51-.19-.7-.1-1.35,.38-1.46,1.09l-.55,3.77Z"/></g><g><path class="cls-1" d="M450.18,314.63c-.39,.08-.73,.32-.93,.66-.49,.84,.03,1.77,.6,2.66,.98,1.49,1.27,3.34,.79,5.06-.14,.52-.35,1.02-.62,1.48-1.4,2.38-4.28,3.52-7.01,2.77-4.07-1.12-8.41,.64-10.54,4.29-.41,.7-.73,1.46-.95,2.25-.66,2.41-.34,4.93,.89,7.1,.09,.15,.18,.29,.27,.44-2.57-.16-5.19,.73-7.15,2.67-.59,.58-1.09,1.23-1.5,1.93-2.13,3.64-1.55,8.29,1.42,11.29,1.99,2.02,2.41,5.09,1.01,7.47-.27,.46-.6,.89-.99,1.27-1.18,1.17-2.75,1.81-4.42,1.8-1.15,0-2.21,.06-2.7,.89-.2,.35-.25,.77-.12,1.16,.23,.69,.89,1.1,1.9,1.53,5.5,2.38,11.7,1.66,16.46-1.75,10.68,5.65,38.51-1.21,39.7-1.52,.09-.02,.18-.05,.26-.09,.01,0,.03-.02,.04-.03,.08-.04,.16-.1,.23-.16,.02-.02,.04-.04,.06-.06,.08-.08,.15-.16,.2-.25h0c.06-.1,.09-.2,.12-.31,0-.03,.02-.06,.02-.08,.02-.09,.03-.18,.03-.28,0-.02,0-.03,0-.05,0-.09-.02-.18-.04-.27-.32-1.18-7.9-28.64-18-35.3,.74-6.01-1.83-12.11-6.81-15.72-.89-.65-1.54-.99-2.23-.85Zm16.69,39.27c-.58,.41-.72,1.21-.31,1.79l6.75,9.58-15.88-1.68c-.71-.07-1.34,.44-1.41,1.14-.07,.71,.43,1.34,1.14,1.41l10.61,1.12c-8.65,1.59-22.17,3.36-29.02,.52,1.02-1.02,1.9-2.16,2.63-3.39h0c1.46-2.49,2.21-5.24,2.29-7.98,2.43-.34,4.46-1.93,6.18-4.88,1.74-2.98,2.12-5.56,1.18-7.88,2.43-1.42,4.53-3.45,6.02-6,.68-1.16,1.21-2.4,1.6-3.7,5.78,4.61,10.81,17.13,13.65,25.42l-3.63-5.16c-.41-.58-1.21-.72-1.79-.31Zm-19.25-3.67c-1.24,2.13-2.56,3.29-4.08,3.6-.35-2.86-1.45-5.63-3.22-8.02,2.88,.38,5.77,0,8.4-1.04,.54,1.53,.18,3.28-1.09,5.46Zm-23.69,19.64c1.24-.42,2.39-1.12,3.35-2.07,.55-.54,1.02-1.15,1.4-1.8,1.98-3.38,1.41-7.73-1.4-10.57-2.16-2.18-2.58-5.55-1.03-8.19,.3-.51,.67-.98,1.09-1.4,2.66-2.63,6.96-2.6,9.59,.06,.09,.09,.2,.17,.32,.22,4.31,4.6,5.1,11.52,1.91,16.97-.63,1.07-1.4,2.07-2.3,2.95-3.46,3.42-8.3,4.8-12.93,3.83Zm32.35-36.97c-.33,1.21-.82,2.37-1.45,3.45-3.19,5.44-9.6,8.14-15.7,6.65-.12-.08-.24-.14-.38-.17-1.75-.48-3.2-1.61-4.1-3.19-.9-1.57-1.13-3.4-.65-5.15,.16-.58,.39-1.13,.69-1.64,1.55-2.64,4.69-3.92,7.65-3.11,3.85,1.06,7.92-.57,9.91-3.95,.38-.65,.68-1.36,.88-2.1,.35-1.3,.4-2.64,.17-3.93,3.06,3.55,4.26,8.5,2.98,13.14Z"/><path class="cls-1" d="M447.69,362.55c-.71-.07-1.34,.44-1.41,1.14-.08,.71,.44,1.34,1.14,1.41l3.79,.4c.52,.06,1-.21,1.24-.63,.09-.15,.15-.33,.17-.51,.08-.7-.44-1.34-1.14-1.41l-3.79-.4Z"/></g><g><path class="cls-1" d="M331.49,367.25l.68,8.83-12.53,.96c-3.8,.29-6.66,3.62-6.36,7.42,.29,3.8,3.62,6.65,7.42,6.36l12.54-.96,.68,8.83c.26,3.37,3.2,5.89,6.57,5.63h.04l36.08-2.77c.71-.05,1.24-.67,1.18-1.38-.05-.71-.67-1.24-1.38-1.18l-30.02,2.3-2.05-26.72c-.05-.71-.67-1.24-1.38-1.18-.71,.05-1.24,.67-1.18,1.38l2.05,26.71-3.44,.26h-.07s-.04,0-.07,.01c-1.94,.13-3.62-1.33-3.77-3.27l-.77-10.11c-.05-.71-.67-1.24-1.38-1.18l-13.82,1.06c-2.39,.18-4.48-1.61-4.66-4-.18-2.39,1.61-4.48,4-4.66l13.81-1.06c.71-.05,1.24-.67,1.18-1.38l-.78-10.11c-.15-1.94,1.3-3.64,3.24-3.81,.02,0,.04,0,.06,0,.02,0,.03,0,.05,0l4.76-.28,31.3-2.4c.71-.06,1.24-.67,1.18-1.38-.05-.71-.67-1.24-1.38-1.18l-31.28,2.4-4.81,.28h-.02s-.01,0-.02,0c-3.37,.26-5.89,3.21-5.63,6.57Z"/><path class="cls-1" d="M319.52,383.12c-.42-.57-1.22-.7-1.8-.28-.57,.42-.7,1.22-.28,1.8,1.46,2.01,4.98,1.75,5.64,1.67l14.04-1.08c.63-.05,.87,.19,.89,.36l.92,12.02c.05,.71,.67,1.24,1.38,1.18,.71-.05,1.24-.67,1.18-1.38l-.92-12.02c-.11-1.45-1.42-2.9-3.64-2.73l-14.08,1.08c-1.12,.11-2.9-.04-3.33-.63Z"/><path class="cls-1" d="M348.26,395.94c.06,.71,.67,1.24,1.38,1.18l26.22-2.01c.71-.05,1.24-.67,1.18-1.38-.05-.71-.67-1.24-1.38-1.18l-26.22,2.01c-.71,.06-1.24,.67-1.18,1.38Z"/><path class="cls-1" d="M347.71,388.76c.05,.71,.67,1.24,1.38,1.18l26.22-2.01c.71-.05,1.24-.67,1.18-1.38-.05-.71-.67-1.24-1.38-1.18l-26.22,2.01c-.71,.06-1.24,.67-1.18,1.38Z"/><path class="cls-1" d="M347.16,381.58c.05,.71,.67,1.24,1.38,1.18l26.22-2.01c.71-.05,1.24-.67,1.18-1.38-.05-.71-.67-1.24-1.38-1.18l-26.22,2.01c-.71,.06-1.24,.67-1.18,1.38Z"/><path class="cls-1" d="M346.61,374.4c.05,.71,.67,1.24,1.38,1.18l26.22-2.01c.71-.05,1.24-.67,1.18-1.38-.05-.71-.67-1.24-1.38-1.18l-26.22,2.01c-.71,.06-1.24,.67-1.18,1.38Z"/><path class="cls-1" d="M346.13,368.13c.05,.71,.67,1.24,1.38,1.18l26.22-2.01c.71-.05,1.24-.67,1.18-1.38-.05-.71-.67-1.24-1.38-1.18l-26.22,2.01c-.71,.06-1.24,.67-1.18,1.38Z"/><path class="cls-1" d="M341.13,366.57l.31,3.99c.05,.71,.67,1.24,1.38,1.18,.71-.05,1.24-.67,1.18-1.38l-.31-3.99c-.05-.71-.67-1.24-1.38-1.18-.71,.05-1.24,.67-1.18,1.38Z"/></g><g><path class="cls-1" d="M576.92,350.11l.68,8.83-12.53,.96c-3.8,.29-6.66,3.62-6.36,7.42,.29,3.8,3.62,6.65,7.42,6.36l12.54-.96,.68,8.83c.26,3.37,3.2,5.89,6.57,5.63h.04l36.08-2.77c.71-.05,1.24-.67,1.18-1.38-.05-.71-.67-1.24-1.38-1.18l-30.02,2.3-2.05-26.72c-.05-.71-.67-1.24-1.38-1.18-.71,.05-1.24,.67-1.18,1.38l2.05,26.71-3.44,.26h-.07s-.04,0-.07,.01c-1.94,.13-3.62-1.33-3.77-3.27l-.77-10.11c-.05-.71-.67-1.24-1.38-1.18l-13.82,1.06c-2.39,.18-4.48-1.61-4.66-4-.18-2.39,1.61-4.48,4-4.66l13.81-1.06c.71-.05,1.24-.67,1.18-1.38l-.78-10.11c-.15-1.94,1.3-3.64,3.24-3.81,.02,0,.04,0,.06,0,.02,0,.03,0,.05,0l4.76-.28,31.3-2.4c.71-.06,1.24-.67,1.18-1.38-.05-.71-.67-1.24-1.38-1.18l-31.28,2.4-4.81,.28h-.02s-.01,0-.02,0c-3.37,.26-5.89,3.21-5.63,6.57Z"/><path class="cls-1" d="M564.96,365.99c-.42-.57-1.22-.7-1.8-.28-.57,.42-.7,1.22-.28,1.8,1.46,2.01,4.98,1.75,5.64,1.67l14.04-1.08c.63-.05,.87,.19,.89,.36l.92,12.02c.05,.71,.67,1.24,1.38,1.18,.71-.05,1.24-.67,1.18-1.38l-.92-12.02c-.11-1.45-1.42-2.9-3.64-2.73l-14.08,1.08c-1.12,.11-2.9-.04-3.33-.63Z"/><path class="cls-1" d="M593.7,378.8c.06,.71,.67,1.24,1.38,1.18l26.22-2.01c.71-.05,1.24-.67,1.18-1.38-.05-.71-.67-1.24-1.38-1.18l-26.22,2.01c-.71,.06-1.24,.67-1.18,1.38Z"/><path class="cls-1" d="M593.15,371.62c.05,.71,.67,1.24,1.38,1.18l26.22-2.01c.71-.05,1.24-.67,1.18-1.38-.05-.71-.67-1.24-1.38-1.18l-26.22,2.01c-.71,.06-1.24,.67-1.18,1.38Z"/><path class="cls-1" d="M592.6,364.44c.05,.71,.67,1.24,1.38,1.18l26.22-2.01c.71-.05,1.24-.67,1.18-1.38-.05-.71-.67-1.24-1.38-1.18l-26.22,2.01c-.71,.06-1.24,.67-1.18,1.38Z"/><path class="cls-1" d="M592.05,357.26c.05,.71,.67,1.24,1.38,1.18l26.22-2.01c.71-.05,1.24-.67,1.18-1.38-.05-.71-.67-1.24-1.38-1.18l-26.22,2.01c-.71,.06-1.24,.67-1.18,1.38Z"/><path class="cls-1" d="M591.57,351c.05,.71,.67,1.24,1.38,1.18l26.22-2.01c.71-.05,1.24-.67,1.18-1.38-.05-.71-.67-1.24-1.38-1.18l-26.22,2.01c-.71,.06-1.24,.67-1.18,1.38Z"/><path class="cls-1" d="M586.57,349.43l.31,3.99c.05,.71,.67,1.24,1.38,1.18,.71-.05,1.24-.67,1.18-1.38l-.31-3.99c-.05-.71-.67-1.24-1.38-1.18-.71,.05-1.24,.67-1.18,1.38Z"/></g><g><path class="cls-1" d="M573.17,586.34c-.14-.29-.4-.53-.74-.65l-24.48-8.38c-.67-.23-1.4,.13-1.63,.8-.23,.67,.13,1.4,.8,1.63l24.48,8.38c.67,.23,1.4-.13,1.63-.8,.11-.34,.08-.69-.06-.98Z"/><path class="cls-1" d="M574.77,589.13l3.46,1.19c.67,.23,1.4-.13,1.63-.8,.11-.33,.08-.68-.06-.98-.14-.29-.4-.54-.74-.65l-3.46-1.19c-.67-.23-1.4,.13-1.63,.8-.23,.67,.13,1.4,.8,1.63Z"/><path class="cls-1" d="M543.41,561.8c-.23,.67,.13,1.4,.8,1.63,1.25,.43,1.67,3.46,1.6,5.78-2.64,.45-4.86,2.09-5.7,4.53-.75,2.18-.24,4.65,1.33,6.62l-9.85,28.79c-.21,.52-2,5.16-.55,8.32,.54,1.18,1.49,2.04,2.74,2.46l2.36,.81c.67,.23,1.4-.13,1.63-.8l10.27-30.03c.11-.32,.09-.68-.06-.98l-2.07-4.21c-.31-.64-1.08-.9-1.72-.59-.64,.31-.9,1.08-.59,1.72l1.83,3.74-9.69,28.32-1.14-.39c-.59-.2-1-.56-1.23-1.1-.84-1.84,.14-5.17,.62-6.36l10.11-29.55c.16-.45,.05-.96-.29-1.31-1.32-1.37-1.8-3.09-1.28-4.61,.84-2.44,3.98-3.58,7.01-2.54l31.71,10.85c1.51,.51,2.75,1.48,3.49,2.72,.71,1.17,.88,2.44,.49,3.58-.83,2.44-3.98,3.58-7.01,2.54l-27.14-9.29c-.67-.23-1.4,.13-1.63,.8-.23,.67,.13,1.4,.8,1.63l27.15,9.29c4.37,1.49,8.98-.36,10.27-4.14,.57-1.67,.43-3.47-.38-5.14-.1-.2-.21-.41-.33-.61-1.06-1.76-2.79-3.12-4.87-3.83l-31.71-10.85c-.67-.23-1.34-.37-2-.45,.03-1.44-.07-4.01-1.01-5.92-.5-1.02-1.24-1.86-2.33-2.23-.67-.23-1.4,.13-1.63,.8Z"/></g><g><path class="cls-1" d="M447.56,443.12c.3,.14,.65,.17,.98,.06l24.45-8.46c.67-.23,1.03-.96,.79-1.63-.23-.67-.96-1.03-1.63-.8l-24.45,8.46c-.67,.23-1.03,.96-.8,1.64,.12,.33,.36,.59,.65,.74Z"/><path class="cls-1" d="M444.58,441.91l-3.46,1.2c-.67,.23-1.03,.96-.79,1.64,.11,.33,.36,.59,.65,.73,.29,.14,.65,.17,.98,.06l3.46-1.2c.67-.23,1.03-.96,.8-1.63-.23-.67-.96-1.02-1.63-.79Z"/><path class="cls-1" d="M486.11,444.17c-.23-.67-.96-1.03-1.63-.79-1.25,.43-3.45-1.7-4.82-3.57,1.8-1.98,2.55-4.64,1.71-7.07-.75-2.18-2.67-3.81-5.12-4.4l-9.94-28.76c-.15-.54-1.6-5.29-4.69-6.9-1.15-.6-2.43-.69-3.68-.26l-2.36,.82c-.67,.23-1.03,.96-.8,1.63l10.38,30c.11,.32,.35,.59,.65,.74l4.22,2.05c.64,.31,1.41,.04,1.72-.59,.31-.64,.05-1.41-.59-1.72l-3.74-1.82-9.78-28.28,1.14-.4c.59-.2,1.13-.17,1.65,.11,1.79,.93,3.07,4.17,3.43,5.39l10.21,29.52c.16,.45,.55,.78,1.03,.85,1.88,.27,3.32,1.33,3.84,2.84,.84,2.44-.93,5.27-3.96,6.32l-31.68,10.95c-1.5,.52-3.08,.52-4.43,0-1.28-.49-2.19-1.38-2.59-2.52-.84-2.44,.93-5.27,3.96-6.32l27.11-9.37c.67-.23,1.03-.96,.8-1.63-.23-.67-.96-1.03-1.64-.8l-27.11,9.38c-4.36,1.51-6.85,5.81-5.55,9.58,.58,1.67,1.79,3,3.46,3.81,.21,.1,.42,.19,.63,.27,1.92,.73,4.11,.74,6.19,.02l31.68-10.95c.67-.23,1.28-.53,1.85-.88,.86,1.16,2.52,3.12,4.43,4.04,1.02,.5,2.12,.7,3.21,.33,.67-.23,1.02-.96,.79-1.64Z"/></g><g><path class="cls-1" d="M394.93,315.29c-3.83-5.53-11.45-6.91-16.98-3.08-.58,.41-.73,1.2-.32,1.79,.4,.58,1.21,.73,1.79,.32,4.36-3.02,10.38-1.93,13.41,2.43,1.23,1.78,1.82,3.86,1.7,6.02-.04,.71,.5,1.32,1.21,1.36,.14,0,.28,0,.41-.04,.52-.14,.91-.6,.94-1.17,.15-2.73-.59-5.37-2.15-7.62Z"/><path class="cls-1" d="M393.52,326.55c-.72,1.43-1.8,2.68-3.13,3.61-.58,.4-.73,1.2-.32,1.79,.32,.46,.89,.65,1.4,.51,.13-.04,.27-.1,.39-.18,1.68-1.17,3.06-2.75,3.96-4.57,.32-.63,.06-1.4-.57-1.72-.64-.32-1.41-.06-1.72,.57Z"/><path class="cls-1" d="M402.83,316.94c-2.8-10.1-13.28-16.04-23.38-13.25-6.2,1.72-11.15,6.54-13.06,12.66l-25.77,9.51c-.63,.23-.97,.9-.79,1.55l3.58,12.93c.18,.65,.83,1.05,1.49,.92l26.76-5.29c2.65,2.43,5.9,4.04,9.34,4.69,0,.04,.01,.09,.02,.14l5.18,18.71c1.23,4.46,5.86,7.08,10.33,5.85,4.46-1.23,7.08-5.86,5.85-10.33l-5.28-18.77c5.44-4.79,7.7-12.29,5.75-19.33Zm-8.01,17.88c-.4,.32-.57,.85-.43,1.35l5.5,19.56c.86,3.1-.96,6.31-4.06,7.16-3.09,.86-6.31-.96-7.16-4.06l-2.13-7.69,2.72-.75c.68-.19,1.08-.9,.9-1.58-.19-.69-.9-1.09-1.58-.9l-2.72,.75-.31-1.13,2.72-.75c.69-.19,1.09-.9,.9-1.58-.19-.68-.9-1.08-1.58-.9l-2.72,.75-1.13-4.08c1.95,.08,3.93-.13,5.86-.66,.68-.19,1.09-.9,.9-1.58-.19-.69-.9-1.09-1.58-.9-5.65,1.57-11.76-.03-15.94-4.16-.06-.06-.14-.12-.21-.17,0,0-.01,0-.02-.01-.07-.04-.13-.08-.2-.11-.02,0-.03-.01-.05-.01-.06-.02-.12-.04-.19-.06-.02,0-.04,0-.06,0-.06,0-.12-.02-.19-.02-.04,0-.08,0-.13,.01-.04,0-.08,0-.12,.01l-26.23,5.18-2.95-10.65,25.25-9.32s.07-.03,.11-.05c.03-.01,.07-.03,.1-.05,.04-.03,.09-.06,.13-.09,.02-.02,.05-.03,.07-.05,.04-.04,.08-.08,.11-.12,.02-.02,.04-.04,.06-.07,.04-.04,.06-.09,.09-.14,.01-.02,.03-.05,.04-.07,.03-.06,.05-.12,.07-.18,0-.02,.01-.03,.02-.05,1.53-5.56,5.92-9.97,11.47-11.51,8.73-2.42,17.8,2.72,20.22,11.45,1.75,6.33-.42,13.08-5.54,17.19Z"/><path class="cls-1" d="M363.16,331.32l-15.41,2.84c-.68,.13-1.16,.8-1.03,1.5,.13,.7,.8,1.16,1.49,1.03l15.41-2.84s.08-.01,.11-.03c.63-.17,1.04-.81,.92-1.47-.13-.7-.8-1.16-1.5-1.03Z"/><path class="cls-1" d="M389.73,321.2c-.77-2.78-3.66-4.42-6.44-3.65-2.78,.77-4.42,3.66-3.65,6.44,.77,2.78,3.66,4.42,6.44,3.65,2.78-.77,4.42-3.66,3.65-6.44Zm-4.33,3.96c-1.41,.39-2.88-.44-3.28-1.86-.39-1.41,.44-2.88,1.86-3.28,1.42-.39,2.88,.44,3.28,1.85,.39,1.42-.44,2.89-1.86,3.28Z"/></g><g><path class="cls-1" d="M548.16,293.61l2.78,3.23c.46,.54,1.27,.6,1.81,.14l25.65-22.06c.54-.46,.6-1.27,.14-1.81-.46-.54-1.28-.6-1.81-.14l-24.67,21.22-1.11-1.29,33.63-28.93,4.73,5.49c.46,.54,1.27,.6,1.81,.14l3.62-3.12,9.73,11.31-3.62,3.11h0c-.27,.23-.42,.55-.44,.88-.02,.33,.08,.67,.31,.93h0l1.68,1.96-25.79,22.19c-.54,.46-.6,1.28-.14,1.81,.46,.54,1.27,.6,1.81,.14l25.79-22.18,1.37,1.59-33.63,28.93-4.72-5.49c-.46-.54-1.27-.6-1.81-.14h0l-3.62,3.11-9.73-11.31,3.62-3.12c.54-.46,.6-1.27,.14-1.81-.23-.27-.55-.42-.88-.44-.33-.03-.66,.08-.93,.31l-4.6,3.95c-.26,.22-.42,.54-.44,.88-.03,.34,.09,.68,.31,.93l11.41,13.26c.46,.54,1.27,.6,1.81,.14l3.62-3.11,4.73,5.49c.22,.26,.54,.42,.88,.44,.34,.03,.68-.09,.94-.31l35.58-30.6c.54-.46,.6-1.27,.14-1.81l-4.72-5.49,3.62-3.12c.54-.46,.6-1.27,.13-1.81l-11.4-13.26c-.23-.27-.55-.42-.88-.44-.33-.02-.67,.08-.93,.31l-3.62,3.11-4.73-5.49c-.23-.27-.55-.42-.88-.44-.33-.02-.67,.08-.94,.31l-35.58,30.6c-.26,.22-.42,.54-.44,.88-.03,.34,.09,.67,.31,.93Z"/><path class="cls-1" d="M558.53,303.16c-.07,.96,.23,1.88,.86,2.61,.63,.73,1.49,1.17,2.45,1.24,.96,.07,1.88-.23,2.61-.86l10.57-9.09c.68,.26,1.39,.42,2.13,.47,2.01,.15,3.96-.49,5.48-1.8,2.13-1.83,3.04-4.63,2.45-7.32l10.57-9.09c.73-.63,1.17-1.5,1.24-2.45,.07-.95-.23-1.88-.86-2.61-.62-.73-1.5-1.17-2.45-1.24-.96-.07-1.88,.23-2.61,.86l-10.57,9.09c-.68-.26-1.39-.42-2.12-.47-2.01-.15-3.95,.49-5.48,1.8-2.13,1.83-3.05,4.63-2.45,7.32l-10.57,9.09c-.73,.63-1.17,1.5-1.24,2.45Zm2.91-.5l11.19-9.63c.43-.37,.55-.95,.36-1.45-.64-1.93-.07-4.02,1.48-5.34,1.01-.87,2.29-1.29,3.61-1.19,.64,.05,1.27,.22,1.79,.48l.12,.07c.47,.26,1.05,.2,1.46-.15l11.19-9.63c.41-.35,1.08-.31,1.43,.11,.18,.21,.26,.47,.24,.74-.02,.27-.15,.52-.35,.7l-11.19,9.62c-.4,.34-.55,.9-.38,1.39,.67,1.94,.1,4.06-1.46,5.39-1,.87-2.29,1.29-3.61,1.19-.65-.05-1.26-.22-1.8-.48l-.12-.07c-.47-.25-1.05-.2-1.45,.15l-11.19,9.63c-.41,.35-1.08,.3-1.44-.11-.18-.21-.26-.47-.24-.74,.02-.27,.15-.52,.35-.69Z"/></g><g><path class="cls-1" d="M457.05,239.35c-.03-1.17-.25-2.31-.66-3.39l5.2-4.45,26.46,10.06c.05,.02,.1,.04,.16,.05,.36,.08,8.78,2,12.53-3.86,.21-.34,.26-.75,.13-1.12-.13-.37-.43-.66-.81-.79l-29.62-9.8,29.05-11.37c.35-.14,.62-.42,.75-.78,.12-.35,.08-.74-.1-1.07-1.44-2.48-5.92-6.23-12.53-2.77l-26.27,10.56-5.45-4.18c.35-1.1,.51-2.25,.48-3.42-.15-5.72-4.93-10.25-10.66-10.1-5.72,.15-10.25,4.93-10.1,10.65,.15,5.72,4.93,10.25,10.65,10.1,2.02-.05,3.96-.69,5.61-1.83,.58-.4,.73-1.2,.33-1.79-.4-.58-1.2-.73-1.79-.33-1.25,.86-2.7,1.33-4.22,1.37-4.31,.11-7.9-3.29-8.02-7.6-.12-4.31,3.29-7.9,7.6-8.02,4.31-.11,7.9,3.29,8.02,7.6,.03,1.15-.19,2.27-.64,3.32-.14,.32-.14,.69,0,1.01,.13,.31,.37,.55,.67,.68l6.53,5.01c.36,.28,.84,.34,1.26,.17l27.01-10.85s.08-.04,.12-.06c4.19-2.22,6.86-.72,8.19,.56l-30.74,12.03c-.5,.2-.83,.69-.82,1.23,.01,.54,.37,1.01,.88,1.19l31.18,10.32c-2.97,2.5-7.9,1.59-8.55,1.45l-27.08-10.3c-.44-.17-.93-.08-1.29,.22l-6.26,5.35c-.29,.15-.52,.4-.64,.72-.12,.33-.1,.69,.06,1.01,.51,1.02,.79,2.13,.82,3.28,.11,4.31-3.3,7.9-7.6,8.02-4.31,.12-7.9-3.29-8.02-7.6-.12-4.31,3.3-7.9,7.6-8.02,1.52-.04,3,.36,4.29,1.15,.47,.28,1.06,.25,1.48-.1l5.84-4.74c.55-.45,.64-1.26,.19-1.81-.45-.55-1.26-.63-1.81-.19l-5.17,4.19c-1.51-.75-3.19-1.12-4.89-1.08-5.72,.15-10.25,4.93-10.1,10.65,.15,5.72,4.93,10.25,10.66,10.1,5.72-.15,10.25-4.93,10.1-10.66Z"/><path class="cls-1" d="M449.5,213.22c.02,.71,.61,1.27,1.32,1.25s1.27-.61,1.25-1.32c-.09-3.42-2.95-6.13-6.37-6.04-1.86,.05-3.58,.92-4.73,2.39-.19,.25-.28,.54-.27,.82,.01,.37,.18,.73,.49,.98,.56,.44,1.37,.34,1.8-.22,.67-.86,1.68-1.37,2.77-1.4,2.01-.05,3.68,1.53,3.73,3.54Z"/></g><g><path class="cls-1" d="M518.66,443.94c-.03-1.17-.25-2.31-.66-3.39l5.2-4.45,26.46,10.06c.05,.02,.1,.04,.16,.05,.36,.08,8.78,2,12.53-3.86,.21-.34,.26-.75,.13-1.12-.13-.37-.43-.66-.81-.79l-29.62-9.8,29.05-11.37c.35-.14,.62-.42,.75-.78,.12-.35,.08-.74-.1-1.07-1.44-2.48-5.92-6.23-12.53-2.77l-26.27,10.56-5.45-4.18c.35-1.1,.51-2.25,.48-3.42-.15-5.72-4.93-10.25-10.66-10.1-5.72,.15-10.25,4.93-10.1,10.65,.15,5.72,4.93,10.25,10.65,10.1,2.02-.05,3.96-.69,5.61-1.83,.58-.4,.73-1.2,.33-1.79-.4-.58-1.2-.73-1.79-.33-1.25,.86-2.7,1.33-4.22,1.37-4.31,.11-7.9-3.29-8.02-7.6-.12-4.31,3.29-7.9,7.6-8.02,4.31-.11,7.9,3.29,8.02,7.6,.03,1.15-.19,2.27-.64,3.32-.14,.32-.14,.69,0,1.01,.13,.31,.37,.55,.67,.68l6.53,5.01c.36,.28,.84,.34,1.26,.17l27.01-10.85s.08-.04,.12-.06c4.19-2.22,6.86-.72,8.19,.56l-30.74,12.03c-.5,.2-.83,.69-.82,1.23,.01,.54,.37,1.01,.88,1.19l31.18,10.32c-2.97,2.5-7.9,1.59-8.55,1.45l-27.08-10.3c-.44-.17-.93-.08-1.29,.22l-6.26,5.35c-.29,.15-.52,.4-.64,.72-.12,.33-.1,.69,.06,1.01,.51,1.02,.79,2.13,.82,3.28,.11,4.31-3.3,7.9-7.6,8.02-4.31,.12-7.9-3.29-8.02-7.6-.12-4.31,3.3-7.9,7.6-8.02,1.52-.04,3,.36,4.29,1.15,.47,.28,1.06,.25,1.48-.1l5.84-4.74c.55-.45,.64-1.26,.19-1.81-.45-.55-1.26-.63-1.81-.19l-5.17,4.19c-1.51-.75-3.19-1.12-4.89-1.08-5.72,.15-10.25,4.93-10.1,10.65,.15,5.72,4.93,10.25,10.66,10.1,5.72-.15,10.25-4.93,10.1-10.66Z"/><path class="cls-1" d="M511.11,417.82c.02,.71,.61,1.27,1.32,1.25s1.27-.61,1.25-1.32c-.09-3.42-2.95-6.13-6.37-6.04-1.86,.05-3.58,.92-4.73,2.39-.19,.25-.28,.54-.27,.82,.01,.37,.18,.73,.49,.98,.56,.44,1.37,.34,1.8-.22,.67-.86,1.68-1.37,2.77-1.4,2.01-.05,3.68,1.53,3.73,3.54Z"/></g><g><path class="cls-1" d="M467.76,164.22c-.26,.31-.37,.72-.27,1.12l2.53,10.28h0c.12,.47,.47,.82,.93,.94,2,.51,8.68,2.12,10.67,1.61,2.99-.76,4.8-3.81,4.05-6.8l-5.03-19.84h0s0-.03-.01-.04c-.03-.09-.06-.17-.1-.25-.01-.03-.03-.05-.05-.08-.04-.07-.09-.13-.14-.18-.01-.01-.02-.03-.03-.04l-3.79-3.79c-.33-.33-.8-.45-1.25-.33l-3.11,.85c-.43,.12-.77,.45-.9,.88l-1.45,5.05s0,.04,0,.06c-.02,.08-.03,.15-.03,.23,0,.03,0,.06,0,.09,0,.1,.01,.2,.04,.3h0l.88,3.41c-16.24-3.32-16.54-2.32-16.9-1.05-.08,.27-.15,.53-.08,.81,.27,1.06,2.55,2.55,14.05,6.76Zm7.47-14.72l1.66,1.66-3.99,1.01,.64-2.21,1.69-.46Zm-3.05,11.13c.69,.15,1.38-.3,1.52-.99,.05-.27,.02-.53-.08-.76,0-.05-.01-.1-.02-.16h0l-.98-3.82,1.68-.43,3.27,12.88c.17,.69,.87,1.1,1.56,.93,.69-.17,1.1-.87,.93-1.56l-3.27-12.88,1.68-.43,4.72,18.6c.41,1.62-.57,3.27-2.19,3.67-.87,.22-5.03-.54-8.66-1.43l-2.15-8.69c.19-.14,.42-.3,.66-.48,.05-.03,.09-.08,.13-.11,.28-.14,.52-.39,.63-.71,.24-.67-.1-1.4-.77-1.64-5.05-1.82-8.62-3.23-10.99-4.26,2.77,.4,6.88,1.13,12.33,2.27Z"/><path class="cls-1" d="M432.66,197.37l31.24-16.26c.63-.33,.88-1.1,.55-1.73-.33-.63-1.1-.87-1.73-.55l-31.1,16.19c-1.86,.4-3.72-.75-4.19-2.61l-5.33-21.02c-.47-1.86,.62-3.75,2.44-4.29l35.06-.59c.1,0,.2-.01,.29-.04,1.9-.48,3.85,.67,4.33,2.58l1.36,5.36c.1,.4,.13,.8,.1,1.2-.07,.7,.46,1.33,1.16,1.4,.71,.06,1.33-.46,1.4-1.16,.06-.69,0-1.39-.16-2.07l-1.36-5.36c-.82-3.23-4.07-5.21-7.3-4.47l-35.08,.59c-.1,0-.2,.01-.29,.04-3.28,.83-5.27,4.17-4.44,7.45l5.33,21.02c.83,3.28,4.17,5.27,7.45,4.44,.1-.02,.19-.06,.28-.11Z"/><path class="cls-1" d="M435.89,171.32l14.07-.36,1.62,6.38c.17,.69,.87,1.1,1.56,.93,.69-.17,1.1-.87,.93-1.56l-1.87-7.38c-.15-.58-.68-.98-1.28-.97l-15.1,.39c-.71,.02-1.27,.61-1.25,1.32,0,.1,.02,.19,.04,.28,.14,.57,.67,.98,1.28,.97Z"/><path class="cls-1" d="M431.45,168.96l-3.85,.08c-.71,.01-1.27,.6-1.26,1.31,0,.1,.02,.2,.04,.29,.14,.57,.66,.98,1.27,.97l3.85-.08c.71-.01,1.27-.6,1.26-1.31-.02-.71-.6-1.27-1.31-1.26Z"/></g><g><path class="cls-1" d="M418.76,529.62c.26-.31,.37-.72,.27-1.12l-2.53-10.28h0c-.12-.47-.47-.82-.93-.94-2-.51-8.68-2.12-10.67-1.61-2.99,.76-4.8,3.81-4.05,6.8l5.03,19.84h0s0,.03,.01,.04c.03,.09,.06,.17,.1,.25,.01,.03,.03,.05,.05,.08,.04,.07,.09,.13,.14,.18,.01,.01,.02,.03,.03,.04l3.79,3.79c.33,.33,.8,.45,1.25,.33l3.11-.85c.43-.12,.77-.45,.9-.88l1.45-5.05s0-.04,0-.06c.02-.08,.03-.15,.03-.23,0-.03,0-.06,0-.09,0-.1-.01-.2-.04-.3h0l-.88-3.41c16.24,3.32,16.54,2.32,16.9,1.05,.08-.27,.15-.53,.08-.81-.27-1.06-2.55-2.55-14.05-6.76Zm-7.47,14.72l-1.66-1.66,3.99-1.01-.64,2.21-1.69,.46Zm3.05-11.13c-.69-.15-1.38,.3-1.52,.99-.05,.27-.02,.53,.08,.76,0,.05,.01,.1,.02,.16h0l.98,3.82-1.68,.43-3.27-12.88c-.17-.69-.87-1.1-1.56-.93-.69,.17-1.1,.87-.93,1.56l3.27,12.88-1.68,.43-4.72-18.6c-.41-1.62,.57-3.27,2.19-3.67,.87-.22,5.03,.54,8.66,1.43l2.15,8.69c-.19,.14-.42,.3-.66,.48-.05,.03-.09,.08-.13,.11-.28,.14-.52,.39-.63,.71-.24,.67,.1,1.4,.77,1.64,5.05,1.82,8.62,3.23,10.99,4.26-2.77-.4-6.88-1.13-12.33-2.27Z"/><path class="cls-1" d="M453.86,496.48l-31.24,16.26c-.63,.33-.88,1.1-.55,1.73,.33,.63,1.1,.87,1.73,.55l31.1-16.19c1.86-.4,3.72,.75,4.19,2.61l5.33,21.02c.47,1.86-.62,3.75-2.44,4.29l-35.06,.59c-.1,0-.2,.01-.29,.04-1.9,.48-3.85-.67-4.33-2.58l-1.36-5.36c-.1-.4-.13-.8-.1-1.2,.07-.7-.46-1.33-1.16-1.4-.71-.06-1.33,.46-1.4,1.16-.06,.69,0,1.39,.16,2.07l1.36,5.36c.82,3.23,4.07,5.21,7.3,4.47l35.08-.59c.1,0,.2-.01,.29-.04,3.28-.83,5.27-4.17,4.44-7.45l-5.33-21.02c-.83-3.28-4.17-5.27-7.45-4.44-.1,.02-.19,.06-.28,.11Z"/><path class="cls-1" d="M450.62,522.52l-14.07,.36-1.62-6.38c-.17-.69-.87-1.1-1.56-.93-.69,.17-1.1,.87-.93,1.56l1.87,7.38c.15,.58,.68,.98,1.28,.97l15.1-.39c.71-.02,1.27-.61,1.25-1.32,0-.1-.02-.19-.04-.28-.14-.57-.67-.98-1.28-.97Z"/><path class="cls-1" d="M455.07,524.89l3.85-.08c.71-.01,1.27-.6,1.26-1.31,0-.1-.02-.2-.04-.29-.14-.57-.66-.98-1.27-.97l-3.85,.08c-.71,.01-1.27,.6-1.26,1.31,.02,.71,.6,1.27,1.31,1.26Z"/></g><g><path class="cls-1" d="M531.94,536.77c-.26,.31-.37,.72-.27,1.12l2.53,10.28h0c.12,.47,.47,.82,.93,.94,2,.51,8.68,2.12,10.67,1.61,2.99-.76,4.8-3.81,4.05-6.8l-5.03-19.84h0s0-.03-.01-.04c-.03-.09-.06-.17-.1-.25-.01-.03-.03-.05-.05-.08-.04-.07-.09-.13-.14-.18-.01-.01-.02-.03-.03-.04l-3.79-3.79c-.33-.33-.8-.45-1.25-.33l-3.11,.85c-.43,.12-.77,.45-.9,.88l-1.45,5.05s0,.04,0,.06c-.02,.08-.03,.15-.03,.23,0,.03,0,.06,0,.09,0,.1,.01,.2,.04,.3h0l.88,3.41c-16.24-3.32-16.54-2.32-16.9-1.05-.08,.27-.15,.53-.08,.81,.27,1.06,2.55,2.55,14.05,6.76Zm7.47-14.72l1.66,1.66-3.99,1.01,.64-2.21,1.69-.46Zm-3.05,11.13c.69,.15,1.38-.3,1.52-.99,.05-.27,.02-.53-.08-.76,0-.05-.01-.1-.02-.16h0l-.98-3.82,1.68-.43,3.27,12.88c.17,.69,.87,1.1,1.56,.93,.69-.17,1.1-.87,.93-1.56l-3.27-12.88,1.68-.43,4.72,18.6c.41,1.62-.57,3.27-2.19,3.67-.87,.22-5.03-.54-8.66-1.43l-2.15-8.69c.19-.14,.42-.3,.66-.48,.05-.03,.09-.08,.13-.11,.28-.14,.52-.39,.63-.71,.24-.67-.1-1.4-.77-1.64-5.05-1.82-8.62-3.23-10.99-4.26,2.77,.4,6.88,1.13,12.33,2.27Z"/><path class="cls-1" d="M496.84,569.91l31.24-16.26c.63-.33,.88-1.1,.55-1.73-.33-.63-1.1-.87-1.73-.55l-31.1,16.19c-1.86,.4-3.72-.75-4.19-2.61l-5.33-21.02c-.47-1.86,.62-3.75,2.44-4.29l35.06-.59c.1,0,.2-.01,.29-.04,1.9-.48,3.85,.67,4.33,2.58l1.36,5.36c.1,.4,.13,.8,.1,1.2-.07,.7,.46,1.33,1.16,1.4,.71,.06,1.33-.46,1.4-1.16,.06-.69,0-1.39-.16-2.07l-1.36-5.36c-.82-3.23-4.07-5.21-7.3-4.47l-35.08,.59c-.1,0-.2,.01-.29,.04-3.28,.83-5.27,4.17-4.44,7.45l5.33,21.02c.83,3.28,4.17,5.27,7.45,4.44,.1-.02,.19-.06,.28-.11Z"/><path class="cls-1" d="M500.08,543.87l14.07-.36,1.62,6.38c.17,.69,.87,1.1,1.56,.93,.69-.17,1.1-.87,.93-1.56l-1.87-7.38c-.15-.58-.68-.98-1.28-.97l-15.1,.39c-.71,.02-1.27,.61-1.25,1.32,0,.1,.02,.19,.04,.28,.14,.57,.67,.98,1.28,.97Z"/><path class="cls-1" d="M495.63,541.5l-3.85,.08c-.71,.01-1.27,.6-1.26,1.31,0,.1,.02,.2,.04,.29,.14,.57,.66,.98,1.27,.97l3.85-.08c.71-.01,1.27-.6,1.26-1.31-.02-.71-.6-1.27-1.31-1.26Z"/></g><g><path class="cls-1" d="M367.36,431.28c-.33-.09-.7-.04-1.01,.16l-23.8,14.99c-.6,.38-.78,1.17-.4,1.77,.38,.6,1.17,.78,1.77,.4l23.8-14.99c.6-.38,.78-1.17,.4-1.77-.18-.29-.46-.48-.76-.56Z"/><path class="cls-1" d="M370.61,431.55l2.72-1.69c.6-.38,.79-1.17,.41-1.77-.18-.29-.46-.48-.76-.56-.33-.09-.69-.04-1.01,.15l-2.73,1.7c-.6,.37-.79,1.17-.41,1.77,.37,.6,1.16,.79,1.77,.41Z"/><path class="cls-1" d="M310.3,447.52c.36,.61,1.14,.82,1.76,.46l2.61-1.52,1.16,1.99-2.61,1.52c-.61,.36-.82,1.14-.46,1.76,.36,.61,1.14,.82,1.76,.46l2.61-1.52,1.16,1.99-2.61,1.52c-.61,.36-.82,1.14-.46,1.76,.36,.61,1.14,.82,1.76,.46l2.61-1.52,1.16,1.99-2.61,1.52c-.61,.36-.82,1.14-.46,1.76,.36,.62,1.15,.82,1.76,.46l2.61-1.52,1.16,1.99-2.61,1.52c-.61,.36-.82,1.14-.46,1.76,.36,.61,1.14,.82,1.76,.46l2.63-1.53c1.65,2.28,4.8,2.99,7.29,1.54,3.52-2.05,1.41-5.66,.72-6.84l-1.19-2.04,5.16-3.01c2.97,1.46,6.45,1.77,9.36,.07l29.24-18.76c2.35-1.37,4.02-3.56,4.71-6.19,.69-2.62,.32-5.36-1.05-7.7l-1.3-2.23c-1.41-2.43-3.68-4.05-6.2-4.71-2.5-.66-5.25-.37-7.64,1.02l-30.83,16.26c-1.33,.77-2.4,1.91-3.18,3.37-.34,.63-.1,1.4,.52,1.74,.63,.34,1.4,.1,1.74-.52,.56-1.04,1.3-1.83,2.17-2.34l30.83-16.26c3.62-2.11,8.27-.88,10.38,2.74l1.3,2.23c2.11,3.61,.88,8.27-2.78,10.41l-29.25,18.76c-3.64,2.12-9.06-.47-11.12-4.01l-1.3-2.23c-.82-1.41-1.27-3.19-1.25-5.02,0-.71-.56-1.29-1.27-1.3-.36,0-.69,.14-.92,.38l-5.52,3.22-1.3-2.22c-.48-.82-1.62-2.78-3.43-3.25-.82-.22-1.78-.13-2.88,.51-1.28,.74-2.19,1.94-2.57,3.38-.35,1.35-.19,2.74,.45,3.97l-2.62,1.53c-.61,.36-.82,1.14-.46,1.76Zm6.5-8.41c.61-.35,1.3-.75,2.8,1.82l6.54,11.22c.18,.31,.46,.51,.78,.59,.32,.09,.67,.05,.97-.13,.61-.36,.82-1.14,.46-1.76l-3.95-6.78,4.03-2.35c.24,1.49,.72,2.91,1.43,4.13l1.3,2.23c.72,1.23,1.72,2.35,2.88,3.29l-5.13,2.99c-.31,.18-.51,.46-.6,.78-.08,.32-.05,.67,.13,.97l1.83,3.15c1.5,2.57,.81,2.98,.2,3.33-1.42,.83-3.25,.35-4.07-1.07l-.37-.64h0l-4.9-8.41h0l-2.45-4.21h0l-2.45-4.21h0l-.51-.88c-.83-1.42-.35-3.25,1.07-4.07Z"/></g><g><path class="cls-1" d="M7.19,555.82c-4.53,.4-8.12,2.17-10.65,5.31-4.75,5.88-4.41,14.75-4.04,18.33l-1.8-.07c-.71-.03-1.31,.53-1.33,1.24l-.31,8.13c-.03,.71,.53,1.31,1.24,1.33l7.09,.27c1.63,.06,3.12-.65,4.1-1.81l3.74,.14c.87,8.34,7.77,15.02,16.39,15.35l29.3,1.11c.71,.03,1.31-.53,1.33-1.23l1.27-33.61c.03-.71-.53-1.31-1.23-1.33l-29.3-1.11c-7.02-.27-13.42,3.7-16.3,10.11-.29,.65,0,1.41,.64,1.7,.65,.29,1.41,0,1.7-.65,2.45-5.45,7.89-8.82,13.86-8.6l28.02,1.06-1.18,31.05-28.02-1.06c-8.04-.3-14.33-7.09-14.02-15.13l.07-1.89c.02-.35,.04-.71,.08-1.05,.08-.64-.35-1.23-.96-1.38-.05-.01-.1-.02-.15-.03,0,0-.02,0-.02,0h-.02s-.08-.01-.12-.01l-4.83-.18c-.12-.17-.25-.33-.39-.48-.93-1-2.2-1.58-3.56-1.64l-2.69-.1c-.33-2.93-.85-11.51,3.44-16.81,2.03-2.51,4.93-3.96,8.62-4.34,.55,4.35,4.18,7.81,8.71,7.98,5.04,.19,9.29-3.75,9.48-8.79,.19-5.04-3.75-9.28-8.78-9.48-4.67-.18-8.65,3.2-9.36,7.7Zm-15.52,31.74l.21-5.56,5.8,.22c.68,.03,1.31,.32,1.78,.82,.46,.5,.71,1.15,.68,1.83l-.02,.46c-.05,1.41-1.24,2.51-2.65,2.45l-5.8-.22Zm13.45-1.46l-2.36-.09,.06-1.63,2.36,.09-.06,1.63Zm17.65-28.61c-.14,3.62-3.19,6.45-6.81,6.31-3.62-.14-6.45-3.19-6.31-6.81,.14-3.62,3.19-6.45,6.81-6.31,3.62,.14,6.45,3.19,6.31,6.81Z"/><path class="cls-1" d="M32.58,593.97l.61-16.12c.03-.71-.53-1.31-1.23-1.33l-9.26-.35c-.71-.03-1.31,.53-1.33,1.23l-.61,16.12c-.03,.71,.53,1.31,1.23,1.33l9.26,.35c.71,.03,1.31-.53,1.33-1.24Zm-9.21-1.63l.51-13.55,6.69,.25-.51,13.55-6.69-.25Z"/><path class="cls-1" d="M23.54,596.69c-6.71-.25-11.96-5.68-11.72-12.09,.03-.71-.53-1.31-1.23-1.33-.71-.03-1.31,.53-1.33,1.24-.3,7.83,6.07,14.44,14.19,14.75l11.95,.45c.71,.03,1.31-.53,1.33-1.24,.03-.71-.53-1.31-1.24-1.33l-11.95-.45Z"/></g><g><path class="cls-1" d="M339.87,582.2c-2.04-4.07-5.01-6.75-8.85-7.95-7.21-2.25-15.34,1.33-18.53,2.99l-.6-1.7c-.24-.67-.97-1.02-1.64-.78l-7.67,2.71c-.67,.24-1.02,.97-.78,1.64l2.36,6.69c.54,1.54,1.75,2.66,3.19,3.15l1.25,3.53c-7.44,3.88-11.11,12.75-8.23,20.89l9.76,27.65c.24,.67,.97,1.02,1.64,.78l31.72-11.19c.67-.24,1.02-.97,.79-1.64l-9.76-27.65c-2.34-6.63-8.39-11.12-15.41-11.43-.71-.03-1.31,.52-1.34,1.22-.03,.71,.52,1.31,1.23,1.34,5.97,.27,11.11,4.09,13.1,9.72l9.33,26.44-29.3,10.34-9.33-26.44c-2.68-7.58,1.32-15.93,8.9-18.61l1.78-.63c.34-.12,.67-.22,1.01-.31,.62-.16,1.01-.77,.93-1.4,0-.05-.01-.1-.03-.15,0,0,0-.02,0-.03h0c0-.05-.02-.09-.03-.13l-1.61-4.56c.11-.17,.21-.35,.3-.54,.59-1.23,.66-2.63,.21-3.92l-.89-2.53c2.6-1.38,10.39-5.02,16.9-2.99,3.08,.96,5.5,3.12,7.21,6.41-3.85,2.12-5.72,6.76-4.21,11.03,1.68,4.75,6.91,7.25,11.66,5.58,4.75-1.68,7.25-6.91,5.57-11.66-1.55-4.4-6.16-6.87-10.61-5.87Zm-35.23-2.74l5.25-1.85,1.93,5.48c.23,.65,.19,1.34-.1,1.95-.29,.61-.81,1.08-1.45,1.31l-.43,.15c-1.33,.47-2.79-.23-3.26-1.56l-1.93-5.48Zm6.31,11.97l-.79-2.23,1.54-.54,.79,2.23-1.54,.54Zm33.1,5.87c-3.42,1.21-7.17-.59-8.38-4.01-1.2-3.41,.59-7.17,4.01-8.38,3.41-1.2,7.17,.6,8.38,4.01,1.21,3.42-.59,7.17-4.01,8.38Z"/><path class="cls-1" d="M307.89,612.45c-2.23-6.33,.87-13.21,6.92-15.35,.67-.24,1.02-.97,.78-1.64-.24-.67-.97-1.02-1.64-.78-7.39,2.61-11.2,10.96-8.49,18.62l3.98,11.28c.24,.67,.97,1.02,1.64,.79,.67-.24,1.02-.97,.78-1.64l-3.98-11.27Z"/></g><g><path class="cls-1" d="M98.15,491.16c.65,1.06,2.01,.64,2.53,.48,1.07-.33,2.52-.12,3.98,.57,1.26,.6,3.05,4.06,4.49,6.84,1.96,3.8,3.82,7.39,6.05,8.44,2.03,.95,4.03,1.23,5.7,.86,.22,1.7,1.17,3.49,2.77,5.07,1.75,1.74,5.76,2.25,10,2.79,3.11,.4,6.98,.88,7.97,1.87,1.06,1.05,1.75,2.26,1.88,3.33,.08,.62,.26,2.08,1.5,2.27,.79,.12,1.43-.35,1.9-1.39,1.77-3.95,.03-9.35-4.43-13.76-.93-.92-1.94-1.75-2.99-2.49-4.44-3.1-9.76-4.53-13.88-3.54-.69,.17-1.12,.86-.95,1.55,.17,.69,.86,1.12,1.55,.95,4.29-1.03,10.23,1.17,14.46,5.36,2.51,2.48,4.03,5.33,4.3,7.82-.41-.66-.93-1.31-1.54-1.91-1.61-1.6-5.25-2.06-9.46-2.59-3.29-.42-7.38-.93-8.52-2.06-1.9-1.88-2.33-3.79-1.92-4.86,0-.02,0-.03,.01-.05,.02-.05,.03-.1,.04-.15,0-.04,.01-.07,.02-.11,0-.04,0-.08,0-.12,0-.04,0-.09,0-.13,0-.03,0-.07-.01-.1,0-.05-.02-.1-.03-.15,0-.03-.02-.06-.03-.08-.02-.05-.05-.11-.07-.16-.01-.02-.02-.04-.04-.06-.03-.06-.07-.11-.11-.16,0,0-.01-.02-.02-.03,0,0-.01-.01-.02-.02-.04-.05-.09-.09-.14-.13-.02-.02-.04-.03-.06-.04-.04-.03-.09-.06-.13-.08-.03-.02-.07-.03-.1-.05-.02,0-.03-.02-.05-.03-.02,0-.04-.01-.07-.02-.04-.01-.08-.02-.12-.03-.04,0-.09-.02-.13-.02-.04,0-.07,0-.11,0-.05,0-.09,0-.14,0-.04,0-.07,0-.11,.01-.04,0-.09,.02-.13,.03-.04,.01-.07,.02-.11,.04-.04,.02-.08,.03-.12,.05-.03,.02-.06,.04-.1,.06-.04,.03-.08,.06-.12,.09-.01,.01-.03,.02-.05,.03-.86,.75-2.81,.99-5.22-.14-1.45-.68-3.34-4.35-4.86-7.3-1.95-3.77-3.62-7.02-5.68-7.99-.78-.37-1.57-.63-2.33-.79,2.42-.6,5.62-.15,8.83,1.36,5.46,2.57,9.57,7.42,10,11.8,.07,.71,.7,1.22,1.4,1.15,.7-.07,1.22-.7,1.15-1.41-.42-4.23-3.57-8.76-8.05-11.89-1.07-.75-2.21-1.41-3.41-1.98-5.83-2.74-11.57-2.45-14.63,.75-.8,.83-.98,1.59-.56,2.28Z"/><path class="cls-1" d="M85.8,520.72l10.21,7.14c3.32,2.33,6.66,2.5,9.69,.53l1.72,1.2c-.82,3.53,.49,6.6,3.82,8.92l10.21,7.14c4.41,3.08,10.37,2.19,13.29-1.98,.03-.05,.07-.1,.09-.16l2.25-4.46c2.22-5.11,1.12-10.18-2.82-12.94l-8.48-5.93c-3.93-2.74-12.34,2.57-14.92,4.33l-2.31-1.61c-.58-.41-1.38-.26-1.79,.32-.41,.58-.26,1.38,.32,1.79l3.05,2.13c.46,.32,1.06,.31,1.51-.03,3.38-2.55,10.51-6.34,12.68-4.82l8.48,5.93c3.51,2.45,3.23,6.82,1.96,9.74l-2.17,4.31c-2.13,2.95-6.44,3.53-9.66,1.28l-10.21-7.14c-2.67-1.86-3.51-4.14-2.59-6.95,.18-.54-.02-1.13-.49-1.46l-3.21-2.25c-.47-.32-1.09-.31-1.53,.05-2.32,1.83-4.74,1.82-7.41-.05l-10.21-7.14c-3.22-2.25-4.16-6.5-2.11-9.51l3.29-3.5c2.43-2.48,6.41-3.91,9.84-1.51l8.48,5.93c1.35,.94,1.01,4.76,.73,7.82l-.05,.52c-.06,.71,.46,1.33,1.17,1.39,.71,.06,1.33-.46,1.39-1.17l.05-.51c.37-4.11,.75-8.36-1.82-10.16l-8.48-5.93c-4.04-2.83-9.33-2.09-13.17,1.84l-3.37,3.59s-.08,.09-.12,.14c-2.92,4.17-1.71,10.08,2.7,13.16Z"/><path class="cls-1" d="M124.96,539.75c-.62-.34-1.4-.11-1.74,.51-.34,.62-.11,1.42,.5,1.75,1.64,.9,5.23,1.86,7.11-.95,1.82-2.72,2.95-6.73,3-6.9,.15-.54-.07-1.09-.5-1.4-.11-.08-.25-.14-.39-.19-.68-.19-1.39,.21-1.58,.89-.01,.04-1.08,3.79-2.66,6.16-1.05,1.56-3.71,.14-3.74,.13Z"/></g><g><path class="cls-1" d="M265.21,516.92c-.65-1.06-2.01-.64-2.53-.48-1.07,.33-2.52,.12-3.98-.57-1.26-.6-3.05-4.06-4.49-6.84-1.96-3.8-3.82-7.39-6.05-8.44-2.03-.95-4.03-1.23-5.7-.86-.22-1.7-1.17-3.49-2.77-5.07-1.75-1.74-5.76-2.25-10-2.79-3.11-.4-6.98-.88-7.97-1.87-1.06-1.05-1.75-2.26-1.88-3.33-.08-.62-.26-2.08-1.5-2.27-.79-.12-1.43,.35-1.9,1.39-1.77,3.95-.03,9.35,4.43,13.76,.93,.92,1.94,1.75,2.99,2.49,4.44,3.1,9.76,4.53,13.88,3.54,.69-.17,1.12-.86,.95-1.55-.17-.69-.86-1.12-1.55-.95-4.29,1.03-10.23-1.17-14.46-5.36-2.51-2.48-4.03-5.33-4.3-7.82,.41,.66,.93,1.31,1.54,1.91,1.61,1.6,5.25,2.06,9.46,2.59,3.29,.42,7.38,.93,8.52,2.06,1.9,1.88,2.33,3.79,1.92,4.86,0,.02,0,.03-.01,.05-.02,.05-.03,.1-.04,.15,0,.04-.01,.07-.02,.11,0,.04,0,.08,0,.12,0,.04,0,.09,0,.13,0,.03,0,.07,.01,.1,0,.05,.02,.1,.03,.15,0,.03,.02,.06,.03,.08,.02,.05,.05,.11,.07,.16,.01,.02,.02,.04,.04,.06,.03,.06,.07,.11,.11,.16,0,0,.01,.02,.02,.03,0,0,.01,.01,.02,.02,.04,.05,.09,.09,.14,.13,.02,.02,.04,.03,.06,.04,.04,.03,.09,.06,.13,.08,.03,.02,.07,.03,.1,.05,.02,0,.03,.02,.05,.03,.02,0,.04,.01,.07,.02,.04,.01,.08,.02,.12,.03,.04,0,.09,.02,.13,.02,.04,0,.07,0,.11,0,.05,0,.09,0,.14,0,.04,0,.07,0,.11-.01,.04,0,.09-.02,.13-.03,.04-.01,.07-.02,.11-.04,.04-.02,.08-.03,.12-.05,.03-.02,.06-.04,.1-.06,.04-.03,.08-.06,.12-.09,.01-.01,.03-.02,.05-.03,.86-.75,2.81-.99,5.22,.14,1.45,.68,3.34,4.35,4.86,7.3,1.95,3.77,3.62,7.02,5.68,7.99,.78,.37,1.57,.63,2.33,.79-2.42,.6-5.62,.15-8.83-1.36-5.46-2.57-9.57-7.42-10-11.8-.07-.71-.7-1.22-1.4-1.15-.7,.07-1.22,.7-1.15,1.41,.42,4.23,3.57,8.76,8.05,11.89,1.07,.75,2.21,1.41,3.41,1.98,5.83,2.74,11.57,2.45,14.63-.75,.8-.83,.98-1.59,.56-2.28Z"/><path class="cls-1" d="M277.56,487.36l-10.21-7.14c-3.32-2.33-6.66-2.5-9.69-.53l-1.72-1.2c.82-3.53-.49-6.6-3.82-8.92l-10.21-7.14c-4.41-3.08-10.37-2.19-13.29,1.98-.03,.05-.07,.1-.09,.16l-2.25,4.46c-2.22,5.11-1.12,10.18,2.82,12.94l8.48,5.93c3.93,2.74,12.34-2.57,14.92-4.33l2.31,1.61c.58,.41,1.38,.26,1.79-.32,.41-.58,.26-1.38-.32-1.79l-3.05-2.13c-.46-.32-1.06-.31-1.51,.03-3.38,2.55-10.51,6.34-12.68,4.82l-8.48-5.93c-3.51-2.45-3.23-6.82-1.96-9.74l2.17-4.31c2.13-2.95,6.44-3.53,9.66-1.28l10.21,7.14c2.67,1.86,3.51,4.14,2.59,6.95-.18,.54,.02,1.13,.49,1.46l3.21,2.25c.47,.32,1.09,.31,1.53-.05,2.32-1.83,4.74-1.82,7.41,.05l10.21,7.14c3.22,2.25,4.16,6.5,2.11,9.51l-3.29,3.5c-2.43,2.48-6.41,3.91-9.84,1.51l-8.48-5.93c-1.35-.94-1.01-4.76-.73-7.82l.05-.52c.06-.71-.46-1.33-1.17-1.39-.71-.06-1.33,.46-1.39,1.17l-.05,.51c-.37,4.11-.75,8.36,1.82,10.16l8.48,5.93c4.04,2.83,9.33,2.09,13.17-1.84l3.37-3.59s.08-.09,.12-.14c2.92-4.17,1.71-10.08-2.7-13.16Z"/><path class="cls-1" d="M238.4,468.33c.62,.34,1.4,.11,1.74-.51,.34-.62,.11-1.42-.5-1.75-1.64-.9-5.23-1.86-7.11,.95-1.82,2.72-2.95,6.73-3,6.9-.15,.54,.07,1.09,.5,1.4,.11,.08,.25,.14,.39,.19,.68,.19,1.39-.21,1.58-.89,.01-.04,1.08-3.79,2.66-6.16,1.05-1.56,3.71-.14,3.74-.13Z"/></g><g><path class="cls-1" d="M593.01,124.36c.17,.28,.23,.63,.15,.97-.17,.69-.87,1.11-1.56,.94l-54.64-13.55c-4.51-1.12-4.84-5.61-4.38-7.83l4.92-19.23c.18-.69,.87-1.1,1.56-.92,.69,.17,1.1,.88,.93,1.56l-4.91,19.17c-.07,.35-.69,3.97,2.5,4.76l54.64,13.55c.35,.09,.62,.3,.79,.58Z"/><path class="cls-1" d="M600.73,100.41c.17,.28,.23,.63,.14,.97l-4.18,16.86c-.06,.3-.38,1.41-1.49,2.13-.97,.63-2.21,.76-3.69,.4l-53.71-13.32,.62-2.49,53.72,13.32c.73,.18,1.3,.16,1.65-.04,.31-.19,.4-.52,.4-.54l4.2-16.93c.17-.69,.87-1.11,1.56-.94,.34,.08,.62,.3,.79,.58Z"/><path class="cls-1" d="M595.85,99.2c.17,.28,.23,.63,.14,.97l-3.79,15.28c-.17,.69-.87,1.11-1.55,.94s-1.11-.87-.94-1.56l3.79-15.28c.17-.69,.87-1.11,1.56-.94,.35,.09,.62,.3,.79,.59Z"/><path class="cls-1" d="M590.11,97.78c.17,.28,.23,.63,.15,.97l-3.79,15.28c-.17,.69-.87,1.11-1.56,.94-.69-.17-1.11-.87-.94-1.56l3.79-15.28c.17-.69,.87-1.11,1.56-.94,.34,.08,.62,.3,.79,.58Z"/><path class="cls-1" d="M584.36,96.35c.17,.28,.23,.63,.15,.97l-3.79,15.28c-.17,.69-.87,1.11-1.56,.94s-1.11-.87-.94-1.56l3.79-15.28c.17-.69,.87-1.11,1.56-.94,.34,.08,.62,.3,.79,.58Z"/><path class="cls-1" d="M578.62,94.93c.17,.28,.23,.63,.15,.97l-3.79,15.28c-.17,.69-.87,1.11-1.56,.94-.69-.17-1.11-.87-.94-1.56l3.79-15.28c.17-.69,.86-1.11,1.56-.94,.35,.08,.62,.3,.79,.58Z"/><path class="cls-1" d="M572.88,93.5c.17,.28,.23,.63,.14,.97l-3.79,15.28c-.17,.69-.87,1.11-1.56,.94-.69-.17-1.11-.87-.94-1.56l3.79-15.28c.17-.69,.87-1.11,1.56-.94,.35,.09,.62,.3,.79,.58Z"/><path class="cls-1" d="M567.14,92.08c.17,.28,.23,.63,.15,.97l-3.79,15.28c-.17,.69-.87,1.11-1.56,.94-.69-.17-1.11-.87-.94-1.56l3.79-15.28c.17-.69,.87-1.11,1.56-.94,.34,.08,.62,.3,.79,.58Z"/><path class="cls-1" d="M561.39,90.66c.17,.28,.23,.63,.15,.97l-3.79,15.28c-.17,.69-.87,1.11-1.56,.94s-1.11-.87-.94-1.56l3.79-15.28c.17-.69,.87-1.11,1.56-.94,.35,.09,.62,.3,.79,.59Z"/><path class="cls-1" d="M555.65,89.23c.17,.28,.23,.63,.15,.97l-3.79,15.28c-.17,.69-.87,1.11-1.56,.94-.69-.17-1.11-.87-.94-1.56l3.79-15.28c.17-.69,.87-1.11,1.55-.94,.35,.09,.62,.3,.79,.58Z"/><path class="cls-1" d="M549.91,87.81c.17,.28,.23,.63,.15,.97l-3.79,15.28c-.17,.69-.87,1.11-1.56,.94-.69-.17-1.11-.87-.94-1.56l3.79-15.28c.17-.69,.87-1.11,1.56-.94,.34,.08,.62,.3,.79,.58Z"/><path class="cls-1" d="M544.17,86.38c.17,.28,.23,.63,.15,.97l-3.79,15.28c-.17,.69-.87,1.11-1.56,.94-.69-.17-1.11-.87-.94-1.56l3.79-15.28c.17-.69,.87-1.11,1.56-.94,.34,.08,.62,.3,.79,.58Z"/></g><g><path class="cls-1" d="M237.1,600.6c.17,.28,.23,.63,.15,.97-.17,.69-.87,1.11-1.56,.94l-54.64-13.55c-4.51-1.12-4.84-5.61-4.38-7.83l4.92-19.23c.18-.69,.87-1.1,1.56-.92,.69,.17,1.1,.88,.93,1.56l-4.91,19.17c-.07,.35-.69,3.97,2.5,4.76l54.64,13.55c.35,.09,.62,.3,.79,.58Z"/><path class="cls-1" d="M244.82,576.66c.17,.28,.23,.63,.14,.97l-4.18,16.86c-.06,.3-.38,1.41-1.49,2.13-.97,.63-2.21,.76-3.69,.4l-53.71-13.32,.62-2.49,53.72,13.32c.73,.18,1.3,.16,1.65-.04,.31-.19,.4-.52,.4-.54l4.2-16.93c.17-.69,.87-1.11,1.56-.94,.34,.08,.62,.3,.79,.58Z"/><path class="cls-1" d="M239.94,575.45c.17,.28,.23,.63,.14,.97l-3.79,15.28c-.17,.69-.87,1.11-1.55,.94s-1.11-.87-.94-1.56l3.79-15.28c.17-.69,.87-1.11,1.56-.94,.35,.09,.62,.3,.79,.59Z"/><path class="cls-1" d="M234.2,574.02c.17,.28,.23,.63,.15,.97l-3.79,15.28c-.17,.69-.87,1.11-1.56,.94-.69-.17-1.11-.87-.94-1.56l3.79-15.28c.17-.69,.87-1.11,1.56-.94,.34,.08,.62,.3,.79,.58Z"/><path class="cls-1" d="M228.45,572.6c.17,.28,.23,.63,.15,.97l-3.79,15.28c-.17,.69-.87,1.11-1.56,.94s-1.11-.87-.94-1.56l3.79-15.28c.17-.69,.87-1.11,1.56-.94,.34,.08,.62,.3,.79,.58Z"/><path class="cls-1" d="M222.71,571.17c.17,.28,.23,.63,.15,.97l-3.79,15.28c-.17,.69-.87,1.11-1.56,.94-.69-.17-1.11-.87-.94-1.56l3.79-15.28c.17-.69,.86-1.11,1.56-.94,.35,.08,.62,.3,.79,.58Z"/><path class="cls-1" d="M216.97,569.75c.17,.28,.23,.63,.14,.97l-3.79,15.28c-.17,.69-.87,1.11-1.56,.94-.69-.17-1.11-.87-.94-1.56l3.79-15.28c.17-.69,.87-1.11,1.56-.94,.35,.09,.62,.3,.79,.58Z"/><path class="cls-1" d="M211.23,568.32c.17,.28,.23,.63,.15,.97l-3.79,15.28c-.17,.69-.87,1.11-1.56,.94-.69-.17-1.11-.87-.94-1.56l3.79-15.28c.17-.69,.87-1.11,1.56-.94,.34,.08,.62,.3,.79,.58Z"/><path class="cls-1" d="M205.48,566.9c.17,.28,.23,.63,.15,.97l-3.79,15.28c-.17,.69-.87,1.11-1.56,.94s-1.11-.87-.94-1.56l3.79-15.28c.17-.69,.87-1.11,1.56-.94,.35,.09,.62,.3,.79,.59Z"/><path class="cls-1" d="M199.74,565.47c.17,.28,.23,.63,.15,.97l-3.79,15.28c-.17,.69-.87,1.11-1.56,.94-.69-.17-1.11-.87-.94-1.56l3.79-15.28c.17-.69,.87-1.11,1.55-.94,.35,.09,.62,.3,.79,.58Z"/><path class="cls-1" d="M194,564.05c.17,.28,.23,.63,.15,.97l-3.79,15.28c-.17,.69-.87,1.11-1.56,.94-.69-.17-1.11-.87-.94-1.56l3.79-15.28c.17-.69,.87-1.11,1.56-.94,.34,.08,.62,.3,.79,.58Z"/><path class="cls-1" d="M188.25,562.63c.17,.28,.23,.63,.15,.97l-3.79,15.28c-.17,.69-.87,1.11-1.56,.94-.69-.17-1.11-.87-.94-1.56l3.79-15.28c.17-.69,.87-1.11,1.56-.94,.34,.08,.62,.3,.79,.58Z"/></g></g><g><g><path class="cls-2" d="M466.03,603.99c.34-.21,.58-.54,.66-.93,.19-.96-.61-1.67-1.44-2.31-1.41-1.09-2.29-2.74-2.41-4.52-.04-.54,0-1.08,.1-1.6,.54-2.71,2.89-4.73,5.71-4.92,4.22-.28,7.73-3.37,8.55-7.51,.16-.8,.21-1.62,.16-2.44-.17-2.49-1.29-4.77-3.17-6.41-.13-.11-.27-.22-.4-.32,2.48-.69,4.66-2.39,5.88-4.87,.36-.74,.63-1.52,.79-2.32,.82-4.14-1.25-8.34-5.05-10.2-2.54-1.25-3.94-4.02-3.41-6.72,.1-.52,.28-1.04,.52-1.53,.73-1.49,2.01-2.61,3.58-3.15,1.08-.37,2.07-.78,2.26-1.73,.08-.4-.02-.81-.27-1.14-.44-.58-1.2-.75-2.3-.83-5.98-.44-11.6,2.28-14.98,7.05-11.94-1.84-35.98,13.78-37.01,14.45-.08,.05-.15,.11-.21,.17-.01,.01-.02,.03-.03,.04-.06,.07-.12,.14-.16,.22-.01,.03-.03,.05-.04,.08-.05,.1-.09,.2-.11,.31h0c-.02,.12-.02,.23-.02,.34,0,.03,0,.06,0,.09,.01,.09,.03,.18,.06,.27,0,.02,0,.03,.02,.05,.03,.08,.08,.17,.13,.24,.69,1.01,16.86,24.46,28.59,27.44,1.28,5.92,5.7,10.84,11.59,12.62,1.05,.32,1.78,.43,2.38,.07Zm-28.65-31.62c.41-.58,.28-1.38-.29-1.79l-9.51-6.83,15.55-3.62c.69-.16,1.12-.85,.96-1.54-.16-.69-.85-1.12-1.54-.96l-10.39,2.42c7.64-4.34,19.84-10.44,27.24-10.01-.63,1.3-1.09,2.66-1.37,4.07h0c-.56,2.83-.37,5.67,.45,8.29-2.18,1.12-3.58,3.29-4.24,6.63-.67,3.38-.18,5.95,1.47,7.83-1.83,2.14-3.15,4.75-3.72,7.65-.26,1.32-.35,2.67-.3,4.02-6.97-2.46-15.83-12.63-21.23-19.54l5.13,3.68c.58,.41,1.38,.28,1.79-.3Zm19.39-2.85c.48-2.42,1.34-3.94,2.67-4.74,1.27,2.59,3.21,4.85,5.67,6.52-2.85,.59-5.45,1.89-7.59,3.73-1.01-1.27-1.25-3.04-.76-5.51Zm15.94-26.33c-1.04,.81-1.89,1.85-2.48,3.06-.34,.69-.58,1.42-.73,2.16-.76,3.85,1.21,7.76,4.79,9.53,2.75,1.35,4.26,4.39,3.66,7.4-.12,.58-.31,1.15-.57,1.68-1.65,3.35-5.72,4.74-9.08,3.09-.12-.06-.24-.09-.37-.11-5.58-2.93-8.6-9.21-7.37-15.41,.24-1.22,.65-2.41,1.2-3.54,2.15-4.37,6.27-7.26,10.95-7.86Zm-18.43,45.54c-.08-1.25,0-2.51,.24-3.73,1.23-6.19,6.4-10.84,12.65-11.43,.13,.04,.27,.05,.42,.04,1.81-.12,3.55,.47,4.92,1.67,1.36,1.19,2.18,2.84,2.3,4.65,.04,.6,0,1.19-.11,1.77-.6,3-3.15,5.24-6.21,5.44-3.98,.26-7.3,3.14-8.06,6.98-.15,.74-.2,1.51-.15,2.27,.09,1.34,.48,2.62,1.13,3.77-4.06-2.35-6.81-6.63-7.13-11.43Z"/><path class="cls-2" d="M452.66,557.9c.69-.16,1.12-.85,.96-1.54-.16-.69-.85-1.12-1.54-.96l-3.71,.87c-.51,.12-.87,.52-.97,1-.03,.17-.03,.36,0,.54,.16,.69,.85,1.12,1.54,.96l3.71-.86Z"/></g><g><path class="cls-2" d="M555.55,34.59c-3.58,2.8-5.63,6.24-6.05,10.25-.79,7.51,4.32,14.78,6.58,17.58l-1.55,.92c-.61,.36-.81,1.15-.45,1.76l4.16,6.99c.36,.61,1.15,.81,1.76,.45l6.09-3.63c1.41-.84,2.26-2.24,2.46-3.75l3.22-1.92c5.27,6.53,14.69,8.38,22.1,3.97l25.2-15c.61-.36,.81-1.15,.45-1.76l-17.21-28.9c-.36-.61-1.15-.81-1.76-.45l-25.2,15c-6.04,3.6-9.25,10.41-8.18,17.35,.11,.7,.76,1.18,1.46,1.07,.7-.11,1.18-.76,1.07-1.46-.91-5.91,1.82-11.7,6.96-14.75l24.09-14.34,15.89,26.69-24.09,14.34c-6.91,4.11-15.88,1.84-20-5.07l-.97-1.63c-.18-.3-.35-.61-.5-.92-.28-.58-.96-.84-1.56-.64-.05,.02-.1,.03-.14,.05,0,0-.02,0-.03,0h-.01s-.07,.04-.11,.06l-4.15,2.47c-.19-.07-.39-.14-.59-.19-1.33-.34-2.71-.14-3.88,.56l-2.31,1.38c-1.87-2.28-6.97-9.2-6.26-15.98,.34-3.21,1.98-6,4.87-8.33,2.83,3.35,7.76,4.28,11.65,1.96,4.33-2.58,5.75-8.2,3.18-12.53-2.58-4.33-8.19-5.75-12.52-3.18-4.01,2.39-5.53,7.39-3.67,11.56Zm4.24,35.08l-2.85-4.78,4.99-2.97c.59-.35,1.27-.45,1.93-.28,.66,.17,1.22,.58,1.57,1.17l.23,.39c.72,1.21,.32,2.78-.89,3.5l-4.99,2.97Zm10.5-8.54l-2.03,1.21-.84-1.4,2.03-1.21,.83,1.4Zm-.75-33.61c1.85,3.11,.83,7.15-2.28,9-3.11,1.85-7.15,.83-9-2.28-1.85-3.11-.83-7.15,2.28-9,3.11-1.85,7.15-.83,9,2.28Z"/><path class="cls-2" d="M597.6,52.81l-8.25-13.86c-.36-.61-1.15-.81-1.76-.45l-7.96,4.74c-.61,.36-.81,1.15-.45,1.76l8.25,13.86c.36,.61,1.15,.81,1.76,.45l7.96-4.74c.61-.36,.81-1.15,.45-1.76Zm-8.62,3.64l-6.94-11.65,5.75-3.42,6.94,11.65-5.75,3.43Z"/><path class="cls-2" d="M591.49,60c-5.77,3.43-13.13,1.74-16.41-3.77-.36-.61-1.15-.81-1.76-.45-.61,.36-.81,1.15-.45,1.76,4.01,6.73,12.95,8.83,19.93,4.67l10.28-6.12c.61-.36,.81-1.15,.45-1.76-.36-.61-1.15-.81-1.76-.45l-10.28,6.12Z"/></g><g><path class="cls-2" d="M582.85,466.65c1.33,.09,2.58,.17,3.42,.32,.84,.14,2.06,.47,3.34,.82,3.84,1.05,8.2,2.24,10.42,.81,.73-.47,1.21-1.19,1.35-2.07,1.97-11.7-1.92-24.34-2.42-25.88,.83-.97,1.41-2.22,1.64-3.6,.23-1.39,.11-2.75-.34-3.93,1.15-1.53,8.78-12.06,10.72-23.6,.15-.89-.06-1.72-.6-2.4-1.64-2.07-6.14-2.37-10.11-2.64-1.33-.09-2.58-.17-3.43-.32-.84-.14-2.06-.47-3.34-.82-3.84-1.05-8.19-2.24-10.42-.81-.05,.03-.09,.06-.13,.09-.66,.47-1.08,1.15-1.22,1.98-1.69,10.03,1.95,24.09,2.4,25.8-.81,.96-1.38,2.19-1.62,3.61-.3,1.75-.03,3.45,.74,4.78,.7,1.2,1.79,2.07,3.12,2.5l-3.44,8.09c-.28,.65,.03,1.41,.68,1.69,.65,.28,1.41-.03,1.69-.68l3.65-8.58h0l-2.06,12.21c-.12,.7,.35,1.36,1.05,1.48,.7,.12,1.36-.35,1.48-1.05l1.69-10.02,1.27,15.83c.02,.24,.1,.46,.24,.64,.25,.36,.68,.57,1.15,.54,.71-.06,1.23-.68,1.18-1.38l-1.4-17.47h.06c1.11,.2,2.17,.08,3.14-.32,.94,3.22,3.73,14.05,2.08,23.84-.03,.19-.09,.27-.2,.33-1.26,.81-5.7-.4-8.36-1.13-1.35-.37-2.62-.72-3.59-.88-.97-.16-2.29-.25-3.68-.35-2.75-.19-7.34-.5-8.27-1.67-.08-.1-.11-.19-.08-.38,1.14-6.8,5.58-14.88,8.12-19.1,.37-.61,.17-1.4-.44-1.76-.45-.27-1-.23-1.41,.05-.14,.1-.26,.23-.36,.38-2.64,4.37-7.23,12.78-8.45,20-.15,.88,.06,1.72,.6,2.4,1.63,2.07,6.14,2.37,10.11,2.64Zm1.43-61.63c.03-.19,.09-.27,.2-.33,1.26-.81,5.7,.41,8.36,1.13,1.35,.37,2.62,.71,3.59,.88,.97,.17,2.29,.25,3.68,.35,2.74,.18,7.34,.5,8.26,1.67,.08,.1,.12,.19,.08,.38-1.64,9.71-7.76,18.98-9.74,21.78-.79-.69-1.77-1.16-2.89-1.35l-.12-.02,7.14-16.25c.19-.43,.12-.91-.13-1.26-.13-.18-.31-.33-.53-.43-.43-.19-.91-.12-1.26,.13-.18,.13-.34,.31-.43,.53l-6.39,14.54,1.69-10.01c.12-.7-.35-1.36-1.05-1.48-.35-.06-.69,.03-.96,.22-.27,.19-.46,.48-.52,.83l-2.09,12.42h0l-1.29-10.05c-.09-.7-.73-1.2-1.44-1.11-.22,.03-.41,.11-.58,.23-.37,.27-.59,.72-.53,1.21l1.2,9.36c-.75-.01-1.47,.12-2.15,.39-.89-3.62-3.51-15.41-2.11-23.75Zm8.12,34.76h0l-4.03-.68h0l-.62-.11c-1.01-.17-1.77-.67-2.24-1.49-.48-.82-.63-1.91-.44-3.07,.39-2.33,1.99-3.78,4.02-3.44l6.32,1.06c1.01,.17,1.76,.67,2.24,1.49,.46,.8,.61,1.85,.44,2.97l-3.75-.62c-.35-.06-.69,.03-.95,.22-.27,.19-.47,.49-.52,.84-.11,.7,.36,1.36,1.06,1.47l3.11,.51c-.19,.23-.4,.43-.63,.59-.68,.48-1.47,.65-2.34,.51l-1.66-.28Z"/><path class="cls-2" d="M586.79,462.48c.7,.12,1.36-.35,1.48-1.05l.64-3.78c.12-.7-.35-1.36-1.05-1.48-.35-.06-.69,.03-.96,.22s-.46,.48-.52,.83l-.64,3.78c-.12,.7,.35,1.36,1.05,1.48Z"/><path class="cls-2" d="M588.35,416.71c.71-.09,1.21-.73,1.12-1.43l-.54-4.4c-.09-.7-.73-1.2-1.43-1.12-.22,.02-.42,.11-.59,.23-.37,.27-.59,.72-.53,1.2l.54,4.4c.09,.7,.73,1.2,1.43,1.12Z"/></g><g><path class="cls-2" d="M305.21,427.28c1.14-.69,2.21-1.34,2.99-1.71,.77-.37,1.95-.79,3.21-1.25,3.75-1.35,7.99-2.88,9-5.31,.33-.81,.31-1.66-.08-2.47-5.11-10.71-15.55-18.82-16.84-19.8,.12-1.27-.12-2.62-.72-3.89-.61-1.28-1.49-2.32-2.54-3.02,.06-1.91,.26-14.92-4.77-25.48-.39-.81-1.03-1.37-1.87-1.62-2.53-.76-6.39,1.58-9.79,3.64-1.14,.69-2.22,1.34-2.99,1.71-.77,.37-1.96,.79-3.21,1.24-3.75,1.35-7.99,2.88-9,5.31-.02,.05-.04,.1-.06,.15-.27,.76-.22,1.56,.14,2.32,4.38,9.18,15.43,18.61,16.79,19.74-.12,1.25,.13,2.59,.75,3.88,.76,1.6,1.96,2.84,3.36,3.49,1.26,.59,2.65,.66,3.99,.26l1.83,8.6c.15,.7,.83,1.14,1.52,.99,.7-.15,1.14-.83,.99-1.52l-1.94-9.12h0l5.33,11.17c.31,.64,1.07,.91,1.71,.61,.64-.31,.91-1.07,.61-1.71l-4.37-9.17,10.13,12.23c.15,.19,.35,.32,.56,.39,.41,.15,.89,.08,1.25-.22,.55-.45,.62-1.26,.17-1.81l-11.18-13.5,.06-.03c1.01-.48,1.82-1.19,2.38-2.08,2.61,2.1,11.13,9.36,15.4,18.32,.08,.18,.08,.27,.02,.39-.57,1.39-4.9,2.94-7.49,3.88-1.32,.47-2.56,.92-3.44,1.34-.89,.42-2.02,1.11-3.21,1.83-2.35,1.43-6.29,3.81-7.73,3.38-.12-.04-.2-.09-.29-.27-2.97-6.22-3.98-15.39-4.32-20.3-.05-.71-.66-1.24-1.37-1.19-.53,.04-.96,.39-1.12,.85-.06,.16-.08,.34-.07,.52,.35,5.09,1.42,14.62,4.57,21.22,.39,.81,1.03,1.37,1.87,1.62,2.53,.76,6.39-1.58,9.8-3.64Zm-34.22-51.27c-.08-.17-.08-.27-.03-.39,.57-1.38,4.9-2.94,7.49-3.87,1.31-.47,2.56-.92,3.44-1.35,.89-.42,2.02-1.1,3.21-1.83,2.35-1.42,6.29-3.81,7.73-3.38,.12,.04,.2,.09,.29,.26,4.24,8.89,4.55,19.99,4.54,23.42-1.04-.11-2.12,.07-3.14,.56l-.11,.05-3.49-17.4c-.09-.46-.42-.81-.83-.96-.21-.07-.45-.1-.68-.05-.46,.09-.81,.42-.96,.83-.08,.21-.1,.45-.05,.68l3.12,15.57-4.37-9.16c-.31-.64-1.07-.91-1.71-.61-.32,.15-.55,.42-.66,.73-.11,.31-.1,.66,.05,.98l5.42,11.37h0l-6.82-7.49c-.48-.52-1.29-.56-1.82-.09-.16,.15-.28,.33-.34,.52-.15,.43-.07,.93,.26,1.29l6.36,6.98c-.62,.42-1.14,.95-1.54,1.55-2.81-2.45-11.73-10.6-15.36-18.23Zm26.61,23.8h0l-3.69,1.76h0l-.57,.27c-.93,.44-1.83,.46-2.69,.06-.86-.4-1.61-1.2-2.12-2.26-1.01-2.13-.54-4.24,1.32-5.12l5.79-2.76c.92-.44,1.83-.46,2.69-.06,.84,.39,1.56,1.16,2.07,2.18l-3.42,1.65c-.32,.15-.54,.42-.65,.73-.11,.31-.1,.67,.05,.99,.31,.64,1.08,.91,1.71,.6l2.84-1.37c-.03,.3-.08,.58-.18,.85-.28,.79-.83,1.38-1.63,1.76l-1.52,.73Z"/><path class="cls-2" d="M306.05,421.61c.64-.3,.91-1.07,.61-1.71l-1.65-3.46c-.31-.64-1.07-.91-1.71-.61-.32,.15-.55,.42-.66,.73s-.1,.66,.05,.98l1.65,3.46c.31,.64,1.07,.91,1.71,.61Z"/><path class="cls-2" d="M281.03,383.24c.53-.48,.57-1.29,.09-1.81l-2.97-3.29c-.48-.53-1.29-.57-1.81-.09-.17,.15-.28,.33-.35,.52-.15,.43-.07,.93,.26,1.29l2.97,3.29c.48,.53,1.29,.57,1.81,.09Z"/></g><g><path class="cls-2" d="M494,525.7c1.14-.69,2.21-1.34,2.99-1.71,.77-.37,1.95-.79,3.21-1.25,3.75-1.35,7.99-2.88,9-5.31,.33-.81,.31-1.66-.08-2.47-5.11-10.71-15.55-18.82-16.84-19.8,.12-1.27-.12-2.62-.72-3.89-.61-1.28-1.49-2.32-2.54-3.02,.06-1.91,.26-14.92-4.77-25.48-.39-.81-1.03-1.37-1.87-1.62-2.53-.76-6.39,1.58-9.79,3.64-1.14,.69-2.22,1.34-2.99,1.71-.77,.37-1.96,.79-3.21,1.24-3.75,1.35-7.99,2.88-9,5.31-.02,.05-.04,.1-.06,.15-.27,.76-.22,1.56,.14,2.32,4.38,9.18,15.43,18.61,16.79,19.74-.12,1.25,.13,2.59,.75,3.88,.76,1.6,1.96,2.84,3.36,3.49,1.26,.59,2.65,.66,3.99,.26l1.83,8.6c.15,.7,.83,1.14,1.52,.99,.7-.15,1.14-.83,.99-1.52l-1.94-9.12h0l5.33,11.17c.31,.64,1.07,.91,1.71,.61,.64-.31,.91-1.07,.61-1.71l-4.37-9.17,10.13,12.23c.15,.19,.35,.32,.56,.39,.41,.15,.89,.08,1.25-.22,.55-.45,.62-1.26,.17-1.81l-11.18-13.5,.06-.03c1.01-.48,1.82-1.19,2.38-2.08,2.61,2.1,11.13,9.36,15.4,18.32,.08,.18,.08,.27,.02,.39-.57,1.39-4.9,2.94-7.49,3.88-1.32,.47-2.56,.92-3.44,1.34-.89,.42-2.02,1.11-3.21,1.83-2.35,1.43-6.29,3.81-7.73,3.38-.12-.04-.2-.09-.29-.27-2.97-6.22-3.98-15.39-4.32-20.3-.05-.71-.66-1.24-1.37-1.19-.53,.04-.96,.39-1.12,.85-.06,.16-.08,.34-.07,.52,.35,5.09,1.42,14.62,4.57,21.22,.39,.81,1.03,1.37,1.87,1.62,2.53,.76,6.39-1.58,9.8-3.64Zm-34.22-51.27c-.08-.17-.08-.27-.03-.39,.57-1.38,4.9-2.94,7.49-3.87,1.31-.47,2.56-.92,3.44-1.35,.89-.42,2.02-1.1,3.21-1.83,2.35-1.42,6.29-3.81,7.73-3.38,.12,.04,.2,.09,.29,.26,4.24,8.89,4.55,19.99,4.54,23.42-1.04-.11-2.12,.07-3.14,.56l-.11,.05-3.49-17.4c-.09-.46-.42-.81-.83-.96-.21-.07-.45-.1-.68-.05-.46,.09-.81,.42-.96,.83-.08,.21-.1,.45-.05,.68l3.12,15.57-4.37-9.16c-.31-.64-1.07-.91-1.71-.61-.32,.15-.55,.42-.66,.73-.11,.31-.1,.66,.05,.98l5.42,11.37h0l-6.82-7.49c-.48-.52-1.29-.56-1.82-.09-.16,.15-.28,.33-.34,.52-.15,.43-.07,.93,.26,1.29l6.36,6.98c-.62,.42-1.14,.95-1.54,1.55-2.81-2.45-11.73-10.6-15.36-18.23Zm26.61,23.8h0l-3.69,1.76h0l-.57,.27c-.93,.44-1.83,.46-2.69,.06-.86-.4-1.61-1.2-2.12-2.26-1.01-2.13-.54-4.24,1.32-5.12l5.79-2.76c.92-.44,1.83-.46,2.69-.06,.84,.39,1.56,1.16,2.07,2.18l-3.42,1.65c-.32,.15-.54,.42-.65,.73-.11,.31-.1,.67,.05,.99,.31,.64,1.08,.91,1.71,.6l2.84-1.37c-.03,.3-.08,.58-.18,.85-.28,.79-.83,1.38-1.63,1.76l-1.52,.73Z"/><path class="cls-2" d="M494.83,520.02c.64-.3,.91-1.07,.61-1.71l-1.65-3.46c-.31-.64-1.07-.91-1.71-.61-.32,.15-.55,.42-.66,.73s-.1,.66,.05,.98l1.65,3.46c.31,.64,1.07,.91,1.71,.61Z"/><path class="cls-2" d="M469.82,481.66c.53-.48,.57-1.29,.09-1.81l-2.97-3.29c-.48-.53-1.29-.57-1.81-.09-.17,.15-.28,.33-.35,.52-.15,.43-.07,.93,.26,1.29l2.97,3.29c.48,.53,1.29,.57,1.81,.09Z"/></g><g><path class="cls-2" d="M136.82,620.25c1.32,.18,2.56,.35,3.4,.55,.83,.2,2.02,.61,3.28,1.05,3.76,1.3,8.03,2.78,10.34,1.51,.76-.42,1.28-1.1,1.49-1.98,2.75-11.54-.28-24.41-.67-25.99,.89-.91,1.56-2.12,1.88-3.48,.33-1.38,.29-2.74-.08-3.94,1.25-1.45,9.57-11.44,12.29-22.83,.21-.87,.06-1.72-.44-2.44-1.49-2.18-5.96-2.78-9.91-3.32-1.32-.18-2.57-.35-3.4-.55-.83-.2-2.02-.61-3.28-1.05-3.76-1.31-8.02-2.78-10.34-1.51-.05,.03-.09,.05-.14,.08-.69,.42-1.16,1.08-1.35,1.9-2.36,9.9,.32,24.17,.66,25.91-.88,.9-1.52,2.1-1.86,3.49-.41,1.72-.26,3.44,.42,4.82,.61,1.25,1.64,2.18,2.94,2.71l-3.98,7.84c-.32,.63-.07,1.41,.56,1.73,.63,.32,1.41,.07,1.73-.56l4.22-8.31h0l-2.87,12.04c-.16,.69,.26,1.38,.95,1.55,.69,.17,1.39-.26,1.55-.95l2.36-9.88,.2,15.88c0,.24,.07,.47,.19,.66,.23,.37,.64,.62,1.11,.61,.71,0,1.28-.59,1.27-1.3l-.22-17.52,.06,.02c1.09,.26,2.16,.21,3.16-.12,.72,3.27,2.78,14.27,.47,23.93-.04,.19-.11,.26-.23,.32-1.31,.72-5.66-.79-8.26-1.69-1.32-.46-2.57-.89-3.52-1.12-.96-.23-2.26-.41-3.65-.59-2.73-.37-7.29-.99-8.13-2.22-.07-.11-.1-.2-.06-.39,1.6-6.7,6.56-14.47,9.38-18.51,.41-.58,.26-1.38-.32-1.79-.43-.3-.99-.3-1.41-.04-.15,.09-.28,.21-.38,.36-2.92,4.18-8.08,12.27-9.78,19.38-.21,.87-.06,1.72,.44,2.44,1.49,2.18,5.96,2.78,9.91,3.32Zm5.57-61.39c.04-.19,.11-.26,.23-.32,1.31-.72,5.66,.79,8.26,1.69,1.32,.46,2.57,.89,3.52,1.11,.96,.23,2.26,.41,3.65,.6,2.73,.37,7.29,.99,8.13,2.22,.07,.1,.1,.2,.06,.39-2.29,9.58-9.01,18.41-11.18,21.08-.74-.74-1.69-1.27-2.79-1.54l-.12-.03,8.21-15.73c.22-.42,.18-.9-.04-1.27-.12-.19-.29-.35-.5-.46-.41-.22-.9-.18-1.27,.04-.19,.12-.36,.29-.46,.5l-7.35,14.07,2.36-9.87c.17-.69-.26-1.38-.95-1.55-.35-.08-.69-.02-.97,.16-.28,.17-.49,.45-.58,.8l-2.92,12.25h0l-.61-10.11c-.04-.71-.65-1.25-1.36-1.21-.22,.01-.42,.08-.6,.19-.39,.24-.64,.68-.61,1.17l.56,9.42c-.75-.06-1.48,.02-2.17,.24-.65-3.68-2.47-15.61-.5-23.84Zm5.76,35.23h0l-3.98-.95h0l-.61-.15c-1-.24-1.72-.79-2.13-1.64-.42-.85-.5-1.95-.23-3.09,.55-2.3,2.24-3.63,4.24-3.16l6.23,1.49c1,.24,1.72,.79,2.13,1.64,.41,.83,.49,1.89,.24,3l-3.7-.87c-.35-.08-.69-.01-.97,.16-.28,.17-.5,.45-.58,.8-.16,.69,.27,1.38,.96,1.54l3.07,.72c-.21,.21-.43,.4-.67,.55-.71,.44-1.51,.55-2.37,.35l-1.64-.39Z"/><path class="cls-2" d="M145.66,570.8c.71-.04,1.25-.65,1.21-1.35l-.25-4.42c-.04-.71-.65-1.25-1.35-1.21-.22,0-.43,.08-.6,.19-.39,.24-.64,.68-.61,1.17l.25,4.42c.04,.71,.65,1.25,1.35,1.21Z"/></g><g><path class="cls-2" d="M207.5,545.52l1.68-8.69,12.34,2.39c3.74,.72,7.38-1.73,8.1-5.47,.72-3.74-1.73-7.38-5.47-8.1l-12.34-2.39,1.68-8.7c.64-3.31-1.53-6.53-4.85-7.17h-.04l-35.53-6.88c-.7-.13-1.37,.32-1.5,1.02-.13,.7,.32,1.37,1.02,1.51l29.56,5.72-5.09,26.31c-.14,.7,.32,1.37,1.02,1.5,.7,.14,1.37-.32,1.51-1.02l5.09-26.3,3.39,.66,.07,.02s.04,0,.07,0c1.9,.39,3.14,2.24,2.77,4.15l-1.93,9.95c-.13,.7,.32,1.37,1.02,1.51l13.6,2.63c2.35,.45,3.9,2.74,3.44,5.09-.45,2.35-2.74,3.89-5.09,3.44l-13.6-2.63c-.7-.13-1.37,.32-1.51,1.02l-1.93,9.95c-.37,1.91-2.22,3.17-4.13,2.82-.02,0-.04-.01-.06-.01-.02,0-.03,0-.05,0l-4.66-.99-30.82-5.96c-.69-.13-1.37,.32-1.51,1.02-.13,.7,.32,1.37,1.02,1.51l30.8,5.96,4.71,1h.02s.01,0,.02,0c3.31,.64,6.53-1.53,7.17-4.85Z"/><path class="cls-2" d="M223.24,533.37c.25,.66,.99,1,1.66,.75,.66-.25,1-1,.74-1.66-.88-2.32-4.34-3-4.99-3.11l-13.83-2.68c-.62-.12-.79-.42-.76-.59l2.29-11.84c.13-.7-.32-1.37-1.02-1.51-.7-.13-1.37,.32-1.5,1.02l-2.29,11.84c-.28,1.43,.61,3.17,2.79,3.6l13.86,2.68c1.11,.19,2.79,.81,3.05,1.49Z"/><path class="cls-2" d="M198.91,513.4c.13-.7-.32-1.37-1.02-1.5l-25.82-5c-.7-.13-1.37,.32-1.5,1.02-.13,.7,.32,1.37,1.02,1.51l25.82,5c.7,.13,1.37-.32,1.51-1.02Z"/><path class="cls-2" d="M197.54,520.47c.13-.7-.32-1.37-1.02-1.51l-25.82-5c-.7-.14-1.37,.32-1.5,1.02-.14,.7,.32,1.37,1.02,1.5l25.82,5c.7,.13,1.37-.32,1.5-1.02Z"/><path class="cls-2" d="M196.17,527.54c.14-.7-.32-1.37-1.02-1.51l-25.82-5c-.7-.14-1.37,.32-1.51,1.02-.13,.7,.32,1.37,1.02,1.51l25.82,5c.7,.13,1.37-.32,1.5-1.02Z"/><path class="cls-2" d="M194.81,534.61c.13-.7-.32-1.37-1.02-1.5l-25.82-5c-.7-.13-1.37,.32-1.5,1.02-.14,.7,.32,1.37,1.02,1.5l25.82,5c.7,.13,1.37-.32,1.5-1.02Z"/><path class="cls-2" d="M193.61,540.79c.13-.7-.32-1.37-1.02-1.51l-25.82-4.99c-.7-.14-1.37,.32-1.51,1.02-.14,.7,.32,1.37,1.02,1.51l25.82,5c.7,.13,1.37-.32,1.51-1.02Z"/><path class="cls-2" d="M198.02,543.62l.76-3.93c.14-.69-.32-1.37-1.02-1.51-.69-.13-1.37,.32-1.5,1.02l-.76,3.93c-.13,.7,.32,1.37,1.02,1.51,.7,.14,1.37-.32,1.51-1.02Z"/></g><g><path class="cls-2" d="M276.24,574.55c.66,.3,1.32,.58,1.98,.84,.66,.26,1.41-.08,1.67-.73,.26-.66-.07-1.41-.73-1.67-.23-.09-.45-.19-.68-.29l.82-1.81c12.4,5.06,25.63,1.75,29.9-7.68,4.28-9.43-1.94-21.57-13.91-27.56l.82-1.81c.28,.14,.56,.26,.83,.41,.63,.33,1.41,.08,1.74-.54,.31-.64,.08-1.4-.55-1.73-.69-.36-1.4-.71-2.11-1.03-14.93-6.77-30.8-3.15-36.83,8.17l-2.4-1.09,1.54-3.39c.29-.65,0-1.41-.64-1.7-.65-.29-1.41,0-1.7,.64l-3.93,8.66-1.43,.61,6.02-13.28c.29-.65,0-1.41-.64-1.7-.65-.29-1.41,0-1.7,.64l-7.38,16.27c-.22,.48-.12,1.05,.25,1.43,.37,.38,.93,.49,1.42,.29l4.92-2.08c.3-.13,.54-.36,.67-.65l1.54-3.39,2.4,1.09c-4.55,12,3.18,26.32,18.11,33.1Zm30.63-12.39c-3.83,8.44-16.25,11.08-27.68,5.9-11.44-5.19-17.63-16.27-13.8-24.71,3.83-8.44,16.25-11.08,27.68-5.9,11.44,5.19,17.63,16.27,13.8,24.72Zm-13.09-29.38l-.83,1.82c-12.4-5.06-25.63-1.75-29.9,7.68-4.28,9.43,1.94,21.57,13.92,27.56l-.82,1.82c-13.34-6.6-19.99-19.72-15.18-30.33,4.81-10.61,19.06-14.24,32.82-8.55Z"/><path class="cls-2" d="M273.38,542.21c1.27-.74,2.73-1.29,4.32-1.63,.69-.15,1.14-.83,.99-1.52-.15-.69-.83-1.14-1.52-.99-1.86,.39-3.57,1.04-5.08,1.93-.24,.14-.42,.34-.52,.58-.17,.37-.16,.81,.06,1.18,.36,.61,1.14,.82,1.76,.46Z"/><path class="cls-2" d="M281.97,540.19c2.95,.07,6.03,.79,8.9,2.1,6.27,2.85,10.85,8.18,11.67,13.59,.1,.7,.76,1.18,1.46,1.08,.7-.11,1.18-.76,1.08-1.46-.96-6.34-6-12.3-13.15-15.55-3.18-1.44-6.61-2.25-9.91-2.32-.53-.01-.99,.3-1.2,.75-.07,.15-.11,.32-.11,.5-.02,.71,.55,1.3,1.26,1.31Z"/></g><g><path class="cls-2" d="M436.44,422.75c.57-.45,1.12-.91,1.65-1.39,.53-.47,.56-1.29,.11-1.81-.47-.53-1.28-.58-1.81-.11-.18,.16-.38,.32-.56,.47l-1.24-1.56c10.14-8.74,13.21-22.03,6.76-30.13-6.45-8.1-20.09-8.08-30.87-.14l-1.24-1.55c.25-.18,.49-.38,.74-.55,.58-.41,.71-1.21,.3-1.79-.43-.56-1.21-.71-1.79-.3-.64,.45-1.27,.93-1.88,1.41-12.82,10.22-16.81,26-9.47,36.52l-2.06,1.64-2.32-2.91c-.44-.55-1.25-.65-1.8-.2-.55,.44-.65,1.25-.2,1.8l5.93,7.44-.11,1.55-9.09-11.4c-.44-.55-1.25-.64-1.8-.2-.56,.44-.65,1.25-.21,1.81l11.13,13.97c.33,.41,.88,.58,1.38,.43,.51-.16,.86-.61,.9-1.13l.39-5.33c.02-.32-.08-.64-.28-.89l-2.32-2.91,2.06-1.64c8.62,9.51,24.89,9.14,37.71-1.08Zm2.89-32.92c5.77,7.25,2.48,19.51-7.34,27.34-9.82,7.83-22.51,8.3-28.29,1.05-5.78-7.25-2.48-19.51,7.34-27.34,9.82-7.83,22.51-8.3,28.29-1.05Zm-32.12-1.7l1.24,1.56c-10.14,8.74-13.21,22.03-6.75,30.13,6.45,8.1,20.09,8.08,30.87,.14l1.25,1.56c-11.95,8.88-26.65,8.84-33.91-.27-7.26-9.11-4.02-23.45,7.31-33.12Z"/><path class="cls-2" d="M406.33,410.59c-.08-1.47,.09-3.02,.51-4.59,.18-.68-.22-1.39-.91-1.57-.68-.18-1.39,.22-1.58,.91-.5,1.84-.7,3.65-.6,5.4,.02,.28,.12,.53,.28,.73,.25,.32,.65,.51,1.08,.48,.71-.04,1.25-.65,1.21-1.35Z"/><path class="cls-2" d="M408.45,402.02c1.4-2.6,3.45-5.01,5.92-6.98,5.39-4.29,12.22-5.95,17.41-4.22,.67,.23,1.4-.14,1.63-.81,.22-.67-.14-1.4-.81-1.63-6.08-2.03-13.68-.25-19.83,4.64-2.73,2.18-5.01,4.86-6.57,7.77-.25,.47-.19,1.02,.13,1.41,.1,.13,.24,.24,.39,.33,.62,.34,1.41,.1,1.74-.52Z"/></g><path class="cls-2" d="M587.51,2.05c.57-.45,1.12-.91,1.65-1.39,.53-.47,.56-1.29,.11-1.81-.47-.53-1.28-.58-1.81-.11-.18,.16-.38,.32-.56,.47l-1.24-1.56c10.14-8.74,13.21-22.03,6.76-30.13-6.45-8.1-20.09-8.08-30.87-.14l-1.24-1.55c.25-.18,.49-.38,.74-.55,.58-.41,.71-1.21,.3-1.79-.43-.56-1.21-.71-1.79-.3-.64,.45-1.27,.93-1.88,1.41-12.82,10.22-16.81,26-9.47,36.52l-2.06,1.64-2.32-2.91c-.44-.55-1.25-.65-1.8-.2-.55,.44-.65,1.25-.2,1.8l5.93,7.44-.11,1.55-9.09-11.4c-.44-.55-1.25-.64-1.8-.2-.56,.44-.65,1.25-.21,1.81l11.13,13.97c.33,.41,.88,.58,1.38,.43,.51-.16,.86-.61,.9-1.13l.39-5.33c.02-.32-.08-.64-.28-.89l-2.32-2.91,2.06-1.64c8.62,9.51,24.89,9.14,37.71-1.08Zm2.89-32.92c5.77,7.25,2.48,19.51-7.34,27.34-9.82,7.83-22.51,8.3-28.29,1.05-5.78-7.25-2.48-19.51,7.34-27.34,9.82-7.83,22.51-8.3,28.29-1.05Zm-32.12-1.7l1.24,1.56c-10.14,8.74-13.21,22.03-6.75,30.13,6.45,8.1,20.09,8.08,30.87,.14l1.25,1.56c-11.95,8.88-26.65,8.84-33.91-.27-7.26-9.11-4.02-23.45,7.31-33.12Z"/><g><path class="cls-2" d="M58.09,532.54c.02-.33-.08-.66-.31-.93l-16.9-19.59c-.46-.54-1.27-.6-1.81-.13-.54,.46-.6,1.27-.14,1.81l16.9,19.59c.47,.54,1.27,.6,1.81,.13,.27-.23,.42-.55,.44-.88Z"/><path class="cls-2" d="M58.07,535.76l2.39,2.77c.46,.54,1.28,.6,1.81,.13,.27-.23,.42-.55,.44-.88,.02-.33-.08-.66-.31-.93l-2.39-2.77c-.47-.54-1.28-.6-1.81-.13-.54,.46-.6,1.27-.13,1.81Z"/><path class="cls-2" d="M44.8,496.33c-.54,.46-.6,1.27-.13,1.81,.86,1-.31,3.83-1.54,5.8-2.51-.94-5.25-.66-7.2,1.03-1.74,1.5-2.55,3.89-2.19,6.38l-23.04,19.87c-.44,.34-4.33,3.44-4.68,6.91-.13,1.29,.26,2.51,1.12,3.51l1.63,1.89c.46,.54,1.27,.6,1.81,.14l24.03-20.73c.26-.22,.42-.54,.44-.88l.35-4.68c.05-.71-.48-1.32-1.19-1.38-.71-.05-1.32,.48-1.38,1.19l-.31,4.15-22.66,19.55-.79-.92c-.41-.47-.58-.98-.51-1.57,.2-2.01,2.74-4.39,3.74-5.18l23.65-20.4c.36-.31,.52-.8,.41-1.28-.45-1.85,.01-3.57,1.22-4.62,1.95-1.68,5.24-1.08,7.34,1.34l21.89,25.38c1.04,1.2,1.62,2.67,1.64,4.11,.02,1.37-.47,2.55-1.39,3.34-1.95,1.68-5.24,1.08-7.34-1.34l-18.74-21.72c-.46-.54-1.28-.6-1.81-.13-.54,.46-.6,1.28-.14,1.81l18.74,21.72c3.02,3.5,7.93,4.22,10.96,1.61,1.34-1.15,2.12-2.78,2.26-4.63,.02-.23,.02-.46,.02-.69-.03-2.05-.83-4.1-2.27-5.76l-21.89-25.38c-.46-.53-.97-.99-1.5-1.4,.76-1.23,1.96-3.49,2.12-5.61,.08-1.14-.13-2.23-.88-3.1-.46-.54-1.28-.6-1.81-.13Z"/></g><g><path class="cls-2" d="M537.19,219.66c-.25,.21-.42,.52-.45,.88l-2.02,25.79c-.06,.71,.47,1.32,1.18,1.38,.71,.06,1.33-.47,1.38-1.18l2.02-25.79c.05-.71-.47-1.33-1.18-1.38-.35-.03-.68,.09-.94,.31Z"/><path class="cls-2" d="M539.49,217.41l.29-3.65c.06-.71-.47-1.33-1.18-1.38-.35-.03-.68,.09-.93,.3-.25,.21-.42,.52-.45,.87l-.29,3.65c-.06,.71,.47,1.33,1.18,1.38,.71,.06,1.32-.47,1.38-1.18Z"/><path class="cls-2" d="M520.82,254.58c.71,.06,1.33-.47,1.38-1.18,.1-1.32,2.94-2.48,5.2-2.99,1.1,2.45,3.23,4.19,5.8,4.39,2.3,.18,4.56-.93,6.08-2.93l30.33,2.38c.56,.07,5.49,.65,8.2-1.54,1-.81,1.6-1.95,1.7-3.27l.19-2.49c.06-.71-.47-1.33-1.18-1.38l-31.65-2.48c-.34-.03-.68,.08-.94,.3l-3.57,3.05c-.54,.46-.6,1.27-.14,1.81,.46,.54,1.27,.6,1.81,.14l3.16-2.7,29.84,2.34-.09,1.21c-.05,.62-.29,1.1-.76,1.47-1.57,1.27-5.04,1.15-6.31,.98l-31.14-2.44c-.48-.04-.94,.19-1.2,.61-1,1.62-2.55,2.51-4.14,2.38-2.57-.2-4.46-2.96-4.21-6.16l2.62-33.41c.12-1.59,.75-3.03,1.77-4.06,.96-.97,2.15-1.46,3.35-1.36,2.57,.2,4.46,2.96,4.21,6.16l-2.24,28.6c-.06,.71,.47,1.33,1.18,1.38,.71,.05,1.33-.47,1.38-1.18l2.24-28.6c.36-4.6-2.58-8.6-6.57-8.92-1.76-.14-3.47,.45-4.88,1.65-.17,.15-.34,.3-.5,.47-1.44,1.46-2.32,3.48-2.5,5.66l-2.62,33.42c-.06,.7-.03,1.39,.07,2.05-1.4,.33-3.86,1.06-5.48,2.45-.87,.74-1.49,1.67-1.58,2.81-.05,.71,.47,1.32,1.18,1.38Z"/></g><g><path class="cls-2" d="M364.78,603.98l17.55,9.18c3.06,1.6,6.86,.41,8.46-2.65,.03-.06,.06-.12,.08-.19l14.1-42.21c.22-.67-.14-1.39-.81-1.62-.67-.23-1.4,.14-1.63,.81l-14.06,42.1c-.97,1.75-3.17,2.41-4.95,1.48l-17.55-9.18c-1.78-.93-2.49-3.12-1.61-4.91l26.55-35.57c.04-.06,.08-.11,.11-.17,.65-1.24,1.92-1.95,3.23-1.97l8.13,4.25s.04,.02,.06,.02c.43,.47,1.15,.56,1.69,.18,.56-.4,.7-1.16,.33-1.73l2.6-7.98c.19-.6-.07-1.25-.63-1.54l-5.46-2.86c-.56-.29-1.24-.14-1.62,.36l-5.08,6.71c-2.21,0-4.36,1.19-5.48,3.26l-26.56,35.59c-.04,.06-.08,.11-.11,.17-1.6,3.06-.41,6.86,2.65,8.46Zm35.97-51.77l3.53,1.85-1.91,5.86s-.09-.06-.13-.08l-5.04-2.63c-.06-.03-.12-.05-.18-.08l3.72-4.92Z"/><path class="cls-2" d="M382.94,574.7l-14.96,20.06c-.04,.05-.08,.11-.11,.17-1.19,2.28-.31,5.1,1.97,6.29l11.88,6.21c2.27,1.19,5.1,.31,6.29-1.97,.33-.63,.09-1.41-.54-1.73-.63-.33-1.4-.08-1.73,.54-.53,1.02-1.8,1.42-2.82,.89l-11.88-6.21c-.99-.52-1.39-1.73-.92-2.74l14.89-19.96c.42-.57,.31-1.37-.26-1.8-.05-.04-.11-.08-.17-.11-.55-.29-1.24-.14-1.63,.37Z"/><path class="cls-2" d="M386.82,571.65c.57,.42,1.37,.31,1.8-.26l2.75-3.68c.42-.57,.31-1.37-.26-1.8-.06-.04-.11-.08-.17-.11-.55-.29-1.24-.14-1.62,.37l-2.75,3.68c-.42,.57-.31,1.37,.26,1.8Z"/></g><g><path class="cls-2" d="M619.1,151.13l-16.9-10.33c-2.95-1.8-6.82-.87-8.62,2.08-.04,.06-.07,.12-.09,.18l-16.89,41.17c-.27,.66,.04,1.4,.7,1.68,.66,.27,1.41-.04,1.68-.7l16.85-41.07c1.09-1.68,3.32-2.19,5.04-1.15l16.9,10.33c1.71,1.05,2.27,3.28,1.28,5.01l-28.87,33.72c-.04,.05-.08,.11-.12,.17-.73,1.2-2.04,1.82-3.36,1.75l-7.83-4.79s-.04-.02-.06-.03c-.4-.5-1.11-.64-1.67-.29-.58,.36-.77,1.11-.45,1.71l-3.13,7.79c-.23,.58-.01,1.25,.52,1.58l5.26,3.21c.53,.33,1.23,.22,1.64-.25l5.52-6.35c2.21,.14,4.43-.9,5.69-2.89l28.88-33.73c.04-.05,.08-.11,.12-.17,1.8-2.95,.87-6.82-2.08-8.62Zm-39.35,49.25l-3.4-2.08,2.3-5.72s.08,.06,.13,.09l4.85,2.96c.06,.03,.11,.06,.17,.09l-4.04,4.66Z"/><path class="cls-2" d="M594.95,181.91c-.54-.46-1.35-.4-1.81,.14l-2.99,3.49c-.46,.54-.4,1.35,.14,1.81,.05,.05,.11,.08,.17,.12,.53,.32,1.23,.22,1.64-.26l2.99-3.49c.46-.54,.4-1.35-.14-1.81Z"/></g><g><path class="cls-2" d="M499.04,260.57c-6.32,2.31-9.58,9.33-7.27,15.65,.24,.67,.98,1.01,1.65,.76,.67-.24,1.01-.98,.77-1.65-1.82-4.99,.75-10.53,5.74-12.36,2.03-.74,4.2-.79,6.25-.13,.68,.22,1.4-.15,1.62-.83,.04-.14,.06-.28,.06-.41,0-.54-.35-1.03-.89-1.2-2.61-.84-5.35-.78-7.92,.16Z"/><path class="cls-2" d="M509.58,264.78c1.21,1.06,2.14,2.42,2.7,3.94,.24,.67,.98,1.01,1.65,.76,.53-.19,.85-.69,.84-1.22,0-.14-.03-.28-.08-.42-.7-1.92-1.88-3.65-3.42-4.99-.53-.47-1.34-.41-1.81,.12-.47,.54-.41,1.35,.12,1.81Z"/><path class="cls-2" d="M502.64,253.34c-10.48,.15-18.87,8.8-18.72,19.28,.09,6.43,3.51,12.44,8.95,15.84l2.69,27.33c.07,.66,.63,1.17,1.3,1.16l13.42-.2c.67-.01,1.22-.54,1.26-1.21l1.65-27.22c3.02-1.95,5.39-4.69,6.9-7.85,.05,0,.09,.01,.14,.01l19.41-.28c4.63-.07,8.33-3.89,8.27-8.51-.07-4.63-3.88-8.33-8.52-8.27l-19.49,.37c-3.26-6.48-9.94-10.55-17.25-10.44Zm15.27,12.27c.21,.47,.68,.77,1.2,.76l20.31-.38c3.21-.05,5.86,2.52,5.91,5.74,.05,3.21-2.53,5.86-5.73,5.91l-7.98,.12-.04-2.82c-.01-.71-.59-1.28-1.3-1.27-.71,.01-1.28,.59-1.27,1.3l.04,2.82-1.17,.02-.04-2.82c-.01-.71-.6-1.28-1.31-1.27-.71,.01-1.28,.59-1.27,1.3l.04,2.82-4.23,.06c.57-1.87,.87-3.83,.84-5.84-.01-.71-.6-1.28-1.3-1.27-.71,0-1.28,.59-1.27,1.3,.09,5.87-3,11.37-8.05,14.38-.08,.05-.15,.1-.22,.16,0,0-.01,0-.01,.01-.06,.05-.11,.11-.15,.17-.01,.02-.02,.03-.03,.05-.04,.05-.07,.11-.1,.17,0,.02-.01,.04-.02,.05-.02,.06-.05,.12-.06,.18-.01,.04-.01,.08-.02,.13,0,.04-.02,.08-.02,.11l-1.61,26.69-11.04,.16-2.64-26.79s-.02-.08-.02-.12c0-.04-.01-.07-.02-.11-.01-.05-.03-.1-.05-.15-.01-.03-.02-.06-.03-.08-.02-.05-.05-.09-.09-.14-.02-.02-.03-.05-.05-.07-.03-.05-.07-.08-.11-.12-.02-.02-.04-.04-.06-.06-.05-.04-.1-.08-.15-.11-.02,0-.03-.02-.04-.03-5-2.88-8.15-8.25-8.24-14.01-.13-9.06,7.13-16.54,16.19-16.67,6.56-.1,12.54,3.71,15.24,9.7Z"/><path class="cls-2" d="M506.53,295.35l-1.15,15.63c-.05,.69,.48,1.32,1.19,1.37,.71,.05,1.32-.48,1.38-1.19l1.15-15.63s0-.08,0-.11c0-.66-.52-1.21-1.19-1.26-.71-.05-1.32,.48-1.38,1.19Z"/><path class="cls-2" d="M503.45,267.1c-2.88,.04-5.2,2.42-5.15,5.31,.04,2.89,2.42,5.2,5.31,5.15,2.89-.04,5.2-2.42,5.16-5.31-.04-2.88-2.42-5.2-5.31-5.16Zm2.74,5.19c.02,1.47-1.15,2.68-2.62,2.7-1.47,.02-2.68-1.16-2.7-2.62-.02-1.47,1.16-2.68,2.62-2.7,1.47-.02,2.68,1.15,2.7,2.62Z"/></g><path class="cls-2" d="M507.24,325.56l-25.62,.88c-2.08,.07-4.23,.26-5.53,1.66-.74,.79-1.09,1.86-1.05,3.18,.05,1.24,.43,2.2,1.14,2.87,1.28,1.18,3.22,1.11,5.28,1.03l26.09-.9,.47-.02c.07,0,.14,0,.22,0l.06,1.84-13.49,.46h0l-14.86,.51c-.71,.03-1.26,.62-1.24,1.33,.02,.71,.62,1.27,1.33,1.24l13.59-.47,.23,6.84c-.96,.27-1.84,.79-2.54,1.54-1,1.07-1.52,2.46-1.47,3.93l1.26,36.56c.11,3.02,2.65,5.39,5.66,5.28,1.51-.05,2.86-.71,3.81-1.74,.96-1.03,1.52-2.41,1.47-3.93l-1.26-36.56c-.03-.71-.62-1.26-1.33-1.24-.71,.03-1.26,.62-1.24,1.33l1.26,36.56c.05,1.6-1.2,2.95-2.8,3.01-1.6,.06-2.95-1.2-3.01-2.81l-1.26-36.56c-.05-1.55,1.25-2.95,2.81-3.01,.36-.01,.67-.17,.89-.41,.22-.24,.36-.57,.35-.92l-.27-7.96,13.49-.47c.36-.01,.67-.17,.9-.41,.22-.24,.36-.57,.34-.92l-.11-3.25c.95-.18,1.79-.51,2.41-1.18,.66-.71,.98-1.7,.93-2.94-.16-4.6-4.71-4.45-6.9-4.37Zm4.33,4.46c.02,.53-.07,.9-.25,1.1-.29,.31-.98,.44-1.82,.51-.03,0-.06-.02-.09-.02-.04,0-.08,.02-.12,.03-.44,.03-.91,.05-1.37,.06l-26.57,.92c-1.44,.05-2.94,.11-3.43-.35-.2-.18-.31-.55-.32-1.08-.03-.92,.26-1.24,.36-1.34,.6-.65,2.16-.79,3.75-.84l25.62-.88c3.76-.13,4.19,.51,4.24,1.9Z"/><path class="cls-2" d="M568.56,133.21l-25.38-3.6c-2.07-.29-4.21-.48-5.74,.67-.87,.65-1.4,1.64-1.59,2.95-.17,1.23,.04,2.25,.62,3.03,1.05,1.39,2.98,1.66,5.02,1.94l25.84,3.67,.46,.07c.07,.01,.14,.02,.21,.03l-.26,1.82-13.37-1.9h0l-14.72-2.09c-.7-.1-1.35,.39-1.45,1.09-.1,.7,.39,1.35,1.09,1.45l13.46,1.91-.96,6.78c-.99,.09-1.95,.45-2.76,1.07-1.17,.88-1.93,2.16-2.13,3.61l-5.14,36.22c-.42,2.99,1.67,5.77,4.65,6.19,1.5,.21,2.94-.2,4.06-1.05,1.12-.84,1.92-2.11,2.13-3.61l5.14-36.22c.1-.7-.39-1.35-1.09-1.45-.7-.1-1.35,.39-1.45,1.09l-5.14,36.22c-.23,1.59-1.7,2.7-3.29,2.47-1.59-.23-2.7-1.7-2.47-3.29l5.14-36.22c.22-1.54,1.75-2.69,3.29-2.47,.35,.05,.69-.05,.95-.24,.26-.2,.45-.49,.5-.85l1.12-7.89,13.37,1.9c.35,.05,.69-.05,.95-.24,.26-.2,.45-.5,.5-.85l.46-3.22c.97,0,1.85-.19,2.58-.74,.78-.58,1.26-1.5,1.43-2.73,.65-4.56-3.86-5.2-6.03-5.51Zm3.49,5.15c-.08,.53-.22,.88-.44,1.04-.34,.25-1.04,.26-1.88,.19-.03,0-.05-.03-.08-.03-.04,0-.08,0-.12,0-.44-.05-.9-.11-1.36-.18l-26.32-3.73c-1.43-.2-2.91-.4-3.32-.94-.16-.21-.2-.59-.13-1.12,.13-.92,.47-1.17,.58-1.26,.71-.53,2.26-.4,3.84-.18l25.38,3.6c3.73,.53,4.04,1.23,3.85,2.61Z"/><g><path class="cls-2" d="M292.95,490.34l1.56,3.97c.26,.66,1,.99,1.66,.73l31.5-12.33c.66-.26,.99-1,.73-1.66-.26-.66-1-.99-1.66-.73l-30.31,11.87-.62-1.58,41.3-16.17,2.64,6.75c.26,.66,1,.99,1.66,.73l4.45-1.74,5.44,13.9-4.45,1.74h0c-.33,.13-.58,.38-.71,.68-.13,.3-.15,.65-.02,.98h0l.94,2.41-31.68,12.4c-.66,.26-.99,1-.73,1.66,.26,.66,1,.99,1.66,.73l31.68-12.4,.76,1.95-41.31,16.17-2.64-6.75c-.26-.66-1-.99-1.67-.73h0l-4.45,1.74-5.44-13.89,4.45-1.74c.66-.26,.99-1,.73-1.66-.13-.33-.38-.58-.68-.71-.3-.13-.65-.15-.98-.02l-5.64,2.21c-.32,.12-.57,.37-.71,.68-.14,.31-.14,.67-.02,.98l6.38,16.29c.26,.66,1,.99,1.67,.73l4.45-1.74,2.64,6.75c.12,.32,.37,.57,.68,.71,.31,.14,.67,.14,.98,.02l43.7-17.11c.66-.26,.99-1,.73-1.67l-2.64-6.75,4.45-1.74c.66-.26,.99-1,.73-1.67l-6.38-16.28c-.13-.33-.38-.58-.68-.71-.3-.13-.65-.15-.98-.02l-4.45,1.74-2.64-6.75c-.13-.33-.38-.58-.68-.71-.3-.13-.65-.15-.98-.02l-43.7,17.11c-.32,.12-.57,.37-.71,.68-.14,.31-.14,.67-.02,.98Z"/><path class="cls-2" d="M299.58,502.78c-.38,.88-.4,1.85-.05,2.75,.35,.89,1.02,1.6,1.9,1.98,.88,.38,1.85,.4,2.75,.05l12.98-5.08c.56,.47,1.17,.85,1.85,1.15,1.84,.81,3.89,.85,5.77,.11,2.62-1.02,4.4-3.36,4.74-6.1l12.98-5.08c.89-.35,1.6-1.03,1.98-1.9,.38-.88,.4-1.85,.05-2.74-.35-.89-1.03-1.6-1.9-1.98-.88-.38-1.85-.4-2.74-.05l-12.98,5.08c-.56-.47-1.18-.85-1.85-1.15-1.85-.81-3.89-.85-5.77-.11-2.62,1.02-4.41,3.36-4.74,6.1l-12.98,5.08c-.89,.35-1.6,1.03-1.98,1.9Zm2.92,.49l13.74-5.38c.52-.2,.84-.72,.81-1.25,.03-2.03,1.27-3.81,3.16-4.55,1.24-.48,2.59-.46,3.8,.07,.59,.26,1.12,.62,1.53,1.04l.09,.1c.35,.4,.93,.54,1.43,.34l13.75-5.38c.5-.2,1.12,.07,1.32,.58,.1,.25,.09,.53-.02,.78-.11,.25-.31,.44-.56,.54l-13.74,5.38c-.49,.19-.81,.66-.82,1.19,0,2.05-1.25,3.86-3.16,4.61-1.23,.48-2.59,.46-3.8-.07-.59-.26-1.12-.62-1.54-1.05l-.09-.11c-.36-.4-.92-.53-1.42-.33l-13.75,5.38c-.51,.2-1.12-.07-1.32-.58-.1-.25-.09-.53,.02-.78,.11-.25,.31-.44,.56-.54Z"/></g><g><path class="cls-2" d="M382.36,478.24c.38-1.11,.58-2.25,.58-3.41l6.43-2.32,21.2,18.76s.08,.07,.13,.1c.31,.21,7.51,4.98,13.08,.81,.32-.24,.51-.61,.52-1.01,0-.4-.17-.77-.48-1.02l-24.25-19.63,31.2-.38c.38,0,.73-.17,.97-.46,.24-.29,.34-.67,.28-1.04-.47-2.83-3.33-7.92-10.74-7.02l-28.31,.6-3.62-5.84c.72-.91,1.27-1.92,1.66-3.03,1.88-5.41-.99-11.33-6.4-13.21-5.41-1.88-11.33,.99-13.21,6.4-1.88,5.41,.99,11.33,6.4,13.21,1.91,.66,3.94,.76,5.9,.27,.69-.17,1.11-.87,.94-1.56-.17-.69-.87-1.11-1.56-.94-1.47,.36-3,.29-4.43-.2-4.07-1.41-6.23-5.87-4.82-9.94,1.41-4.07,5.87-6.23,9.94-4.82,4.07,1.41,6.23,5.87,4.82,9.94-.38,1.09-.97,2.06-1.77,2.88-.24,.25-.38,.59-.36,.94,.01,.33,.15,.64,.39,.88l4.34,6.99c.24,.38,.67,.62,1.12,.6l29.11-.61s.09,0,.13,0c4.71-.59,6.67,1.75,7.46,3.41l-33.01,.4c-.54,0-1.02,.35-1.2,.86-.18,.51-.02,1.08,.4,1.42l25.52,20.67c-3.67,1.29-7.95-1.31-8.51-1.66l-21.7-19.2c-.35-.31-.84-.41-1.29-.25l-7.74,2.8c-.33,.03-.63,.19-.85,.45-.23,.27-.33,.62-.3,.96,.12,1.14-.02,2.27-.39,3.36-1.42,4.07-5.87,6.23-9.94,4.82-4.07-1.41-6.23-5.87-4.82-9.94,1.41-4.07,5.87-6.23,9.94-4.82,1.43,.5,2.68,1.39,3.61,2.59,.34,.43,.9,.6,1.42,.43l7.14-2.37c.67-.22,1.04-.95,.81-1.63-.22-.67-.95-1.04-1.62-.81l-6.32,2.1c-1.15-1.24-2.58-2.17-4.2-2.73-5.41-1.88-11.33,.99-13.21,6.4-1.88,5.41,.99,11.34,6.4,13.22,5.41,1.88,11.33-.99,13.21-6.4Z"/><path class="cls-2" d="M384.52,451.13c-.23,.67,.12,1.4,.79,1.64s1.4-.12,1.64-.79c1.12-3.23-.59-6.77-3.83-7.9-1.76-.61-3.68-.4-5.27,.56-.27,.16-.45,.4-.55,.68-.12,.35-.09,.75,.11,1.09,.37,.61,1.16,.8,1.77,.43,.93-.57,2.06-.69,3.09-.33,1.89,.66,2.9,2.73,2.24,4.63Z"/></g><g><path class="cls-2" d="M583.97,524.65c.51-.49,.53-1.29,.05-1.81h0c-.49-.52-1.3-.54-1.82-.05-1.43,1.36-2.26,3.19-2.33,5.15-.01,.35,.12,.68,.35,.92,.22,.24,.54,.4,.89,.41,.71,.02,1.3-.53,1.33-1.24,.05-1.29,.59-2.49,1.53-3.39Z"/><path class="cls-2" d="M594.25,520.91l-6.47-.23c-.71-.02-1.3,.53-1.33,1.24-.01,.35,.12,.68,.34,.92,.22,.24,.54,.4,.89,.41l6.47,.23c2.8,.1,4.99,2.41,4.9,5.15-.03,.71,.53,1.3,1.24,1.33,.71,.02,1.31-.53,1.33-1.24,.15-4.15-3.16-7.66-7.37-7.8Z"/><path class="cls-2" d="M636.17,533.04c.76-8.35-3.7-16.76-13.27-24.98-.43-.37-1.04-.41-1.51-.12l-14.41,8.98c-.6,.38-.78,1.17-.41,1.77,.37,.6,1.17,.79,1.77,.41l13.6-8.48c8.41,7.44,12.33,14.89,11.68,22.16-.43,4.8-2.83,8.88-5.5,12.04l-9.49-5.21c-.62-.34-1.4-.11-1.75,.51-.27,.5-.18,1.1,.19,1.49,.09,.1,.2,.18,.32,.25l8.94,4.91c-2.32,2.34-4.58,3.98-5.72,4.73l-16.07-13.8c.56-1.2,.88-2.52,.93-3.88l.26-7.26s0-.08,0-.12l19.55-7.45c.66-.25,.99-.99,.74-1.66-.25-.67-1-1-1.66-.74l-18.92,7.21c-.4-1.65-1.22-3.18-2.42-4.47-1.88-2.02-4.45-3.19-7.23-3.29l-9.18-.33c-2.75-.1-5.37,.86-7.38,2.71-.42,.39-.79,.8-1.14,1.24-.66-1.61-2.03-2.48-4.09-2.55-2.09-.07-4.07,.65-5.6,2.05-1.53,1.4-2.42,3.31-2.49,5.38l-.3,8.46c-.07,2.11,.72,4.05,2.06,5.49,1.37,1.47,3.31,2.42,5.48,2.5,.71,.03,1.3-.53,1.33-1.24,.03-.71-.53-1.3-1.24-1.33-2.9-.1-5.17-2.5-5.07-5.33l.3-8.46c.05-1.37,.64-2.64,1.66-3.57,1.03-.94,2.37-1.43,3.78-1.38,1.39,.05,1.68,.55,1.86,1.06,.32,.9,.27,2.37,.21,3.93l-.31,8.69c0,.07,.03,.13,.03,.2,.1,2.39,1.04,4.65,2.7,6.43,1.88,2.02,4.45,3.19,7.23,3.29l9.18,.33c2.75,.1,5.37-.86,7.38-2.71,.35-.32,.66-.66,.95-1.01l16.52,14.19c.41,.36,1.01,.41,1.48,.14,.56-.33,13.84-8.22,15.02-21.18Zm-41.27,8.01l-9.18-.33c-2.09-.07-4.03-.95-5.44-2.47-1.38-1.48-2.09-3.39-2.02-5.39l.26-7.26c.07-2.02,.94-3.89,2.45-5.28,1.51-1.38,3.49-2.11,5.56-2.03l9.18,.33c2.1,.07,4.03,.95,5.44,2.47,1.38,1.48,2.1,3.39,2.03,5.39l-.26,7.26c-.07,2.02-.94,3.89-2.45,5.27-1.51,1.39-3.48,2.11-5.56,2.04Z"/></g><g><path class="cls-2" d="M469.38,113.68c.05-.7-.48-1.31-1.18-1.37,0,0,0,0-.01,0-.71-.05-1.32,.49-1.37,1.19-.13,1.97,.49,3.88,1.76,5.37,.23,.27,.55,.42,.88,.45,.33,.03,.66-.07,.94-.3,.54-.46,.6-1.27,.15-1.81-.83-.98-1.25-2.23-1.16-3.53Z"/><path class="cls-2" d="M474.44,103.98l-4.93,4.2c-.54,.46-.6,1.27-.14,1.81,.23,.27,.55,.42,.88,.45,.33,.03,.67-.07,.94-.3l4.93-4.2c2.13-1.82,5.31-1.6,7.09,.49,.46,.54,1.27,.61,1.81,.15,.54-.46,.61-1.27,.15-1.81-2.7-3.16-7.5-3.51-10.71-.78Z"/><path class="cls-2" d="M513.55,84.63c-5.08-6.68-14.05-9.86-26.65-9.47-.56,.02-1.05,.4-1.2,.94l-4.57,16.35c-.19,.68,.21,1.39,.89,1.58,.68,.19,1.39-.21,1.58-.89l4.31-15.43c11.22-.19,19.15,2.66,23.58,8.47,2.92,3.83,3.91,8.46,4.07,12.6l-10.52,2.56c-.69,.17-1.11,.86-.95,1.55,.14,.55,.61,.93,1.15,.98,.13,.01,.27,0,.41-.03l9.91-2.42c-.13,3.3-.69,6.02-1.02,7.35l-21.17,.67c-.4-1.27-1.05-2.45-1.93-3.49l-4.71-5.53s-.05-.06-.08-.09l9.39-18.69c.32-.63,.06-1.4-.57-1.72-.64-.32-1.41-.06-1.73,.57l-9.09,18.09c-1.41-.94-3.05-1.53-4.8-1.67-2.76-.22-5.44,.65-7.56,2.46l-6.99,5.96c-2.09,1.78-3.38,4.26-3.62,6.98-.05,.57-.04,1.13,0,1.68-1.58-.74-3.17-.46-4.74,.88-1.59,1.35-2.56,3.23-2.75,5.3-.18,2.07,.45,4.08,1.79,5.65l5.49,6.44c1.37,1.6,3.26,2.5,5.23,2.66,2,.16,4.07-.45,5.73-1.86,.54-.46,.61-1.27,.15-1.81-.46-.54-1.27-.6-1.81-.15-2.21,1.88-5.5,1.65-7.34-.51l-5.49-6.44c-.89-1.04-1.31-2.38-1.19-3.76,.12-1.39,.78-2.65,1.85-3.57,1.05-.9,1.61-.73,2.09-.47,.85,.45,1.8,1.57,2.81,2.75l5.64,6.62c.05,.05,.11,.08,.16,.12,1.69,1.7,3.91,2.73,6.33,2.92,2.75,.22,5.44-.65,7.55-2.46l6.99-5.96c2.09-1.78,3.38-4.26,3.62-6.98,.04-.47,.04-.93,.02-1.39l21.77-.68c.55-.02,1.02-.38,1.19-.9,.19-.62,4.67-15.41-3.22-25.77Zm-25.04,33.77l-6.99,5.96c-1.6,1.36-3.61,2.02-5.68,1.85-2.01-.16-3.83-1.09-5.13-2.61l-4.71-5.53c-1.31-1.54-1.93-3.51-1.76-5.54,.18-2.04,1.15-3.91,2.73-5.25l6.99-5.96c1.6-1.36,3.61-2.02,5.68-1.85,2.01,.16,3.83,1.08,5.13,2.61l4.71,5.53c1.31,1.54,1.94,3.51,1.75,5.54-.18,2.04-1.15,3.91-2.73,5.25Z"/><path class="cls-2" d="M496.37,105.91c.14,.01,.28,0,.42-.03l4.36-1.1c.69-.17,1.11-.87,.93-1.56-.18-.69-.87-1.1-1.56-.93l-4.36,1.1c-.69,.17-1.11,.87-.93,1.56,.14,.55,.61,.92,1.14,.97Z"/></g><g><path class="cls-2" d="M415.92,273.85c.55-.44,.65-1.24,.21-1.79h0c-.44-.57-1.25-.66-1.81-.22-1.55,1.23-2.53,2.98-2.78,4.93-.04,.35,.06,.69,.26,.95,.2,.26,.5,.44,.85,.49,.7,.09,1.35-.41,1.43-1.11,.16-1.28,.81-2.43,1.83-3.24Z"/><path class="cls-2" d="M426.5,271.03l-6.43-.8c-.7-.09-1.35,.41-1.43,1.12-.04,.35,.06,.69,.26,.95,.2,.26,.5,.44,.85,.49l6.43,.81c2.78,.35,4.76,2.84,4.42,5.56-.09,.7,.41,1.35,1.11,1.43,.71,.09,1.35-.41,1.44-1.12,.52-4.12-2.47-7.91-6.65-8.43Z"/><path class="cls-2" d="M467.17,286.84c1.5-8.25-2.2-17.02-11-26.06-.39-.4-1-.5-1.5-.25l-15.15,7.66c-.63,.32-.89,1.1-.57,1.73,.32,.63,1.09,.89,1.73,.57l14.3-7.23c7.71,8.16,10.96,15.93,9.66,23.11-.86,4.74-3.6,8.59-6.55,11.5l-8.99-6.03c-.59-.4-1.39-.24-1.78,.35-.31,.47-.28,1.08,.05,1.51,.08,.11,.18,.2,.3,.28l8.47,5.68c-2.52,2.13-4.91,3.55-6.11,4.21l-14.78-15.17c.67-1.15,1.1-2.43,1.27-3.78l.9-7.21s0-.08,0-.12l20.13-5.68c.68-.19,1.08-.9,.89-1.58-.19-.69-.9-1.08-1.58-.89l-19.49,5.5c-.26-1.68-.93-3.28-2.01-4.67-1.7-2.18-4.15-3.57-6.91-3.92l-9.12-1.14c-2.73-.34-5.43,.38-7.59,2.04-.45,.35-.86,.73-1.24,1.14-.52-1.66-1.8-2.65-3.85-2.9-2.07-.26-4.12,.29-5.76,1.55-1.65,1.26-2.7,3.09-2.96,5.13l-1.05,8.4c-.26,2.09,.36,4.09,1.57,5.65,1.23,1.59,3.08,2.7,5.24,2.97,.7,.09,1.35-.41,1.43-1.12,.09-.7-.41-1.35-1.11-1.43-2.88-.36-4.93-2.94-4.58-5.76l1.05-8.4c.17-1.36,.87-2.57,1.97-3.41,1.11-.85,2.48-1.22,3.88-1.04,1.38,.17,1.62,.7,1.76,1.22,.24,.93,.06,2.39-.14,3.93l-1.08,8.63c0,.07,.01,.13,.02,.2-.11,2.39,.62,4.73,2.12,6.65,1.69,2.18,4.15,3.57,6.91,3.92l9.12,1.14c2.73,.34,5.42-.38,7.59-2.04,.37-.29,.71-.6,1.04-.93l15.19,15.6c.38,.39,.97,.5,1.47,.27,.59-.28,14.52-6.95,16.85-19.76Zm-41.82,4.31l-9.12-1.14c-2.08-.26-3.93-1.31-5.2-2.94-1.24-1.59-1.78-3.56-1.54-5.55l.9-7.21c.25-2.01,1.28-3.8,2.91-5.04,1.63-1.24,3.66-1.79,5.72-1.53l9.12,1.14c2.08,.26,3.93,1.31,5.2,2.94,1.24,1.59,1.79,3.56,1.54,5.55l-.9,7.21c-.25,2.01-1.28,3.8-2.91,5.04-1.63,1.25-3.66,1.79-5.72,1.53Z"/><path class="cls-2" d="M439.87,288.52c.08,.11,.19,.2,.31,.28l3.75,2.47c.59,.39,1.39,.23,1.78-.36,.39-.59,.23-1.39-.37-1.78l-3.75-2.47c-.59-.39-1.39-.23-1.78,.36-.31,.47-.27,1.07,.06,1.5Z"/></g><g><path class="cls-2" d="M278.69,462.45c-.7,.07-1.21,.69-1.15,1.4h0c.07,.72,.7,1.23,1.41,1.16,1.97-.2,3.74-1.14,5-2.65,.23-.27,.32-.61,.29-.94-.03-.33-.18-.64-.46-.87-.54-.45-1.35-.38-1.81,.16-.83,.99-1.99,1.61-3.28,1.74Z"/><path class="cls-2" d="M268.27,459.1l4.98,4.15c.54,.45,1.35,.38,1.81-.16,.23-.27,.32-.61,.29-.94-.03-.33-.18-.64-.46-.87l-4.97-4.15c-2.15-1.79-2.47-4.96-.72-7.07,.46-.54,.38-1.35-.16-1.81-.55-.45-1.36-.38-1.81,.16-2.66,3.19-2.19,7.99,1.05,10.69Z"/><path class="cls-2" d="M242.58,423.84c-5.72,6.14-7.34,15.52-4.81,27.87,.11,.55,.57,.96,1.13,1.02l16.88,1.73c.71,.07,1.34-.44,1.41-1.15,.07-.7-.44-1.34-1.15-1.41l-15.94-1.63c-2.08-11.03-.63-19.32,4.35-24.67,3.28-3.53,7.67-5.29,11.72-6.15l4.31,9.93c.28,.65,1.04,.95,1.69,.67,.52-.23,.82-.76,.77-1.3-.01-.13-.05-.26-.1-.4l-4.06-9.36c3.27-.43,6.05-.34,7.42-.24l4.24,20.75c-1.18,.61-2.24,1.45-3.11,2.5l-4.65,5.58s-.05,.06-.07,.09l-20.01-6.09c-.68-.21-1.39,.18-1.6,.85-.21,.68,.18,1.4,.85,1.6l19.37,5.89c-.69,1.55-.99,3.27-.83,5.01,.25,2.75,1.57,5.25,3.7,7.03l7.06,5.88c2.11,1.76,4.77,2.61,7.49,2.38,.57-.05,1.12-.15,1.66-.28-.46,1.68,.09,3.2,1.67,4.52,1.6,1.34,3.62,1.98,5.69,1.81,2.07-.17,3.94-1.14,5.26-2.72l5.42-6.5c1.35-1.62,1.91-3.64,1.73-5.6-.18-2-1.13-3.94-2.8-5.33-.54-.46-1.36-.38-1.81,.16-.45,.54-.38,1.35,.16,1.81,2.23,1.86,2.56,5.14,.74,7.32l-5.42,6.5c-.88,1.05-2.12,1.69-3.5,1.81-1.39,.11-2.75-.32-3.83-1.22-1.07-.89-.99-1.46-.82-1.98,.3-.91,1.24-2.04,2.24-3.23l5.57-6.68c.04-.05,.06-.12,.09-.18,1.38-1.95,2.03-4.31,1.81-6.74-.25-2.75-1.57-5.25-3.7-7.03l-7.06-5.88c-2.11-1.76-4.77-2.61-7.49-2.38-.47,.04-.92,.12-1.38,.22l-4.36-21.34c-.11-.54-.55-.94-1.09-1.02-.65-.08-15.98-1.99-24.85,7.54Zm37.53,18.96l7.06,5.88c1.61,1.34,2.6,3.22,2.79,5.29,.18,2.01-.42,3.96-1.7,5.5l-4.65,5.58c-1.29,1.55-3.13,2.5-5.17,2.67-2.04,.17-4.05-.47-5.64-1.8l-7.06-5.88c-1.61-1.34-2.6-3.22-2.79-5.29-.18-2.01,.42-3.96,1.7-5.5l4.65-5.58c1.3-1.55,3.13-2.5,5.17-2.67,2.04-.17,4.05,.47,5.64,1.8Z"/><path class="cls-2" d="M266.46,437.16c-.01-.14-.05-.27-.1-.4l-1.82-4.11c-.29-.65-1.05-.94-1.7-.66-.65,.29-.94,1.04-.65,1.7l1.82,4.11c.29,.65,1.05,.94,1.7,.66,.52-.23,.81-.76,.76-1.29Z"/></g><g><path class="cls-2" d="M570.24,497.51c-.22-.27-.54-.45-.91-.48l-28.05-2.11c-.71-.05-1.33,.48-1.38,1.18-.05,.71,.48,1.32,1.18,1.38l28.05,2.11c.71,.05,1.32-.48,1.38-1.19,.03-.34-.08-.65-.28-.9Z"/><path class="cls-2" d="M572.7,499.67l3.2,.26c.71,.06,1.33-.47,1.38-1.18,.03-.34-.08-.66-.28-.91-.21-.27-.53-.45-.9-.48l-3.2-.26c-.71-.06-1.33,.47-1.38,1.18-.06,.71,.47,1.32,1.18,1.38Z"/><path class="cls-2" d="M514.71,476.62c-.08,.7,.43,1.34,1.14,1.42l3,.33-.25,2.29-3-.33c-.71-.08-1.34,.43-1.42,1.14-.08,.71,.43,1.34,1.14,1.42l3,.33-.25,2.28-3-.33c-.71-.08-1.34,.43-1.42,1.14-.08,.71,.43,1.34,1.14,1.42l3,.33-.25,2.29-3-.33c-.71-.08-1.34,.43-1.42,1.14-.08,.71,.43,1.34,1.14,1.42l3,.33-.25,2.29-3-.33c-.71-.08-1.34,.43-1.42,1.14-.08,.71,.43,1.34,1.14,1.42l3.03,.33c-.03,2.82,2.08,5.26,4.94,5.58,4.04,.44,4.5-3.71,4.65-5.07l.26-2.35,5.94,.65c1.52,2.94,4.14,5.26,7.48,5.63l34.67,2.32c2.7,.3,5.35-.47,7.47-2.17,2.12-1.7,3.44-4.12,3.74-6.82l.28-2.57c.31-2.79-.55-5.45-2.18-7.48-1.62-2.02-4-3.42-6.75-3.72l-34.45-5.27c-1.53-.17-3.06,.11-4.56,.81-.64,.3-.92,1.07-.61,1.71,.3,.64,1.07,.92,1.71,.61,1.07-.5,2.14-.7,3.14-.59l34.45,5.27c4.16,.46,7.17,4.21,6.71,8.37l-.28,2.57c-.46,4.16-4.21,7.17-8.43,6.71l-34.67-2.32c-4.18-.46-7-5.76-6.55-9.84l.28-2.57c.18-1.63,.88-3.32,1.98-4.78,.43-.57,.32-1.37-.25-1.8-.29-.22-.64-.29-.97-.24l-6.35-.7,.28-2.56c.1-.94,.35-3.19-.82-4.66-.53-.66-1.36-1.16-2.62-1.3-1.47-.16-2.92,.26-4.08,1.19-1.09,.87-1.79,2.09-2,3.46l-3.01-.33c-.7-.08-1.34,.43-1.42,1.14Zm10.23-2.9c.7,.08,1.49,.17,1.17,3.13l-1.42,12.91c-.04,.35,.07,.69,.28,.94,.2,.26,.51,.43,.86,.47,.71,.08,1.34-.43,1.42-1.14l.86-7.8,4.63,.51c-.7,1.34-1.16,2.77-1.31,4.17l-.28,2.57c-.16,1.42-.02,2.91,.36,4.36l-5.9-.65c-.35-.04-.69,.07-.94,.27-.26,.2-.44,.51-.47,.86l-.4,3.62c-.33,2.96-1.12,2.88-1.82,2.8-1.63-.18-2.81-1.65-2.64-3.29l.08-.73h0l1.06-9.68h0l.53-4.84h0l.53-4.84h0l.11-1.01c.18-1.63,1.65-2.81,3.29-2.64Z"/></g><g><path class="cls-2" d="M514.26,142.01c-.22,.26-.34,.62-.29,.98l3.38,27.92c.09,.71,.72,1.21,1.43,1.12,.71-.09,1.21-.73,1.12-1.43l-3.38-27.92c-.09-.71-.73-1.21-1.43-1.12-.34,.04-.63,.21-.83,.45Z"/><path class="cls-2" d="M515.9,139.18l-.37-3.19c-.08-.71-.72-1.21-1.42-1.13-.34,.04-.63,.21-.84,.45-.22,.26-.34,.61-.29,.97l.37,3.19c.08,.7,.72,1.21,1.42,1.13,.7-.08,1.21-.72,1.13-1.42Z"/><path class="cls-2" d="M504.57,200.54c.71-.06,1.23-.68,1.17-1.39l-.26-3.01,2.29-.2,.26,3.01c.06,.71,.68,1.23,1.39,1.17,.71-.06,1.23-.68,1.17-1.39l-.26-3.01,2.29-.2,.26,3.01c.06,.71,.68,1.23,1.39,1.17,.71-.06,1.23-.68,1.17-1.39l-.26-3.01,2.29-.2,.26,3.01c.06,.71,.68,1.23,1.39,1.17,.71-.06,1.23-.69,1.17-1.39l-.26-3.01,2.29-.2,.26,3.01c.06,.71,.68,1.23,1.39,1.17,.71-.06,1.23-.68,1.17-1.39l-.26-3.04c2.77-.52,4.75-3.07,4.51-5.93-.35-4.05-4.51-3.69-5.88-3.58l-2.35,.2-.52-5.95c2.59-2.06,4.35-5.08,4.06-8.43l-4.47-34.46c-.23-2.7-1.51-5.15-3.58-6.9-2.08-1.74-4.71-2.58-7.41-2.34l-2.57,.22c-2.8,.24-5.23,1.6-6.91,3.59-1.67,1.98-2.58,4.59-2.34,7.35l1.53,34.82c.13,1.53,.7,2.98,1.69,4.32,.42,.57,1.23,.69,1.8,.27,.57-.42,.69-1.23,.27-1.79-.7-.95-1.1-1.96-1.19-2.96l-1.53-34.82c-.36-4.17,2.74-7.85,6.91-8.22l2.57-.22c4.17-.36,7.85,2.74,8.22,6.96l4.47,34.46c.36,4.19-4.29,7.99-8.38,8.34l-2.57,.22c-1.63,.14-3.43-.22-5.07-1.01-.64-.31-1.41-.04-1.72,.6-.16,.32-.16,.68-.05,1l.55,6.37-2.56,.22c-.94,.08-3.2,.28-4.41,1.71-.55,.65-.88,1.56-.77,2.82,.13,1.48,.82,2.81,1.96,3.77,1.07,.9,2.4,1.34,3.78,1.29l.26,3.02c.06,.71,.68,1.23,1.39,1.17Zm-4.83-9.47c-.06-.7-.13-1.5,2.84-1.75l12.94-1.12c.35-.03,.66-.2,.87-.45,.21-.25,.33-.58,.3-.94-.06-.71-.68-1.23-1.39-1.17l-7.81,.68-.4-4.64c1.45,.42,2.94,.59,4.35,.47l2.57-.22c1.42-.12,2.86-.55,4.2-1.2l.51,5.91c.03,.35,.2,.66,.45,.87,.25,.21,.58,.33,.94,.3l3.63-.31c2.97-.26,3.04,.54,3.1,1.24,.14,1.64-1.07,3.08-2.71,3.22l-.74,.06h0l-9.7,.84h0l-4.85,.42h0l-4.85,.42h0l-1.01,.09c-1.64,.14-3.08-1.07-3.22-2.71Z"/></g><g><path class="cls-2" d="M525.64,396.39c-.25,.21-.58,.33-.93,.3-.71-.06-1.24-.68-1.18-1.39l4.55-56.11c.38-4.64,4.76-5.68,7.02-5.59l19.77,1.75c.71,.06,1.23,.69,1.16,1.39-.06,.71-.69,1.23-1.39,1.17l-19.71-1.75c-.35-.01-4.03-.04-4.3,3.23l-4.55,56.11c-.03,.35-.2,.66-.45,.88Z"/><path class="cls-2" d="M550.51,400.15c-.25,.21-.58,.33-.94,.3l-17.31-1.4c-.31-.02-1.45-.14-2.34-1.12-.78-.86-1.11-2.06-.99-3.58l4.48-55.16,2.56,.21-4.48,55.16c-.06,.75,.05,1.31,.31,1.62,.24,.28,.58,.31,.59,.31l17.39,1.41c.71,.06,1.23,.68,1.18,1.38-.03,.35-.2,.66-.45,.88Z"/><path class="cls-2" d="M550.92,395.14c-.25,.21-.58,.33-.94,.3l-15.69-1.27c-.71-.06-1.23-.68-1.18-1.38s.68-1.23,1.39-1.18l15.69,1.27c.71,.06,1.23,.68,1.18,1.38-.03,.35-.2,.66-.45,.88Z"/><path class="cls-2" d="M551.4,389.24c-.25,.21-.58,.33-.94,.3l-15.69-1.27c-.71-.06-1.23-.68-1.18-1.39,.06-.71,.68-1.24,1.39-1.18l15.69,1.27c.71,.06,1.24,.68,1.18,1.39-.03,.35-.2,.66-.45,.87Z"/><path class="cls-2" d="M551.88,383.34c-.25,.21-.58,.33-.94,.3l-15.69-1.27c-.71-.06-1.24-.68-1.18-1.39s.68-1.23,1.38-1.18l15.69,1.27c.71,.06,1.23,.68,1.18,1.39-.03,.35-.2,.66-.45,.87Z"/><path class="cls-2" d="M552.36,377.44c-.25,.21-.58,.33-.93,.3l-15.69-1.27c-.71-.06-1.23-.68-1.18-1.38,.06-.71,.68-1.23,1.39-1.18l15.69,1.28c.71,.05,1.23,.67,1.18,1.38-.03,.35-.2,.66-.45,.87Z"/><path class="cls-2" d="M552.84,371.55c-.25,.21-.58,.33-.94,.3l-15.7-1.27c-.71-.06-1.23-.68-1.17-1.38,.06-.71,.68-1.23,1.38-1.18l15.69,1.27c.71,.06,1.24,.68,1.18,1.38-.03,.35-.2,.66-.45,.88Z"/><path class="cls-2" d="M553.31,365.65c-.25,.21-.58,.33-.93,.3l-15.69-1.27c-.71-.06-1.23-.68-1.18-1.39,.06-.71,.68-1.23,1.38-1.18l15.69,1.27c.71,.06,1.24,.68,1.18,1.38-.03,.35-.2,.66-.45,.88Z"/><path class="cls-2" d="M553.79,359.75c-.25,.21-.58,.33-.93,.3l-15.69-1.27c-.71-.06-1.23-.68-1.18-1.38s.68-1.24,1.39-1.18l15.69,1.27c.71,.06,1.23,.68,1.18,1.38-.03,.35-.2,.66-.45,.88Z"/><path class="cls-2" d="M554.27,353.85c-.25,.21-.58,.33-.94,.3l-15.69-1.27c-.71-.06-1.23-.68-1.18-1.38,.06-.71,.68-1.23,1.39-1.18l15.69,1.27c.71,.06,1.24,.68,1.18,1.38-.03,.35-.2,.66-.45,.87Z"/><path class="cls-2" d="M554.75,347.96c-.25,.21-.58,.33-.93,.3l-15.7-1.27c-.71-.06-1.23-.68-1.17-1.38,.06-.71,.68-1.23,1.38-1.18l15.69,1.27c.71,.06,1.23,.68,1.18,1.39-.03,.35-.2,.66-.45,.87Z"/><path class="cls-2" d="M555.23,342.06c-.25,.21-.58,.33-.94,.3l-15.69-1.27c-.71-.06-1.23-.68-1.18-1.39,.06-.71,.68-1.23,1.39-1.18l15.69,1.27c.71,.06,1.23,.68,1.17,1.39-.03,.35-.2,.66-.45,.87Z"/></g><g><path class="cls-2" d="M107.35,617.33c-.04,.33-.2,.64-.48,.86-.56,.44-1.37,.35-1.81-.21l-34.97-44.12c-2.89-3.65-.4-7.4,1.32-8.88l15.65-12.21c.56-.44,1.36-.34,1.8,.22,.44,.56,.34,1.37-.22,1.8l-15.6,12.18c-.26,.23-2.97,2.72-.93,5.29l34.97,44.12c.22,.28,.31,.62,.27,.95Z"/><path class="cls-2" d="M128.09,603.1c-.04,.33-.2,.64-.48,.86l-13.61,10.79c-.23,.2-1.16,.89-2.48,.78-1.15-.09-2.22-.75-3.17-1.94l-34.38-43.37,2.01-1.6,34.38,43.37c.47,.59,.93,.93,1.33,.97,.36,.04,.63-.17,.64-.18l13.67-10.84c.56-.44,1.36-.35,1.8,.21,.22,.28,.31,.62,.27,.95Z"/><path class="cls-2" d="M121.29,594.52c-.04,.33-.2,.64-.48,.86l-12.34,9.78c-.56,.44-1.36,.35-1.81-.21-.44-.56-.35-1.37,.21-1.81l12.34-9.78c.56-.44,1.37-.35,1.81,.21,.22,.28,.31,.62,.27,.95Z"/><path class="cls-2" d="M117.62,589.88c-.04,.33-.2,.64-.48,.86l-12.34,9.78c-.56,.44-1.37,.35-1.81-.21s-.35-1.36,.21-1.8l12.34-9.78c.55-.44,1.36-.35,1.81,.21,.22,.28,.3,.62,.27,.94Z"/><path class="cls-2" d="M113.94,585.24c-.04,.33-.2,.64-.48,.86l-12.34,9.78c-.56,.44-1.36,.35-1.8-.21-.44-.56-.35-1.36,.21-1.81l12.34-9.78c.56-.44,1.36-.35,1.8,.21,.22,.28,.31,.62,.27,.94Z"/><path class="cls-2" d="M110.27,580.61c-.04,.33-.2,.64-.48,.86l-12.34,9.78c-.56,.44-1.36,.35-1.8-.21-.44-.55-.35-1.36,.21-1.8l12.34-9.78c.56-.44,1.37-.35,1.81,.21,.22,.28,.31,.62,.27,.95Z"/><path class="cls-2" d="M106.59,575.97c-.04,.32-.2,.64-.48,.86l-12.34,9.78c-.56,.44-1.36,.35-1.81-.21-.44-.56-.35-1.36,.21-1.8l12.34-9.78c.56-.44,1.37-.35,1.81,.21,.22,.28,.31,.62,.27,.95Z"/><path class="cls-2" d="M102.92,571.33c-.04,.33-.2,.64-.48,.86l-12.34,9.78c-.55,.44-1.36,.35-1.8-.21s-.35-1.37,.21-1.81l12.34-9.78c.56-.44,1.36-.35,1.81,.21,.22,.28,.31,.62,.27,.95Z"/><path class="cls-2" d="M99.24,566.7c-.04,.33-.2,.64-.48,.86l-12.34,9.78c-.55,.44-1.36,.35-1.8-.21-.44-.56-.35-1.37,.21-1.81l12.34-9.78c.56-.44,1.37-.35,1.8,.21,.22,.28,.31,.62,.27,.95Z"/><path class="cls-2" d="M95.57,562.06c-.04,.33-.2,.64-.48,.86l-12.34,9.78c-.56,.44-1.36,.35-1.8-.21-.44-.56-.35-1.36,.21-1.8l12.34-9.78c.56-.44,1.36-.35,1.81,.21,.22,.28,.31,.62,.27,.94Z"/><path class="cls-2" d="M91.89,557.42c-.04,.33-.2,.64-.48,.86l-12.34,9.78c-.56,.44-1.36,.35-1.81-.21-.44-.56-.35-1.36,.21-1.81l12.34-9.78c.56-.44,1.36-.35,1.8,.21,.22,.28,.31,.62,.27,.94Z"/></g></g></svg>