<?xml version="1.0" encoding="UTF-8"?><svg id="Camada_2" xmlns="http://www.w3.org/2000/svg" xmlns:xlink="http://www.w3.org/1999/xlink" viewBox="0 0 578.27 199.02"><defs><style>.cls-1{fill:#00494c;}.cls-2{fill:#fff;}.cls-3{fill:#219595;}.cls-4{fill:#001110;}.cls-5{fill:#d2e2e2;}.cls-6{fill:#007071;}.cls-7{fill:#aacdcf;}.cls-8{clip-path:url(#clippath);}.cls-9{fill:#002625;}.cls-10{fill:none;}.cls-11{fill:#6db5b4;}</style><clipPath id="clippath"><circle class="cls-10" cx="99.46" cy="99.56" r="99.46"/></clipPath></defs><g id="Camada_1-2"><g><g><circle class="cls-2" cx="99.58" cy="99.44" r=".12"/><path class="cls-9" d="M99.58,99.44c27.1-19.08,54.2-38.16,81.3-57.25-2.64-3.79-6.02-8.08-10.32-12.46-4.86-4.96-9.66-8.78-13.81-11.67-19.06,27.13-38.11,54.25-57.17,81.38Z"/><path class="cls-1" d="M42.47,18.07C49.55,13.1,70.7-.35,100.8,0c28.67,.34,48.75,13.01,55.95,18.06-19.06,27.13-38.11,54.25-57.17,81.38-19.04-27.12-38.07-54.25-57.11-81.37Z"/><path class="cls-6" d="M18.12,42.52c27.15,18.98,54.3,37.95,81.46,56.93-19.04-27.12-38.07-54.25-57.11-81.37-4.27,3.01-9.17,6.96-14.14,12.08-4.21,4.33-7.56,8.58-10.2,12.36Z"/><path class="cls-3" d="M18.12,42.52c27.15,18.98,54.3,37.95,81.46,56.93-27.1,18.97-54.21,37.93-81.31,56.9C13.32,149.35-.88,127.42,.06,96.33c.83-27.34,12.91-46.52,18.06-53.82Z"/><path class="cls-4" d="M180.88,42.2c-27.1,19.08-54.2,38.16-81.3,57.25,27.13,18.95,54.27,37.91,81.4,56.86,4.98-7.15,18.75-28.91,17.92-59.67-.75-27.64-12.87-47.07-18.03-54.43Z"/><path class="cls-11" d="M18.27,156.35c2.85,4.05,6.57,8.71,11.34,13.45,4.64,4.6,9.17,8.21,13.15,10.99,18.94-27.11,37.88-54.23,56.82-81.34-27.1,18.97-54.21,37.93-81.31,56.9Z"/><path class="cls-7" d="M99.58,99.44c-18.94,27.11-37.88,54.23-56.82,81.34,7.08,4.94,27.63,17.9,56.95,17.87,29.27-.03,49.77-12.98,56.85-17.93-18.99-27.09-37.98-54.18-56.98-81.28Z"/><path class="cls-5" d="M99.58,99.44c18.99,27.09,37.98,54.18,56.98,81.28,4.16-2.88,8.98-6.69,13.88-11.67,4.42-4.49,7.88-8.89,10.55-12.75-27.13-18.95-54.27-37.91-81.4-56.86Z"/><g class="cls-8"><g><path class="cls-2" d="M128.27,88.68c-1.95-.88-3.94-1.19-3.94-1.19-.71-.11-1.31-.14-1.76-.16,8.57,5.99,17.15,11.97,25.72,17.96,5.13,.85,10.26,1.71,15.39,2.56-19.25-10.67-33.37-18.26-35.4-19.17Z"/><path class="cls-2" d="M207.44,99.54c.32,.69,.54,1.44,.66,2.21,.31,2.04-.25,4.18-1.51,5.86-1.2,1.59-2.9,2.6-4.79,2.84l-4.88,.53h0l-2.27,.24c-.43,.05-.9,.09-1.37,.1l-9.16,.83c-4.33,.34-8.71,.75-13.04,1.22-.28,.03-.56,.06-.85,.09l8.83,13.56,9.63,12.51c.64,.82,1.28,1.72,1.56,2.89,.24,.98,.29,1.99,.17,3-.24,1.97-1.32,3.82-2.95,5.08-3.14,2.42-7.9,1.85-10.4-1.26l-4.55-5.9c-.62-.8-1.26-1.62-1.6-2.67-.35-1.06-.41-2.24-.18-3.4,.54-2.68,2.38-4.86,4.9-5.85l-10.84-13.94c-6.2-2.05-11.23-3.69-14.64-4.81-9.69-3.16-14.83-4.83-15.53-5.06l-.08-.03c-1.1-.36-2.21-.72-3.31-1.07-3.2-1.04-6.51-2.11-9.74-3.22-1.17-.4-2.2-1.11-3.21-1.8l-2.19-1.5,3.95,.63c1.08,.17,2.15,.34,3.23,.52,4.09,.67,8.18,1.34,12.27,2.01l24.05,3.95c.32,.05,.65,.1,.97,.15,.79,.12,1.6,.23,2.39,.43,1.6,.4,3.19,.22,4.87,.03,.36-.04,.71-.08,1.07-.12,2.51-.24,5.02-.5,7.53-.76,1.27-.13,2.54-.26,3.81-.39l1.13-.11c1.69-.17,3.39-.34,5.08-.52-.8-2.79-.15-5.73,1.77-7.84,1.53-1.67,3.54-1.89,5.48-2.1l6.15-.67c2.15-.23,4.14,.41,5.76,1.86,.76,.69,1.38,1.53,1.82,2.47Zm-11.55,10.4l.31-.04,5.45-.59c1.57-.21,3-1.06,4.01-2.4,1.08-1.43,1.55-3.25,1.29-4.99-.23-1.57-.98-2.99-2.11-4-1.39-1.25-3.02-1.78-4.86-1.58l-6.11,.67c-1.93,.21-3.56,.39-4.8,1.74-1.79,1.96-2.29,4.78-1.31,7.35l.27,.7-.74,.08c-1.93,.2-3.87,.4-5.8,.59l-1.13,.11c-1.27,.13-2.54,.26-3.81,.39-2.51,.26-5.02,.52-7.54,.76-.35,.03-.7,.07-1.05,.11-1.71,.19-3.47,.39-5.28-.06-.74-.18-1.52-.3-2.28-.41-.33-.05-.66-.1-.99-.15l-24.05-3.95c-4.09-.67-8.18-1.34-12.26-2.01-.59-.1-1.17-.19-1.76-.28,.18,.08,.36,.15,.54,.21,3.23,1.11,6.53,2.18,9.73,3.21,1.1,.36,2.21,.72,3.31,1.08l.08,.03c.7,.23,5.84,1.9,15.53,5.06,3.44,1.12,8.54,2.79,14.81,4.86l.17,.05,12.07,15.53-.82,.23c-2.5,.71-4.37,2.72-4.87,5.24-.19,.97-.14,1.94,.14,2.81,.28,.86,.83,1.57,1.42,2.33l4.54,5.89c2.11,2.62,6.14,3.11,8.8,1.06,1.39-1.07,2.3-2.64,2.51-4.31h0c.11-.87,.06-1.74-.15-2.59-.23-.94-.79-1.73-1.35-2.45l-9.66-12.55-9.88-15.16,.92-.11c.59-.07,1.18-.13,1.77-.2,4.34-.48,8.73-.89,13.07-1.22l9.19-.83c.47-.01,.9-.06,1.31-.1l1.37-.14Zm8.81-9.02c.51,1.1,.55,2.53,.11,3.67-.49,1.25-1.63,2.59-3.09,2.78l-7.74,.84c-.64,.07-1.36,.15-2.09-.15-1.07-.44-1.91-1.35-2.36-2.57-.52-1.41-.44-3.05,.19-4.29,.25-.49,.61-1.1,1.19-1.52h0c.41-.3,1.05-.5,1.49-.57,1.11-.16,2.24-.27,3.33-.37,.55-.05,1.1-.11,1.65-.17l2.55-.28c.67-.07,1.52-.12,2.16,.14,1.15,.47,2.01,1.29,2.57,2.43,.01,.02,.02,.04,.03,.07Zm-13.96,4.47c.35,.76,.91,1.32,1.59,1.6,.45,.19,.95,.13,1.52,.07l7.73-.84c.97-.13,1.8-1.16,2.15-2.06,.33-.85,.31-2.01-.1-2.82-.43-.88-1.09-1.51-1.97-1.87-.45-.18-1.32-.09-1.6-.06l-2.55,.28c-.55,.06-1.11,.12-1.67,.17-1.08,.11-2.2,.22-3.28,.37-.34,.05-.77,.2-.97,.36-.38,.28-.65,.75-.84,1.12-.5,.96-.55,2.26-.14,3.37,.04,.11,.08,.21,.13,.31Zm-3.64,37.28c.08,.18,.15,.36,.2,.56,.31,1.24,.08,2.62-.62,3.7-.71,1.1-1.99,1.86-3.33,1.97-.7,.06-1.34-.02-2-.24-.5-.17-1.25-.57-1.71-1.15l-4.81-6.24c-.4-.51-.81-1.04-1.02-1.72-.33-1.07-.12-2.25,.59-3.32,.83-1.25,2.23-2.15,3.58-2.3,1.45-.16,2.61,.25,3.44,1.2,.76,.87,1.46,1.81,2.14,2.73,.34,.46,.67,.91,1.02,1.36l1.72,2.23c.29,.37,.59,.75,.8,1.21Zm-12.08-3.16c.17,.36,.43,.69,.71,1.07l4.81,6.24c.27,.33,.79,.64,1.17,.77,.52,.17,.99,.23,1.54,.18,1-.08,1.94-.64,2.46-1.45h0c.53-.82,.7-1.87,.47-2.8-.12-.49-.43-.88-.79-1.34l-1.73-2.23c-.35-.45-.69-.91-1.03-1.37-.66-.9-1.35-1.82-2.08-2.65-.59-.67-1.39-.93-2.46-.82-1.02,.11-2.1,.81-2.75,1.79-.51,.78-.67,1.61-.45,2.35,.03,.1,.07,.19,.11,.29Zm-9.19-28.16c.21,.44,.25,.94,.12,1.42-.14,.54-.49,.99-.97,1.26h0c-.97,.54-2.26,.2-2.82-.75-.27-.47-.35-1.05-.2-1.59,.14-.55,.5-1.01,.96-1.28,.96-.55,2.24-.21,2.81,.74,.04,.06,.07,.13,.1,.2Zm-1.42,1.68c.21-.12,.36-.32,.43-.56,.07-.25,.03-.51-.1-.73-.25-.42-.83-.58-1.25-.34-.2,.12-.36,.33-.42,.58-.07,.25-.04,.51,.08,.72,.24,.41,.84,.56,1.27,.33h0Z"/></g></g></g><g><path class="cls-2" d="M246.05,104.57c-1.06,0-2.05-.13-2.97-.38s-1.75-.73-2.5-1.43c-.75-.7-1.4-1.71-1.95-3.05-.55-1.34-.97-3.1-1.27-5.28-.29-2.18-.44-4.87-.44-8.06,0-3.78,.21-6.94,.63-9.49,.42-2.55,1-4.6,1.73-6.16,.73-1.56,1.57-2.76,2.5-3.6,.93-.84,1.92-1.41,2.94-1.71,1.03-.29,2.04-.44,3.03-.44,1.36,0,2.41,.16,3.16,.47,.75,.31,1.27,.7,1.57,1.15,.29,.46,.44,.93,.44,1.4,0,.51-.07,1.01-.22,1.49-.15,.48-.31,.88-.49,1.21-.18-.15-.45-.32-.8-.52-.35-.2-.76-.38-1.24-.55-.48-.17-.99-.25-1.54-.25-.7,0-1.38,.12-2.06,.36-.68,.24-1.32,.7-1.92,1.38-.61,.68-1.13,1.64-1.57,2.89-.44,1.25-.8,2.86-1.07,4.84-.27,1.98-.41,4.42-.41,7.32s.14,5.06,.41,6.82c.28,1.76,.65,3.13,1.13,4.1,.48,.97,1.05,1.64,1.73,2.01,.68,.37,1.42,.55,2.23,.55,1.06,0,2.05-.18,2.97-.55,.92-.37,1.61-.75,2.09-1.16,.18,.37,.35,.79,.5,1.27s.22,.95,.22,1.43c0,.7-.28,1.35-.85,1.95-.57,.6-1.37,1.09-2.39,1.46-1.03,.37-2.22,.55-3.58,.55Z"/><path class="cls-2" d="M256.56,104.02v-38.39c0-.7,.12-1.18,.36-1.46,.24-.27,.69-.44,1.35-.5,.66-.05,1.58-.08,2.75-.08v39.54c0,.29-.06,.5-.19,.6-.13,.11-.5,.18-1.1,.22-.6,.04-1.66,.05-3.16,.05Z"/><path class="cls-2" d="M274.21,104.57c-2.2,0-3.89-.33-5.06-.99-1.17-.66-1.99-1.67-2.45-3.02-.46-1.36-.69-3.06-.69-5.12v-18.04c0-.29,.06-.5,.17-.6s.49-.18,1.13-.22c.64-.04,1.73-.05,3.27-.05v19.3c0,1.17,.1,2.12,.3,2.83,.2,.71,.57,1.23,1.1,1.54,.53,.31,1.29,.47,2.28,.47,.51,0,1.12-.07,1.82-.22,.7-.15,1.34-.4,1.92-.77v-22.28c0-.29,.06-.5,.19-.6,.13-.11,.5-.18,1.1-.22,.6-.04,1.66-.05,3.16-.05v26.07c-1.06,.59-2.33,1.06-3.79,1.43-1.47,.37-2.95,.55-4.46,.55Z"/><path class="cls-2" d="M293.96,104.57c-1.47,0-2.74-.15-3.82-.44-1.08-.29-1.95-.7-2.61-1.21v-37.24c0-.7,.12-1.19,.36-1.49,.24-.29,.68-.47,1.32-.52,.64-.05,1.57-.08,2.78-.08v14.3c.77-.59,1.62-1.05,2.56-1.4,.93-.35,2.04-.52,3.33-.52,1.47,0,2.7,.35,3.69,1.04,.99,.7,1.74,1.83,2.25,3.41,.51,1.58,.77,3.7,.77,6.38,0,3.15-.21,5.81-.63,7.97-.42,2.16-1.01,3.89-1.76,5.17-.75,1.28-1.59,2.26-2.5,2.94-.92,.68-1.87,1.13-2.86,1.35-.99,.22-1.94,.33-2.86,.33Zm.61-3.96c.48,0,1.01-.15,1.59-.44,.59-.29,1.14-.88,1.65-1.76,.51-.88,.94-2.17,1.29-3.88s.52-3.95,.52-6.74c0-1.98-.15-3.54-.44-4.68-.29-1.14-.71-1.94-1.24-2.42-.53-.48-1.24-.71-2.12-.71-.7,0-1.37,.12-2.01,.36-.64,.24-1.26,.63-1.84,1.18v18.37c.26,.18,.59,.35,.99,.5,.4,.15,.93,.22,1.59,.22Z"/><path class="cls-2" d="M316.51,104.57c-1.25,0-2.41-.17-3.49-.52-1.08-.35-2.02-.98-2.8-1.9-.79-.92-1.39-2.22-1.82-3.91-.42-1.69-.63-3.87-.63-6.54,0-3.45,.27-6.21,.82-8.3,.55-2.09,1.28-3.67,2.2-4.73,.92-1.06,1.96-1.78,3.13-2.14,1.17-.37,2.37-.55,3.58-.55,2.31,0,4.05,.73,5.23,2.2,1.17,1.47,1.76,3.68,1.76,6.65,0,1.21-.05,2.46-.14,3.74-.09,1.28-.27,2.42-.52,3.41-1.25,.26-2.64,.44-4.18,.55s-3.01,.19-4.4,.25c-1.39,.05-2.99,.08-4.79,.08l.06-3.63c1.39,.04,2.59,.05,3.6,.03,1.01-.02,2.03-.07,3.08-.17,1.05-.09,1.93-.25,2.67-.47,.11-.51,.18-1.06,.22-1.65,.04-.59,.06-1.14,.06-1.65-.04-1.98-.27-3.38-.69-4.21-.42-.83-1.24-1.24-2.45-1.24-.62,0-1.22,.17-1.79,.52-.57,.35-1.07,.95-1.51,1.81-.44,.86-.78,2.04-1.02,3.55-.24,1.5-.36,3.43-.36,5.77,0,1.72,.1,3.15,.3,4.29,.2,1.14,.51,2.02,.93,2.64,.42,.62,.95,1.07,1.6,1.35,.64,.27,1.42,.41,2.34,.41,1.1,0,2.19-.15,3.27-.44,1.08-.29,2.06-.71,2.94-1.26,.18,.44,.3,.94,.36,1.51,.06,.57,.08,1.07,.08,1.51,0,.55-.35,1.06-1.04,1.54-.7,.48-1.62,.84-2.78,1.1-1.16,.26-2.43,.38-3.82,.38Z"/><path class="cls-2" d="M336.97,104.02v-37.46c0-.33,.1-.59,.3-.77,.2-.18,.59-.28,1.18-.28h5.45c1.1,0,2.2,.12,3.3,.36,1.1,.24,2.09,.66,2.97,1.26,.88,.61,1.59,1.46,2.14,2.56,.55,1.1,.83,2.55,.83,4.35,0,2.02-.28,3.65-.83,4.89-.55,1.25-1.23,2.19-2.04,2.83s-1.61,1.02-2.42,1.13c.62,.04,1.31,.17,2.06,.41,.75,.24,1.47,.64,2.15,1.21,.68,.57,1.23,1.37,1.65,2.39,.42,1.03,.63,2.37,.63,4.02,0,1.83-.17,3.46-.52,4.89-.35,1.43-.84,2.66-1.49,3.69s-1.4,1.88-2.28,2.56-1.83,1.17-2.86,1.48c-1.03,.31-2.13,.47-3.3,.47h-6.93Zm4.56-22.77h2.7c.77,0,1.46-.22,2.06-.66,.61-.44,1.08-1.14,1.43-2.09s.52-2.16,.52-3.63-.19-2.64-.58-3.41c-.38-.77-.89-1.29-1.51-1.57-.62-.27-1.28-.41-1.98-.41h-2.64v11.77Zm0,18.86h2.48c.7,0,1.35-.17,1.95-.5,.61-.33,1.15-.85,1.62-1.57,.48-.71,.85-1.62,1.13-2.72,.28-1.1,.41-2.44,.41-4.01,0-1.43-.12-2.56-.36-3.38-.24-.82-.59-1.45-1.04-1.87-.46-.42-1-.69-1.62-.8-.62-.11-1.3-.17-2.04-.17h-2.53v15.01Z"/><path class="cls-2" d="M365.67,104.57c-1.25,0-2.41-.17-3.49-.52-1.08-.35-2.02-.98-2.8-1.9-.79-.92-1.39-2.22-1.82-3.91-.42-1.69-.63-3.87-.63-6.54,0-3.45,.27-6.21,.82-8.3,.55-2.09,1.28-3.67,2.2-4.73,.92-1.06,1.96-1.78,3.13-2.14,1.17-.37,2.37-.55,3.58-.55,2.31,0,4.05,.73,5.23,2.2,1.17,1.47,1.76,3.68,1.76,6.65,0,1.21-.05,2.46-.14,3.74-.09,1.28-.27,2.42-.52,3.41-1.25,.26-2.64,.44-4.18,.55s-3.01,.19-4.4,.25c-1.39,.05-2.99,.08-4.79,.08l.06-3.63c1.39,.04,2.59,.05,3.6,.03,1.01-.02,2.03-.07,3.08-.17,1.05-.09,1.93-.25,2.67-.47,.11-.51,.18-1.06,.22-1.65,.04-.59,.06-1.14,.06-1.65-.04-1.98-.27-3.38-.69-4.21-.42-.83-1.24-1.24-2.45-1.24-.62,0-1.22,.17-1.79,.52-.57,.35-1.07,.95-1.51,1.81-.44,.86-.78,2.04-1.02,3.55-.24,1.5-.36,3.43-.36,5.77,0,1.72,.1,3.15,.3,4.29,.2,1.14,.51,2.02,.93,2.64,.42,.62,.95,1.07,1.6,1.35,.64,.27,1.42,.41,2.34,.41,1.1,0,2.19-.15,3.27-.44,1.08-.29,2.06-.71,2.94-1.26,.18,.44,.3,.94,.36,1.51,.06,.57,.08,1.07,.08,1.51,0,.55-.35,1.06-1.04,1.54-.7,.48-1.62,.84-2.78,1.1-1.16,.26-2.43,.38-3.82,.38Z"/><path class="cls-2" d="M377.61,104.02v-38.39c0-.7,.12-1.18,.36-1.46,.24-.27,.69-.44,1.35-.5,.66-.05,1.58-.08,2.75-.08v39.54c0,.29-.06,.5-.19,.6-.13,.11-.5,.18-1.1,.22-.6,.04-1.66,.05-3.16,.05Z"/><path class="cls-2" d="M394.99,104.57c-1.25,0-2.41-.17-3.49-.52-1.08-.35-2.02-.98-2.8-1.9-.79-.92-1.39-2.22-1.82-3.91-.42-1.69-.63-3.87-.63-6.54,0-3.45,.27-6.21,.82-8.3,.55-2.09,1.28-3.67,2.2-4.73,.92-1.06,1.96-1.78,3.13-2.14,1.17-.37,2.37-.55,3.58-.55,2.31,0,4.05,.73,5.23,2.2,1.17,1.47,1.76,3.68,1.76,6.65,0,1.21-.05,2.46-.14,3.74-.09,1.28-.27,2.42-.52,3.41-1.25,.26-2.64,.44-4.18,.55s-3.01,.19-4.4,.25c-1.39,.05-2.99,.08-4.79,.08l.06-3.63c1.39,.04,2.59,.05,3.6,.03,1.01-.02,2.03-.07,3.08-.17,1.05-.09,1.93-.25,2.67-.47,.11-.51,.18-1.06,.22-1.65,.04-.59,.06-1.14,.06-1.65-.04-1.98-.27-3.38-.69-4.21-.42-.83-1.24-1.24-2.45-1.24-.62,0-1.22,.17-1.79,.52-.57,.35-1.07,.95-1.51,1.81-.44,.86-.78,2.04-1.02,3.55-.24,1.5-.36,3.43-.36,5.77,0,1.72,.1,3.15,.3,4.29,.2,1.14,.51,2.02,.93,2.64,.42,.62,.95,1.07,1.6,1.35,.64,.27,1.42,.41,2.34,.41,1.1,0,2.19-.15,3.27-.44,1.08-.29,2.06-.71,2.94-1.26,.18,.44,.3,.94,.36,1.51,.06,.57,.08,1.07,.08,1.51,0,.55-.35,1.06-1.04,1.54-.7,.48-1.62,.84-2.78,1.1-1.16,.26-2.43,.38-3.82,.38Z"/><path class="cls-2" d="M406.26,104.02c-.48-.7-.71-1.43-.71-2.2,0-.33,.03-.62,.08-.88,.06-.26,.14-.53,.25-.83l10.72-19.8h-5.67c-1.03,0-1.97,.02-2.83,.05-.86,.04-1.59,.09-2.17,.17-.07-.44-.12-.84-.14-1.21-.02-.37-.03-.66-.03-.88,0-.66,.11-1.15,.33-1.46s.59-.47,1.1-.47h13.97c.33,.44,.49,.9,.49,1.38,0,.22-.04,.5-.11,.85-.07,.35-.22,.8-.44,1.35l-10.34,19.8h4.84c1.54,0,2.75-.06,3.63-.19,.88-.13,1.6-.27,2.15-.41,.07,.26,.12,.59,.14,.99,.02,.4,.03,.73,.03,.99-.04,.92-.16,1.6-.36,2.06-.2,.46-.67,.69-1.4,.69h-13.53Z"/><path class="cls-2" d="M432.28,104.57c-1.03,0-2.01-.08-2.94-.25-.94-.17-1.77-.53-2.5-1.1-.73-.57-1.32-1.4-1.76-2.5-.44-1.1-.66-2.6-.66-4.51s.2-3.46,.61-4.65c.4-1.19,.95-2.11,1.65-2.75s1.49-1.07,2.37-1.29,1.78-.33,2.7-.33c.59,0,1.27,.05,2.06,.17,.79,.11,1.46,.29,2.01,.55v-4.34c0-.88-.14-1.55-.41-2.01-.27-.46-.66-.79-1.16-.99-.49-.2-1.11-.3-1.84-.3-1.43,0-2.81,.13-4.12,.38-1.32,.26-2.38,.55-3.19,.88-.26-.44-.42-.89-.5-1.35-.07-.46-.11-.87-.11-1.24,0-.26,.04-.53,.14-.83,.09-.29,.25-.51,.47-.66,.48-.29,1.47-.61,2.97-.96s3.3-.52,5.39-.52c2.38,0,4.12,.5,5.2,1.48,1.08,.99,1.62,2.73,1.62,5.23v2.92c0,2.09,0,4.19-.03,6.3-.02,2.11-.05,4.09-.08,5.94-.04,1.85-.11,3.47-.22,4.87-.73,.44-1.74,.86-3.03,1.27-1.28,.4-2.82,.6-4.62,.6Zm.44-3.74c.59,0,1.15-.09,1.71-.27,.55-.18,.93-.4,1.15-.66,.07-.59,.12-1.39,.14-2.42,.02-1.03,.04-2.11,.05-3.25,.02-1.14,.03-2.2,.03-3.19-.37-.18-.8-.31-1.29-.38-.5-.07-.93-.11-1.29-.11-.59,0-1.13,.06-1.62,.19-.5,.13-.93,.38-1.29,.77-.37,.38-.66,.94-.88,1.68-.22,.73-.33,1.71-.33,2.92,0,.99,.08,1.8,.25,2.42,.17,.62,.41,1.11,.74,1.46,.33,.35,.71,.58,1.16,.69,.44,.11,.93,.17,1.49,.17Z"/><path class="cls-2" d="M453.34,104.02v-37.46c0-.33,.1-.59,.3-.77,.2-.18,.59-.28,1.18-.28h5.45c1.1,0,2.2,.12,3.3,.36,1.1,.24,2.09,.66,2.97,1.26,.88,.61,1.59,1.46,2.14,2.56,.55,1.1,.83,2.55,.83,4.35,0,2.02-.28,3.65-.83,4.89-.55,1.25-1.23,2.19-2.04,2.83s-1.61,1.02-2.42,1.13c.62,.04,1.31,.17,2.06,.41,.75,.24,1.47,.64,2.15,1.21,.68,.57,1.23,1.37,1.65,2.39,.42,1.03,.63,2.37,.63,4.02,0,1.83-.17,3.46-.52,4.89-.35,1.43-.84,2.66-1.49,3.69s-1.4,1.88-2.28,2.56-1.83,1.17-2.86,1.48c-1.03,.31-2.13,.47-3.3,.47h-6.93Zm4.56-22.77h2.7c.77,0,1.46-.22,2.06-.66,.61-.44,1.08-1.14,1.43-2.09s.52-2.16,.52-3.63-.19-2.64-.58-3.41c-.38-.77-.89-1.29-1.51-1.57-.62-.27-1.28-.41-1.98-.41h-2.64v11.77Zm0,18.86h2.48c.7,0,1.35-.17,1.95-.5,.61-.33,1.15-.85,1.62-1.57,.48-.71,.85-1.62,1.13-2.72,.28-1.1,.41-2.44,.41-4.01,0-1.43-.12-2.56-.36-3.38-.24-.82-.59-1.45-1.04-1.87-.46-.42-1-.69-1.62-.8-.62-.11-1.3-.17-2.04-.17h-2.53v15.01Z"/><path class="cls-2" d="M474.13,104.02v-25.58c1.06-.77,2.24-1.38,3.52-1.81,1.28-.44,2.6-.66,3.96-.66,1.43,0,2.43,.19,3,.58s.85,.96,.85,1.73c0,.29-.04,.69-.11,1.18-.07,.5-.2,.98-.39,1.46-.4-.22-.82-.39-1.26-.5-.44-.11-.9-.17-1.38-.17-.62,0-1.26,.1-1.9,.3s-1.22,.5-1.73,.91l-.05,21.67c0,.29-.06,.5-.19,.6-.13,.11-.5,.18-1.13,.22-.62,.04-1.69,.05-3.19,.05Z"/><path class="cls-2" d="M495.58,104.57c-1.03,0-2.01-.08-2.94-.25-.94-.17-1.77-.53-2.5-1.1-.73-.57-1.32-1.4-1.76-2.5-.44-1.1-.66-2.6-.66-4.51s.2-3.46,.61-4.65c.4-1.19,.95-2.11,1.65-2.75s1.49-1.07,2.37-1.29,1.78-.33,2.7-.33c.59,0,1.27,.05,2.06,.17,.79,.11,1.46,.29,2.01,.55v-4.34c0-.88-.14-1.55-.41-2.01-.27-.46-.66-.79-1.16-.99-.49-.2-1.11-.3-1.84-.3-1.43,0-2.81,.13-4.12,.38-1.32,.26-2.38,.55-3.19,.88-.26-.44-.42-.89-.5-1.35-.07-.46-.11-.87-.11-1.24,0-.26,.04-.53,.14-.83,.09-.29,.25-.51,.47-.66,.48-.29,1.47-.61,2.97-.96s3.3-.52,5.39-.52c2.38,0,4.12,.5,5.2,1.48,1.08,.99,1.62,2.73,1.62,5.23v2.92c0,2.09,0,4.19-.03,6.3-.02,2.11-.05,4.09-.08,5.94-.04,1.85-.11,3.47-.22,4.87-.73,.44-1.74,.86-3.03,1.27-1.28,.4-2.82,.6-4.62,.6Zm.44-3.74c.59,0,1.15-.09,1.71-.27,.55-.18,.93-.4,1.15-.66,.07-.59,.12-1.39,.14-2.42,.02-1.03,.04-2.11,.05-3.25,.02-1.14,.03-2.2,.03-3.19-.37-.18-.8-.31-1.29-.38-.5-.07-.93-.11-1.29-.11-.59,0-1.13,.06-1.62,.19-.5,.13-.93,.38-1.29,.77-.37,.38-.66,.94-.88,1.68-.22,.73-.33,1.71-.33,2.92,0,.99,.08,1.8,.25,2.42,.17,.62,.41,1.11,.74,1.46,.33,.35,.71,.58,1.16,.69,.44,.11,.93,.17,1.49,.17Z"/><path class="cls-2" d="M513.95,104.57c-1.94,0-3.55-.23-4.81-.69-1.27-.46-1.9-1.16-1.9-2.12,0-.33,.05-.72,.17-1.18,.11-.46,.31-.93,.6-1.4,.81,.48,1.66,.83,2.56,1.04,.9,.22,1.88,.33,2.94,.33,1.39,0,2.48-.28,3.27-.85,.79-.57,1.18-1.42,1.18-2.56,0-.73-.16-1.45-.47-2.14s-.89-1.41-1.73-2.15l-5.33-4.57c-1.25-1.03-2.08-2.03-2.5-3-.42-.97-.63-1.92-.63-2.83,0-1.28,.32-2.41,.96-3.38,.64-.97,1.63-1.73,2.97-2.28,1.34-.55,3.02-.83,5.03-.83,1.91,0,3.35,.18,4.32,.55,.97,.37,1.65,.78,2.04,1.24,.38,.46,.58,.89,.58,1.29,0,.77-.33,1.52-.99,2.25-.81-.51-1.65-.88-2.53-1.1-.88-.22-1.83-.33-2.86-.33-1.32,0-2.37,.23-3.16,.69-.79,.46-1.18,1.11-1.18,1.95,0,.48,.14,.97,.41,1.49,.28,.51,.87,1.15,1.79,1.92l5.12,4.12c1.21,1.14,2.05,2.22,2.53,3.25s.71,2.24,.71,3.63c0,2.42-.81,4.3-2.42,5.64s-3.83,2.01-6.65,2.01Z"/><path class="cls-2" d="M529.24,72.72c-.7-.04-1.25-.3-1.65-.8-.4-.5-.61-1.38-.61-2.67,.04-.99,.26-1.79,.66-2.39,.4-.61,1.04-.91,1.92-.91s1.43,.24,1.76,.71,.48,1.3,.44,2.47c0,1.1-.21,1.97-.63,2.61-.42,.64-1.05,.96-1.9,.96Zm-2.14,31.29v-25.46c0-.7,.13-1.18,.38-1.46,.26-.27,.71-.44,1.38-.5,.66-.05,1.59-.08,2.8-.08v26.62c0,.29-.06,.5-.19,.6-.13,.11-.5,.18-1.13,.22-.62,.04-1.71,.05-3.25,.05Z"/><path class="cls-2" d="M536.72,104.02v-38.39c0-.7,.12-1.18,.36-1.46,.24-.27,.69-.44,1.35-.5,.66-.05,1.58-.08,2.75-.08v39.54c0,.29-.06,.5-.19,.6-.13,.11-.5,.18-1.1,.22-.6,.04-1.66,.05-3.16,.05Z"/></g><g><path class="cls-2" d="M248.96,140l-2.43-6.31h-7.5l-2.48,6.31h-1.28l7.02-17.91h1.15l6.84,17.91h-1.32Zm-2.83-7.45l-2.46-6.69c-.07-.17-.15-.39-.24-.66-.09-.27-.19-.55-.29-.85-.1-.3-.2-.59-.3-.85-.08,.29-.17,.57-.27,.85s-.19,.56-.28,.82-.17,.5-.26,.71l-2.56,6.67h6.66Z"/><path class="cls-2" d="M260.2,121.01v5.4c0,.46,0,.97-.02,1.53-.02,.55-.03,1.01-.05,1.38h.07c.32-.82,.87-1.5,1.66-2.04s1.77-.8,2.95-.8c1.73,0,3.06,.58,4,1.75,.94,1.16,1.41,2.87,1.41,5.11,0,1.38-.21,2.58-.63,3.62-.42,1.04-1.05,1.85-1.89,2.43-.83,.58-1.88,.87-3.13,.87-1.13,0-2.05-.24-2.77-.71-.72-.48-1.24-1.07-1.56-1.79h-.1l-.23,2.26h-.94v-18.99h1.23Zm4.48,6.53c-1.05,0-1.9,.23-2.56,.68-.66,.45-1.14,1.11-1.45,1.97s-.46,1.92-.46,3.16v.2c0,1.83,.33,3.23,1,4.19s1.75,1.44,3.25,1.44,2.6-.51,3.36-1.52c.76-1.01,1.14-2.46,1.14-4.33s-.35-3.35-1.06-4.33c-.71-.97-1.78-1.46-3.21-1.46Z"/><path class="cls-2" d="M278.89,126.48c1.13,0,2.07,.26,2.83,.79,.75,.53,1.31,1.25,1.68,2.17,.37,.92,.56,1.97,.56,3.16v.89h-9.58c0,1.82,.42,3.22,1.26,4.2,.84,.98,2.05,1.46,3.62,1.46,.82,0,1.54-.07,2.14-.2,.61-.13,1.28-.36,2.02-.69v1.14c-.65,.29-1.3,.51-1.95,.64-.65,.13-1.4,.2-2.25,.2-1.34,0-2.47-.28-3.38-.84s-1.59-1.34-2.05-2.36-.69-2.21-.69-3.56,.22-2.52,.67-3.58c.44-1.06,1.09-1.89,1.95-2.51s1.92-.92,3.17-.92Zm-.01,1.06c-1.27,0-2.3,.42-3.08,1.26-.79,.84-1.25,2.06-1.39,3.64h8.26c0-.97-.14-1.82-.42-2.56-.28-.74-.69-1.32-1.25-1.73-.56-.41-1.27-.62-2.13-.62Z"/><path class="cls-2" d="M288.85,140h-1.25v-18.99h1.25v18.99Z"/><path class="cls-2" d="M298.27,126.48c1.13,0,2.07,.26,2.83,.79,.75,.53,1.31,1.25,1.68,2.17,.37,.92,.56,1.97,.56,3.16v.89h-9.58c0,1.82,.42,3.22,1.26,4.2,.84,.98,2.05,1.46,3.62,1.46,.82,0,1.54-.07,2.14-.2,.61-.13,1.28-.36,2.02-.69v1.14c-.65,.29-1.3,.51-1.95,.64-.65,.13-1.4,.2-2.25,.2-1.34,0-2.47-.28-3.38-.84s-1.59-1.34-2.05-2.36-.69-2.21-.69-3.56,.22-2.52,.67-3.58c.44-1.06,1.09-1.89,1.95-2.51s1.92-.92,3.17-.92Zm-.01,1.06c-1.27,0-2.3,.42-3.08,1.26-.79,.84-1.25,2.06-1.39,3.64h8.26c0-.97-.14-1.82-.42-2.56-.28-.74-.69-1.32-1.25-1.73-.56-.41-1.27-.62-2.13-.62Z"/><path class="cls-2" d="M315.27,140h-9.49v-.82l7.96-11.43h-7.37v-1.03h8.87v.84l-7.95,11.4h7.97v1.03Z"/><path class="cls-2" d="M323.15,126.5c1.46,0,2.55,.37,3.27,1.1s1.09,1.9,1.09,3.5v8.9h-.95l-.22-2.32h-.07c-.29,.5-.63,.94-1.04,1.32-.41,.39-.91,.69-1.5,.91-.59,.22-1.31,.33-2.15,.33s-1.59-.14-2.19-.43c-.61-.28-1.07-.7-1.4-1.24-.33-.55-.49-1.21-.49-1.99,0-1.32,.54-2.32,1.64-3.01s2.66-1.08,4.7-1.17l2.46-.12v-.96c0-1.36-.27-2.33-.8-2.9-.54-.58-1.33-.87-2.38-.87-.68,0-1.34,.09-1.97,.26s-1.27,.42-1.92,.75l-.39-1.03c.63-.3,1.32-.55,2.04-.75s1.49-.29,2.29-.29Zm3.12,6.75l-2.32,.1c-1.68,.08-2.97,.38-3.84,.9-.88,.52-1.32,1.3-1.32,2.34,0,.84,.26,1.48,.79,1.93,.52,.45,1.25,.67,2.19,.67,1.46,0,2.57-.42,3.34-1.25,.77-.83,1.16-1.96,1.17-3.39v-1.31Z"/><path class="cls-2" d="M347.46,145.87v-5.81c0-.37,0-.8,.02-1.32,.02-.51,.03-.95,.05-1.32h-.09c-.32,.81-.87,1.49-1.66,2.03-.79,.54-1.78,.81-2.97,.81-1.7,0-3.02-.58-3.96-1.74-.94-1.16-1.41-2.87-1.41-5.13,0-1.37,.21-2.57,.63-3.61,.42-1.04,1.05-1.85,1.89-2.44,.84-.59,1.89-.88,3.13-.88,1.14,0,2.07,.25,2.78,.75,.71,.5,1.23,1.1,1.56,1.81h.07l.2-2.31h.99v19.14h-1.23Zm-4.48-6.68c1.05,0,1.9-.22,2.56-.67s1.14-1.09,1.45-1.93c.31-.84,.47-1.87,.48-3.07v-.32c0-1.86-.34-3.26-1.01-4.22s-1.76-1.44-3.25-1.44-2.6,.52-3.36,1.55c-.76,1.03-1.14,2.47-1.14,4.32s.35,3.3,1.06,4.29c.71,.99,1.77,1.48,3.2,1.48Z"/><path class="cls-2" d="M363.45,126.73v13.27h-1l-.18-2.39h-.07c-.23,.49-.55,.93-.96,1.33-.42,.4-.92,.72-1.53,.95-.6,.24-1.3,.35-2.1,.35-1.02,0-1.87-.18-2.56-.53-.69-.35-1.21-.89-1.56-1.61-.35-.72-.52-1.61-.52-2.69v-8.69h1.23v8.57c0,1.33,.3,2.3,.9,2.93,.6,.63,1.48,.94,2.63,.94,.98,0,1.8-.19,2.46-.56,.66-.37,1.17-.94,1.51-1.7,.35-.76,.52-1.71,.52-2.85v-7.32h1.23Z"/><path class="cls-2" d="M372.92,126.48c1.13,0,2.07,.26,2.83,.79,.75,.53,1.31,1.25,1.68,2.17,.37,.92,.56,1.97,.56,3.16v.89h-9.58c0,1.82,.42,3.22,1.26,4.2,.84,.98,2.05,1.46,3.62,1.46,.82,0,1.54-.07,2.14-.2,.61-.13,1.28-.36,2.02-.69v1.14c-.65,.29-1.3,.51-1.95,.64-.65,.13-1.4,.2-2.25,.2-1.34,0-2.47-.28-3.38-.84s-1.59-1.34-2.05-2.36-.69-2.21-.69-3.56,.22-2.52,.67-3.58c.44-1.06,1.09-1.89,1.95-2.51s1.92-.92,3.17-.92Zm-.01,1.06c-1.27,0-2.3,.42-3.08,1.26-.79,.84-1.25,2.06-1.39,3.64h8.26c0-.97-.14-1.82-.42-2.56-.28-.74-.69-1.32-1.25-1.73-.56-.41-1.27-.62-2.13-.62Z"/><path class="cls-2" d="M391.71,139.18c.38,0,.74-.03,1.07-.08,.33-.06,.62-.13,.87-.22v1.03c-.26,.09-.57,.17-.92,.24-.35,.07-.74,.1-1.16,.1-.75,0-1.37-.14-1.87-.42-.5-.28-.87-.71-1.12-1.28-.25-.57-.38-1.3-.38-2.19v-8.59h-1.98v-.73l1.97-.38,.43-3.12h.82v3.21h4.14v1.03h-4.14v8.52c0,.95,.18,1.67,.53,2.17,.35,.49,.93,.74,1.74,.74Z"/><path class="cls-2" d="M401.77,126.5c.35,0,.68,.02,.99,.06,.31,.04,.6,.1,.87,.17l-.2,1.14c-.27-.07-.54-.13-.82-.17-.28-.04-.57-.05-.89-.05-.63,0-1.19,.12-1.68,.35-.49,.24-.91,.57-1.25,1.01s-.6,.97-.78,1.59c-.18,.62-.27,1.31-.27,2.08v7.32h-1.25v-13.27h1.06l.12,2.5h.07c.2-.51,.49-.97,.86-1.39,.37-.41,.82-.74,1.35-.98,.53-.24,1.13-.37,1.81-.37Z"/><path class="cls-2" d="M410.85,126.5c1.46,0,2.55,.37,3.27,1.1s1.09,1.9,1.09,3.5v8.9h-.95l-.22-2.32h-.07c-.29,.5-.63,.94-1.04,1.32-.41,.39-.91,.69-1.5,.91-.59,.22-1.31,.33-2.15,.33s-1.59-.14-2.19-.43c-.61-.28-1.07-.7-1.4-1.24-.33-.55-.49-1.21-.49-1.99,0-1.32,.54-2.32,1.64-3.01s2.66-1.08,4.7-1.17l2.46-.12v-.96c0-1.36-.27-2.33-.8-2.9-.54-.58-1.33-.87-2.38-.87-.68,0-1.34,.09-1.97,.26s-1.27,.42-1.92,.75l-.39-1.03c.63-.3,1.32-.55,2.04-.75s1.49-.29,2.29-.29Zm3.12,6.75l-2.32,.1c-1.68,.08-2.97,.38-3.84,.9-.88,.52-1.32,1.3-1.32,2.34,0,.84,.26,1.48,.79,1.93,.52,.45,1.25,.67,2.19,.67,1.46,0,2.57-.42,3.34-1.25,.77-.83,1.16-1.96,1.17-3.39v-1.31Z"/><path class="cls-2" d="M425.3,126.48c1.49,0,2.63,.39,3.43,1.17s1.2,2.01,1.2,3.67v8.68h-1.22v-8.61c0-1.32-.3-2.29-.9-2.91-.6-.62-1.48-.93-2.62-.93-1.46,0-2.57,.43-3.34,1.28-.77,.85-1.15,2.13-1.15,3.85v7.31h-1.23v-13.27h1l.18,2.42h.07c.24-.5,.56-.95,.97-1.35,.41-.4,.92-.72,1.52-.96,.6-.24,1.3-.36,2.1-.36Z"/><path class="cls-2" d="M442.51,136.52c0,.79-.2,1.46-.59,2.02-.4,.56-.97,.98-1.73,1.27-.76,.29-1.69,.43-2.8,.43-.92,0-1.74-.08-2.46-.24-.72-.16-1.33-.36-1.82-.6v-1.22c.61,.3,1.29,.54,2.03,.73,.74,.19,1.5,.28,2.28,.28,1.37,0,2.35-.23,2.95-.7,.6-.46,.9-1.1,.9-1.9,0-.53-.15-.97-.45-1.31s-.72-.65-1.28-.9-1.22-.51-2-.77c-.81-.28-1.54-.55-2.17-.82s-1.12-.63-1.48-1.09c-.36-.45-.54-1.07-.54-1.85,0-1.07,.43-1.9,1.28-2.49,.85-.59,2-.89,3.44-.89,.8,0,1.54,.08,2.23,.23,.69,.15,1.31,.34,1.87,.58l-.44,1.05c-.5-.24-1.09-.43-1.75-.57-.66-.15-1.32-.22-1.98-.22-1.08,0-1.93,.19-2.54,.57-.61,.38-.92,.94-.92,1.68,0,.57,.15,1.02,.44,1.34s.71,.59,1.26,.81c.55,.22,1.19,.45,1.94,.71,.77,.27,1.49,.55,2.14,.84,.65,.29,1.18,.67,1.57,1.13s.59,1.09,.59,1.89Z"/><path class="cls-2" d="M450.8,127.76h-3.12v12.24h-1.23v-12.24h-2.47v-.73l2.47-.32v-1.46c0-.98,.14-1.79,.42-2.44,.28-.65,.71-1.13,1.28-1.45,.57-.32,1.3-.48,2.18-.48,.46,0,.87,.04,1.23,.1,.37,.07,.71,.16,1.03,.26l-.28,1.04c-.29-.1-.6-.18-.95-.24s-.69-.1-1.02-.1c-.94,0-1.61,.26-2.03,.78s-.63,1.36-.63,2.52v1.5h3.12v1.03Z"/><path class="cls-2" d="M464.38,133.35c0,1.03-.13,1.96-.38,2.8-.25,.84-.63,1.57-1.12,2.18-.5,.61-1.11,1.08-1.85,1.42-.74,.33-1.59,.5-2.57,.5s-1.75-.17-2.48-.49c-.72-.33-1.34-.8-1.84-1.41-.5-.61-.88-1.34-1.14-2.18-.26-.84-.39-1.78-.39-2.81,0-1.42,.24-2.65,.71-3.68,.48-1.03,1.16-1.82,2.05-2.37,.89-.55,1.96-.82,3.21-.82s2.36,.29,3.22,.87,1.5,1.39,1.93,2.42c.43,1.03,.65,2.23,.65,3.58Zm-10.5,0c0,1.16,.17,2.18,.5,3.05,.33,.87,.84,1.55,1.52,2.04,.68,.49,1.54,.73,2.58,.73s1.94-.24,2.62-.73,1.19-1.17,1.51-2.05,.49-1.89,.49-3.04-.15-2.11-.46-2.98c-.31-.87-.8-1.56-1.46-2.06-.67-.5-1.54-.75-2.61-.75-1.54,0-2.7,.51-3.5,1.54-.79,1.03-1.19,2.44-1.19,4.25Z"/><path class="cls-2" d="M473.31,126.5c.35,0,.68,.02,.99,.06,.31,.04,.6,.1,.87,.17l-.2,1.14c-.27-.07-.54-.13-.82-.17-.28-.04-.57-.05-.89-.05-.63,0-1.19,.12-1.68,.35-.49,.24-.91,.57-1.25,1.01s-.6,.97-.78,1.59c-.18,.62-.27,1.31-.27,2.08v7.32h-1.25v-13.27h1.06l.12,2.5h.07c.2-.51,.49-.97,.86-1.39,.37-.41,.82-.74,1.35-.98,.53-.24,1.13-.37,1.81-.37Z"/><path class="cls-2" d="M491.45,126.48c1.28,0,2.29,.37,3.03,1.11,.74,.74,1.11,1.91,1.11,3.5v8.91h-1.21v-8.86c0-1.23-.28-2.13-.84-2.71-.56-.58-1.3-.87-2.22-.87-1.26,0-2.25,.37-2.96,1.11s-1.07,1.89-1.07,3.47v7.86h-1.22v-8.86c0-.82-.13-1.5-.38-2.02-.26-.52-.61-.92-1.07-1.17-.46-.26-.99-.38-1.61-.38-.82,0-1.53,.17-2.14,.51-.6,.34-1.07,.86-1.39,1.56-.33,.7-.49,1.6-.49,2.68v7.69h-1.23v-13.27h1l.18,2.17h.07c.22-.43,.51-.83,.88-1.2s.82-.66,1.36-.89,1.18-.34,1.91-.34c.95,0,1.76,.21,2.42,.64,.66,.43,1.12,1.06,1.39,1.9h.08c.36-.8,.91-1.42,1.67-1.87,.75-.45,1.66-.67,2.73-.67Z"/><path class="cls-2" d="M504.48,126.5c1.46,0,2.55,.37,3.27,1.1s1.09,1.9,1.09,3.5v8.9h-.95l-.22-2.32h-.07c-.29,.5-.63,.94-1.04,1.32-.41,.39-.91,.69-1.5,.91-.59,.22-1.31,.33-2.15,.33s-1.59-.14-2.19-.43c-.61-.28-1.07-.7-1.4-1.24-.33-.55-.49-1.21-.49-1.99,0-1.32,.54-2.32,1.64-3.01s2.66-1.08,4.7-1.17l2.46-.12v-.96c0-1.36-.27-2.33-.8-2.9-.54-.58-1.33-.87-2.38-.87-.68,0-1.34,.09-1.97,.26s-1.27,.42-1.92,.75l-.39-1.03c.63-.3,1.32-.55,2.04-.75s1.49-.29,2.29-.29Zm3.12,6.75l-2.32,.1c-1.68,.08-2.97,.38-3.84,.9-.88,.52-1.32,1.3-1.32,2.34,0,.84,.26,1.48,.79,1.93,.52,.45,1.25,.67,2.19,.67,1.46,0,2.57-.42,3.34-1.25,.77-.83,1.16-1.96,1.17-3.39v-1.31Z"/><path class="cls-2" d="M522.47,140l-5.09-13.27h1.31l3.41,9.05c.21,.54,.4,1.07,.57,1.57,.17,.5,.31,.95,.42,1.36h.06c.13-.41,.28-.86,.45-1.37s.35-1.03,.56-1.56l3.41-9.05h1.32l-5.1,13.27h-1.29Z"/><path class="cls-2" d="M531.7,121.83c.31,0,.54,.09,.68,.27,.15,.18,.22,.43,.22,.74s-.07,.55-.22,.73-.37,.27-.68,.27c-.29,0-.51-.09-.66-.27s-.22-.42-.22-.73,.07-.56,.22-.74c.15-.18,.37-.27,.66-.27Zm.6,4.91v13.27h-1.23v-13.27h1.23Z"/><path class="cls-2" d="M541.52,140.25c-1.81,0-3.2-.57-4.14-1.71s-1.42-2.81-1.42-5,.5-4.04,1.5-5.25c1-1.2,2.4-1.81,4.19-1.81,.76,0,1.43,.12,2,.35,.57,.24,1.04,.56,1.43,.96,.39,.4,.69,.86,.9,1.37h.1c-.03-.43-.06-.9-.07-1.39s-.02-.95-.02-1.37v-5.4h1.23v18.99h-1l-.16-2.43h-.07c-.22,.49-.52,.94-.91,1.34-.39,.41-.87,.73-1.45,.97-.58,.24-1.27,.36-2.09,.36Zm.13-1.07c1.56,0,2.67-.49,3.33-1.46,.66-.97,.99-2.36,.99-4.17v-.2c0-1.87-.33-3.31-.99-4.3-.66-1-1.73-1.5-3.22-1.5s-2.6,.51-3.38,1.54c-.78,1.03-1.17,2.51-1.17,4.47,0,1.84,.36,3.23,1.09,4.19,.73,.95,1.84,1.43,3.34,1.43Z"/><path class="cls-2" d="M556.23,126.5c1.46,0,2.55,.37,3.27,1.1s1.09,1.9,1.09,3.5v8.9h-.95l-.22-2.32h-.07c-.29,.5-.63,.94-1.04,1.32-.41,.39-.91,.69-1.5,.91-.59,.22-1.31,.33-2.15,.33s-1.59-.14-2.19-.43c-.61-.28-1.07-.7-1.4-1.24-.33-.55-.49-1.21-.49-1.99,0-1.32,.54-2.32,1.64-3.01s2.66-1.08,4.7-1.17l2.46-.12v-.96c0-1.36-.27-2.33-.8-2.9-.54-.58-1.33-.87-2.38-.87-.68,0-1.34,.09-1.97,.26s-1.27,.42-1.92,.75l-.39-1.03c.63-.3,1.32-.55,2.04-.75s1.49-.29,2.29-.29Zm3.12,6.75l-2.32,.1c-1.68,.08-2.97,.38-3.84,.9-.88,.52-1.32,1.3-1.32,2.34,0,.84,.26,1.48,.79,1.93,.52,.45,1.25,.67,2.19,.67,1.46,0,2.57-.42,3.34-1.25,.77-.83,1.16-1.96,1.17-3.39v-1.31Z"/><path class="cls-2" d="M573.14,136.52c0,.79-.2,1.46-.59,2.02-.4,.56-.97,.98-1.73,1.27-.76,.29-1.69,.43-2.8,.43-.92,0-1.74-.08-2.46-.24-.72-.16-1.33-.36-1.82-.6v-1.22c.61,.3,1.29,.54,2.03,.73,.74,.19,1.5,.28,2.28,.28,1.37,0,2.35-.23,2.95-.7,.6-.46,.9-1.1,.9-1.9,0-.53-.15-.97-.45-1.31s-.72-.65-1.28-.9-1.22-.51-2-.77c-.81-.28-1.54-.55-2.17-.82s-1.12-.63-1.48-1.09c-.36-.45-.54-1.07-.54-1.85,0-1.07,.43-1.9,1.28-2.49,.85-.59,2-.89,3.44-.89,.8,0,1.54,.08,2.23,.23,.69,.15,1.31,.34,1.87,.58l-.44,1.05c-.5-.24-1.09-.43-1.75-.57-.66-.15-1.32-.22-1.98-.22-1.08,0-1.93,.19-2.54,.57-.61,.38-.92,.94-.92,1.68,0,.57,.15,1.02,.44,1.34s.71,.59,1.26,.81c.55,.22,1.19,.45,1.94,.71,.77,.27,1.49,.55,2.14,.84,.65,.29,1.18,.67,1.57,1.13s.59,1.09,.59,1.89Z"/><path class="cls-2" d="M576.29,139.13c0-.36,.08-.63,.24-.82s.4-.29,.72-.29c.35,0,.61,.1,.77,.29s.24,.47,.24,.82-.08,.63-.24,.83-.42,.29-.77,.29c-.32,0-.56-.1-.72-.29s-.24-.47-.24-.83Z"/></g></g></g></svg>